<svg xmlns="http://www.w3.org/2000/svg" height="26.45834cm" viewBox="0 0 1000 1000" width="26.45834cm">
<g fill="none" stroke="#00f">
<polyline points="563.4 629.9 569.8 644.5 572.7 652.0 575.6 659.7 578.2 667.6 580.6 675.7 587.2 700.2 589.4 707.9 591.8 715.2 594.4 721.8 597.3 727.8 600.6 733.0 604.3 737.4 608.2 741.2 612.5 744.4 617.0 747.2 621.8 749.7 626.8 752.0 642.9 758.4 654.3 762.3 665.9 765.6 671.7 766.9 677.5 768.0 683.3 768.9 689.1 769.4 694.8 769.5 700.6 769.4 706.4 768.9 712.2 768.0 718.2 766.7 724.2 765.0 730.3 762.9 736.5 760.4 742.8 757.5 748.9 754.1 755.0 750.4 760.8 746.3 766.5 741.9 771.8 737.1 776.8 731.9 781.4 726.4 785.5 720.6 789.1 714.5 792.0 708.2 794.1 701.7 795.5 695.0 796.0 688.1 795.6 681.1 794.3 674.1 792.3 667.0 789.6 659.9 786.3 653.0 782.6 646.1 778.4 639.5 774.0 633.1 769.3 626.9 764.5 621.0 744.5 598.2 739.6 592.4 734.8 586.4 730.2 580.1 725.7 573.6 721.3 567.0 717.1 560.1 713.0 553.1 705.2 538.9 697.8 524.4 690.7 509.9 680.5 487.9 670.6 465.7 664.2 450.6 658.1 435.3 652.5 419.6 649.9 411.6 645.4 395.2 643.4 387.0 640.0 370.8 638.6 362.9 636.3 348.2 634.8 334.9 633.9 322.6 633.7 316.7 633.6 304.9 634.5 279.6 634.5 273.1 634.3 266.5 633.9 260.0 633.0 253.6 631.7 247.4 629.9 241.4 627.6 235.8 625.1 230.6 622.3 225.9 619.4 222.0 616.5 218.8 613.7 216.6 611.2 215.3 609.0 215.2 607.1 215.9 605.6 217.3 604.6 219.2 604.0 221.2 604.0 223.3 604.5 225.0 605.6 226.3 607.3 227.0 609.6 227.0 612.4 226.4 615.6 225.3 619.2 223.7 623.2 221.7 632.0 216.8 646.4 208.3 651.4 205.6 656.6 203.3 661.7 201.4 666.9 200.1 672.1 199.5 677.2 199.7 682.1 200.7 686.9 202.4 691.3 204.7 695.2 207.4 698.6 210.7 701.4 214.2 703.5 218.1 704.7 222.1 705.2 226.3 705.1 230.7 704.4 235.2 703.1 239.9 701.5 244.7 699.5 249.6 689.9 270.2 687.6 275.7 685.4 281.4 683.5 287.2 682.0 293.3 681.0 299.6 680.5 306.1 680.4 312.9 680.7 319.9 683.3 349.5 683.7 357.2 683.9 365.0 683.9 372.8 683.1 388.4 680.0 427.6 678.6 450.8 677.7 474.3 677.0 506.3 676.7 514.1 676.1 521.8 675.3 529.1 674.1 536.1 672.5 542.7 670.4 548.8 667.9 554.4 665.0 559.7 661.9 564.8 658.6 569.6 644.4 588.6 641.0 593.5 634.4 603.9 628.1 615.0 622.1 626.8 619.3 633.1 614.1 646.0 609.6 658.9 605.9 671.1 603.4 682.2 602.5 687.1 602.1 691.5 601.9 695.4 602.2 698.8 603.0 701.7 604.2 703.9 605.9 705.4 608.1 706.3 610.6 706.5 613.5 705.9 616.5 704.6 619.4 702.5 622.3 699.5 624.8 695.7 627.0 691.0 628.7 685.4 629.8 679.1 630.6 672.1 631.1 664.5 631.4 648.3 631.0 614.7 630.7 557.6 630.3 533.6 629.7 517.6 628.7 501.8 624.9 462.1 623.8 446.1 623.3 429.8 623.8 388.6 623.8 380.5 623.5 372.5 623.0 364.7 622.3 357.1 621.3 349.7 620.0 342.6 618.4 335.8 616.5 329.4 614.3 323.5 611.7 318.0 608.8 313.0 605.7 308.5 602.3 304.7 598.7 301.5 594.9 299.0 591.1 297.2 587.2 296.2 583.4 296.0 579.5 296.7 575.8 298.1 572.3 300.3 569.0 303.2 566.0 306.7 563.3 310.8 561.0 315.4 559.2 320.6 557.9 326.1 557.1 332.1 556.7 338.4 556.6 344.9 556.9 351.7 557.4 358.6 558.9 372.6 560.8 386.7 563.2 400.8 566.0 415.1 567.6 422.2 571.3 436.8 579.5 466.4 583.5 481.4 585.3 488.9 588.4 503.9 589.8 511.4 592.2 526.6 600.0 582.6 605.2 615.7 611.0 648.5 620.4 698.3 623.7 715.2 627.5 731.9 629.6 740.1 631.9 748.0 634.5 755.8 637.2 763.4 640.2 770.8 643.3 778.1 646.6 785.2 653.8 799.1 661.6 812.6 669.9 825.6 678.9 838.1 683.5 844.1 688.3 849.8 693.2 855.4 698.2 860.8 703.2 865.8 708.4 870.6 713.6 874.9 718.8 878.8 723.9 882.2 729.0 885.0 734.0 887.2 738.9 888.7 743.7 889.7 748.2 889.9 752.5 889.5 756.4 888.6 760.0 887.0 763.1 884.9 765.8 882.1 767.9 878.9 769.5 875.1 770.6 870.9 771.3 866.3 771.5 861.4 771.3 856.3 770.6 850.8 769.6 845.3 768.2 839.6 766.6 833.7 764.6 827.8 760.1 815.7 747.3 784.5 745.0 778.3 742.9 772.1 741.2 765.9 739.9 759.8 739.2 753.9 739.1 748.1 739.6 742.5 740.8 737.0 742.5 731.7 744.7 726.5 747.3 721.5 750.2 716.6 753.4 711.8 756.7 707.2 770.4 689.7 773.6 685.3 776.5 680.8 779.2 676.2 781.4 671.4 783.3 666.3 784.8 661.1 785.9 655.7 786.7 650.2 787.2 644.5 787.4 638.7 787.3 632.8 786.9 626.8 786.4 620.7 783.6 596.3 783.1 590.2 782.9 584.2 783.0 578.3 783.5 572.4 784.3 566.6 785.4 560.8 786.9 555.0 788.5 549.0 798.6 516.3 805.0 494.4 822.4 432.2 826.5 418.7 835.7 390.7 840.1 376.2 842.0 368.8 843.7 361.4 845.1 354.0 846.2 346.7 847.9 332.7 849.7 307.7 850.3 303.0 850.6 301.3 851.7 298.3 856.0 289.5 859.0 282.5 862.0 274.2 863.3 269.7 864.4 265.0 865.3 260.2 865.9 255.3 866.1 250.4 866.1 245.5 865.7 240.7 864.9 235.9 863.7 231.4 862.1 227.0 860.1 222.8 857.7 218.9 854.9 215.2 851.9 211.8 848.6 208.6 845.1 205.7 841.5 203.1 837.8 200.7 834.0 198.6 830.3 196.9 826.6 195.6 823.0 195.0 819.6 195.1 816.3 196.1 813.4 198.0 810.6 200.9 808.3 204.9 806.2 210.0 804.3 215.9 802.7 222.4 799.8 236.9 791.4 288.3 788.4 309.5 786.1 330.8 785.0 345.1 784.2 359.6 783.6 381.6 783.6 389.1 783.9 404.3 784.7 419.7 785.3 427.6 787.0 443.7 789.2 460.1 791.9 476.7 796.6 501.6 802.0 526.2 805.8 542.2 809.7 557.8 815.7 580.1 820.1 594.3 822.6 601.3 825.2 608.1 827.9 614.8 831.0 621.4 834.2 627.8 837.6 634.1 841.1 640.3 848.5 652.1 856.2 663.0 860.1 668.0 863.9 672.9 871.4 681.6 875.0 685.5 881.8 692.2 884.9 694.9 894.3 702.7 895.6 704.3 896.5 705.8 896.7 707.3 896.4 709.1 895.3 711.0 893.7 713.0 891.5 715.0 888.9 716.8 885.9 718.3 882.7 719.3 879.2 719.8 875.5 719.5 871.9 718.4 868.1 716.5 864.4 713.9 860.6 710.6 856.9 706.8 853.2 702.5 849.5 697.7 845.9 692.6 838.8 681.5 817.7 645.0 798.9 614.1 791.8 601.3 788.4 594.6 785.3 587.8 782.3 580.8 779.5 573.7 774.3 559.2 767.1 537.0 758.0 507.6 753.8 492.8 749.8 477.7 740.6 438.8 736.6 423.0 732.2 407.1 723.1 376.8 721.2 369.8 719.6 363.2 718.5 357.0 717.8 351.3 717.5 345.9 717.7 341.0 718.4 336.4 719.4 332.1 720.8 328.1 722.6 324.3 724.8 320.6 727.3 317.1 730.1 313.7 733.1 310.4 745.7 297.4 748.7 294.0 756.8 283.9 759.4 280.9 762.0 278.4 764.8 276.4 767.8 275.1 771.0 274.6 774.6 275.0 778.4 276.2 782.4 278.1 786.5 280.6 790.5 283.5 794.4 286.7 798.2 290.1 801.6 293.6 804.6 296.9 807.3 300.2 809.5 303.2 811.1 306.0 812.3 308.6 812.8 310.8 812.8 312.6 812.0 314.1 810.6 315.0 808.6 315.6 805.9 315.9 802.6 315.9 784.9 314.9 779.6 314.8 756.5 314.7 744.9 314.4 739.4 314.1 734.2 313.5 729.3 312.7 724.7 311.8 720.4 310.6 716.4 309.1 712.9 307.5 709.7 305.6 706.9 303.4 704.6 301.1 702.6 298.6 701.0 296.1 699.8 293.7 698.8 291.7 697.7 288.4 698.3 291.5 699.1 297.2 699.6 305.5 699.4 316.2 697.6 342.8 697.0 357.4 697.1 364.8 697.4 372.1 697.9 379.4 698.7 386.7 701.0 401.4 703.8 416.5 708.7 440.6 712.4 457.3 716.5 474.0 718.7 482.2 723.4 497.9 726.0 505.5 728.7 512.9 731.6 520.2 734.6 527.3 737.9 534.5 741.3 541.6 745.1 548.7 749.0 555.8 753.2 563.0 762.0 577.3 801.3 638.6 810.1 651.4 814.7 657.9 829.2 677.2 833.9 683.8 838.4 690.5 842.6 697.4 846.2 704.4 849.4 711.5 851.9 718.9 853.7 726.5 855.0 734.2 855.8 742.1 856.2 750.0 856.1 758.1 855.7 766.2 854.9 774.3 854.0 782.4 852.8 790.5 851.5 798.6 845.8 830.3 841.3 859.8 840.1 866.3 838.7 872.1 837.0 877.2 834.9 881.4 832.3 884.7 829.1 886.8 825.4 887.9 821.2 888.0 816.8 887.2 812.0 885.6 807.1 883.1 802.2 879.9 797.3 876.0 792.4 871.5 787.7 866.5 769.1 844.8 764.4 839.7 759.6 835.1 754.8 830.9 749.8 827.3 744.8 824.1 739.6 821.2 734.4 818.7 729.1 816.3 707.2 807.7 695.9 802.9 690.2 800.2 684.5 797.0 678.8 793.5 673.1 789.5 667.4 784.9 661.8 779.9 656.3 774.4 650.9 768.6 645.8 762.4 640.8 756.0 636.1 749.3 631.7 742.5 627.6 735.6 623.9 728.6 620.3 721.5 613.9 707.2 604.9 685.3 590.1 648.4 578.8 618.7 568.1 589.2 550.6 538.1 542.8 516.7 540.0 509.6 534.1 495.7 515.9 455.4 510.4 442.6 505.5 429.8 503.4 423.3 501.5 416.8 500.0 410.2 498.7 403.5 497.8 396.7 497.3 389.8 497.1 382.8 497.2 375.7 497.7 368.7 498.4 361.7 499.4 354.7 500.8 347.9 502.3 341.2 504.2 334.8 506.2 328.6 508.3 322.8 510.6 317.5 512.9 312.7 515.3 308.6 517.6 305.1 519.9 302.5 522.1 300.5 524.3 299.1 526.4 298.1 528.6 297.6 530.7 297.3 537.0 297.1 540.9 296.7 542.6 296.2 543.9 295.6 544.9 294.6 545.3 293.4 545.2 291.8 544.4 289.8 543.1 287.6 541.4 285.1 537.2 280.1 533.0 275.6 529.8 272.6 528.8 271.8 528.1 271.5 527.8 271.8 527.9 272.8 528.4 274.4 532.3 283.5 542.0 304.4 560.7 343.8 570.2 364.7 576.2 379.3 590.4 417.8 596.4 433.0 599.7 440.4 603.0 447.6 606.6 454.6 610.4 461.5 614.3 468.2 618.3 474.9 626.8 488.0 635.7 501.1 664.1 541.4 678.1 562.6 686.8 576.8 694.7 590.6 698.1 597.3 701.3 603.7 704.0 609.9 706.3 615.9 708.3 621.8 709.8 627.7 710.8 633.7 711.4 639.9 711.6 646.4 711.3 653.3 710.6 660.6 709.5 668.3 705.3 692.8 704.0 701.2 703.0 709.5 702.3 717.7"/>
<polyline points="449.3 671.0 443.1 684.5 437.5 698.5 434.9 705.8 432.5 713.3 430.2 721.1 421.8 754.1 419.6 762.1 417.0 769.6 414.2 776.6 411.0 782.9 407.3 788.3 403.3 793.0 398.8 797.0 394.1 800.3 389.1 803.1 383.8 805.4 378.4 807.4 372.9 809.1 361.7 811.8 350.4 813.9 339.2 815.6 328.3 817.0 312.6 818.6 307.5 818.9 302.4 818.9 297.3 818.7 292.2 818.1 287.0 817.2 281.7 815.8 276.4 814.1 271.1 812.0 265.8 809.6 260.7 806.9 255.7 804.0 251.0 800.8 246.5 797.4 242.4 793.9 238.7 790.3 235.3 786.4 232.4 782.3 229.9 778.0 227.9 773.4 226.4 768.5 225.5 763.4 225.2 757.9 225.4 752.1 226.2 746.2 227.6 740.2 229.5 734.1 232.0 728.2 235.1 722.3 238.7 716.7 242.8 711.3 247.4 706.1 252.2 701.1 272.8 681.6 277.7 676.5 282.2 671.3 286.5 665.9 290.5 660.4 294.3 654.7 301.4 642.9 311.5 624.2 331.6 585.4 348.4 554.0 354.6 541.2 357.5 534.6 360.2 527.8 362.6 520.7 364.8 513.4 366.8 505.9 368.6 498.3 370.2 490.5 371.5 482.7 372.6 474.9 373.5 467.0 374.2 459.2 374.6 451.5 374.9 443.7 374.9 436.0 374.8 428.4 374.4 420.8 373.8 413.3 373.0 405.9 372.0 398.6 367.6 370.5 366.7 363.7 366.1 357.2 365.8 350.8 365.9 344.6 366.4 338.6 367.2 332.8 368.2 327.4 369.5 322.3 370.9 317.6 372.5 313.3 374.1 309.5 375.8 306.2 381.2 296.7 381.7 294.9 381.9 293.3 381.5 291.6 380.5 290.0 378.9 288.4 376.7 286.7 374.1 285.1 371.0 283.4 363.6 280.3 359.3 278.9 350.1 276.2 345.2 275.1 340.1 274.2 335.0 273.5 329.9 273.1 324.7 273.0 319.7 273.2 314.8 273.7 310.0 274.6 305.6 275.7 301.4 277.1 297.7 278.5 294.5 280.1 291.9 281.7 289.8 283.3 288.5 284.8 287.8 286.2 287.7 287.6 288.0 289.0 288.7 290.3 289.7 291.7 294.9 297.7 297.4 301.5 298.5 303.7 299.4 306.2 300.1 309.0 300.5 312.2 300.7 315.8 300.6 319.7 299.4 338.7 299.2 344.1 299.3 349.7 299.5 355.5 300.0 361.4 301.5 373.5 306.3 404.0 308.6 422.4 309.3 428.9 310.3 442.5 311.7 474.1 312.3 482.3 313.2 490.5 314.4 498.4 316.1 505.9 318.3 512.8 321.2 519.0 324.6 524.7 328.5 529.8 332.8 534.4 337.4 538.7 342.2 542.7 347.2 546.4 367.4 560.8 372.3 564.6 377.1 568.8 381.7 573.3 386.3 578.2 390.6 583.6 394.7 589.7 398.5 596.2 402.1 603.2 405.3 610.4 408.2 617.9 410.6 625.5 412.6 633.1 414.0 640.6 415.0 647.9 415.4 654.8 415.2 661.4 414.6 667.5 413.5 672.9 412.0 677.6 410.0 681.5 407.6 684.5 404.8 686.4 401.7 687.4 398.4 687.3 395.0 686.3 391.6 684.4 388.4 681.6 385.4 677.9 382.7 673.4 380.4 668.1 378.6 662.1 377.0 655.5 375.8 648.4 373.9 633.1 365.8 537.3 364.7 521.6 363.8 506.1 363.5 498.4 363.1 483.2 363.1 453.4 362.9 438.7 362.1 424.0 359.6 393.9 358.9 378.0 358.9 369.6 359.1 361.0 359.7 352.3 360.6 343.5 361.8 334.7 363.4 326.2 365.4 317.9 367.9 310.0 370.7 302.7 374.0 296.0 377.6 290.1 381.6 285.0 385.7 280.7 389.9 277.5 394.2 275.2 398.5 274.1 402.6 274.3 406.5 275.6 410.1 278.1 413.5 281.7 416.6 286.1 419.3 291.3 421.7 297.2 423.6 303.6 425.0 310.4 426.0 317.4 426.6 324.7 426.8 332.2 426.7 339.8 425.9 355.5 422.8 395.4 421.4 411.5 419.7 427.5 417.5 443.7 414.9 459.9 409.3 492.0 408.0 500.0 405.8 515.7 404.0 531.3 402.4 546.8 394.8 633.8 392.3 659.5 390.4 676.7 388.3 693.5 385.9 709.9 383.1 725.9 379.8 742.0 375.9 758.3 373.7 766.7 368.8 783.8 363.6 801.1 358.2 818.2 352.9 834.7 347.5 850.6 344.7 858.3 341.7 865.7 338.6 872.8 335.2 879.7 331.5 886.2 327.5 892.5 323.2 898.4 318.7 903.9 313.9 908.8 309.0 913.2 303.9 916.9 298.7 920.0 293.5 922.3 288.3 923.8 283.1 924.5 278.0 924.4 273.1 923.5 268.3 921.9 263.7 919.6 259.5 916.6 255.5 912.9 251.9 908.6 248.7 903.6 245.9 898.2 243.6 892.2 241.7 885.8 240.3 879.1 239.5 872.0 239.2 864.8 239.5 857.3 240.3 849.7 241.5 842.0 243.1 834.1 246.8 818.3 252.9 794.5 256.4 779.0 257.8 771.6 259.0 764.5 259.8 757.7 260.2 751.4 260.2 745.5 259.7 740.2 258.8 735.4 257.4 730.9 255.6 726.7 253.5 722.7 251.0 718.8 248.2 714.9 238.4 702.5 234.9 698.0 231.6 693.2 228.4 688.0 225.5 682.5 223.0 676.6 221.1 670.2 219.8 663.3 219.1 656.0 218.9 648.4 219.0 640.5 219.5 632.4 221.2 615.9 224.1 591.6 224.9 583.8 225.5 576.2 225.8 568.9 225.7 561.8 225.3 554.9 224.3 548.4 222.8 542.2 220.8 536.3 218.4 530.6 215.7 525.1 212.7 519.6 203.3 503.4 197.2 492.2 191.3 480.8 175.0 448.1 154.7 409.5 150.0 399.9 147.9 395.3 144.2 386.1 142.8 381.7 141.7 377.5 140.8 373.4 140.3 369.7 139.8 363.5 140.0 359.4 140.3 358.4 140.6 358.2 141.0 358.6 141.4 359.4 142.1 362.0 142.3 364.7 142.1 365.7 141.7 366.3 141.2 366.5 140.5 366.3 139.8 365.9 139.1 365.2 137.9 363.2 137.6 361.9 137.4 360.6 137.5 359.1 137.9 357.6 138.5 355.9 139.4 354.2 140.6 352.5 142.1 350.6 143.9 348.7 148.4 344.7 163.4 333.4 176.2 323.2 179.1 321.1 182.0 319.5 184.6 318.5 187.1 318.2 189.3 318.9 191.2 320.6 192.9 323.2 194.3 326.6 195.6 330.6 196.8 335.1 201.2 354.8 208.0 381.7 209.9 390.0 211.5 398.2 213.2 410.7 214.0 419.5 214.6 428.9 214.9 439.0 214.6 450.1 213.7 462.0 213.0 468.4 211.0 481.9 207.1 503.3 202.5 525.4 195.8 554.5 190.6 575.3 185.2 594.8 181.1 607.4 176.5 619.7 171.0 632.1 167.9 638.2 161.3 650.5 157.8 656.6 150.5 668.5 143.0 679.8 135.7 690.5 117.3 716.7 115.2 720.0 113.4 723.2 112.0 726.3 111.2 729.2 110.8 732.2 111.0 735.2 111.9 738.3 113.4 741.5 115.5 744.7 118.2 747.8 121.2 750.6 124.6 752.9 128.1 754.7 131.9 755.7 135.7 755.8 139.4 754.8 143.2 753.0 146.9 750.3 150.5 746.8 154.1 742.7 157.6 738.1 161.1 733.1 167.9 722.3 174.5 710.7 191.2 680.6 208.7 650.9 215.3 639.0 218.3 632.9 223.8 620.4 228.6 607.7 235.0 588.3 241.0 568.7 246.6 548.9 250.2 535.7 260.1 495.2 263.7 481.5 267.8 467.8 274.1 448.0 277.7 436.3 279.1 431.1 280.1 426.4 280.7 422.4 280.8 418.9 280.6 415.9 280.0 413.5 279.0 411.4 277.7 409.7 276.1 408.3 274.3 407.2 272.2 406.2 269.8 405.4 259.7 402.7 257.2 401.9 254.9 401.0 246.7 396.4 244.7 395.7 242.5 395.5 240.3 395.8 237.8 396.8 235.0 398.6 232.1 401.1 229.0 404.3 225.9 408.0 222.8 412.2 219.7 416.7 216.9 421.5 214.3 426.6 212.0 431.7 210.1 436.9 208.6 442.1 207.5 447.2 206.8 452.1 206.7 456.8 207.1 461.2 208.1 465.2 209.8 468.8 211.9 472.1 214.6 474.9 217.8 477.3 221.5 479.4 225.5 481.2 229.8 482.6 234.4 483.7 239.3 484.5 244.4 485.0 249.6 485.1 254.8 484.9 259.9 484.4 265.0 483.4 269.9 482.1 274.5 480.4 278.8 478.2 282.8 475.6 286.4 472.6 289.8 469.3 292.8 465.7 295.4 461.8 297.7 457.7 299.7 453.3 301.4 448.8 302.7 444.2 303.7 439.6 304.5 435.2 305.0 431.0 305.3 424.1 305.2 421.5 304.9 419.7 304.4 418.5 303.9 418.1 303.4 418.4 302.9 419.2 302.4 420.7 302.0 422.8 301.8 425.5 301.9 432.2 302.6 450.0 302.5 460.1 302.2 465.2 300.9 475.6 300.0 481.0 297.8 492.2 293.7 510.8 288.9 531.3 283.4 552.5 279.3 566.2 277.2 572.8 274.9 579.4 269.8 592.4 264.0 605.5 257.3 619.0 249.9 632.8 242.0 646.7 218.6 686.0 211.0 698.1 207.1 704.1 198.8 715.9 185.1 733.6 180.6 739.6 176.4 745.8 172.6 752.1 169.2 758.6 166.4 765.4 164.4 772.4 163.0 779.7 162.2 787.1 161.9 794.8 162.1 802.5 162.6 810.4 163.6 818.3 164.7 826.3 166.1 834.3 167.7 842.2 171.1 857.9 181.3 900.8 182.9 906.9 184.6 912.6 186.4 917.8 188.6 922.3 191.1 926.2 194.0 929.4 197.3 931.9 201.1 933.5 205.1 934.4 209.4 934.5 213.9 933.8 218.4 932.3 222.9 930.1 227.3 927.1 231.6 923.3 235.7 919.0 239.7 914.1 256.1 892.5 260.4 887.3 264.9 882.4 269.6 877.9 274.5 873.6 279.5 869.6 284.7 865.8 289.9 862.2 300.8 855.4 323.1 842.2 328.6 838.7 334.1 835.0 339.3 831.0 344.5 826.7 349.4 822.1 354.1 817.1 358.6 811.7 363.0 806.0 367.0 800.0 370.9 793.7 374.6 787.1 378.0 780.2 381.1 773.0 384.1 765.6 386.8 758.0 391.9 742.5 428.1 620.7 434.3 598.3 446.0 552.7 450.4 537.5 452.8 529.9 458.0 514.7 469.1 484.6 474.4 469.5 479.2 454.6 481.4 447.3 483.3 440.2 485.0 433.2 486.4 426.4 487.4 419.9 488.1 413.6 488.4 407.7 488.4 402.0 488.1 396.6 487.6 391.5 486.8 386.7 485.9 382.3 484.7 378.1 483.4 374.3 482.0 370.9 480.5 367.9 478.9 365.3 477.2 363.4 475.6 361.9 473.9 361.1 472.3 361.0 470.8 361.5 469.3 362.7 467.9 364.4 466.5 366.6 465.1 369.1 462.4 374.8 458.5 384.0 456.2 389.8 454.7 395.1 454.3 397.4 454.2 399.5 454.5 401.3 455.1 402.9 455.9 404.3 457.0 405.7 462.9 412.2 466.3 416.8 467.8 419.5 469.2 422.6 470.3 425.9 471.0 429.5 471.2 433.4 470.9 437.5 470.1 441.9 468.7 446.6 466.8 451.5 464.5 456.5 459.0 466.8 452.9 477.3 437.1 503.6 430.9 514.7 424.8 526.6 409.7 558.8 403.1 571.8 399.5 578.2 395.8 584.4 388.1 596.8 380.1 608.8 371.9 620.5 359.5 637.5 351.2 648.2 346.9 653.2 342.6 658.0 338.1 662.6 333.6 666.9 328.9 670.9 324.2 674.6 319.4 678.1 314.5 681.4 309.6 684.4 299.5 689.9 279.3 699.4 274.4 702.0 269.6 704.7 265.0 707.8 260.6 711.2 256.4 715.1 252.4 719.4 248.7 724.2 245.2 729.3 241.8 734.7 238.7 740.5 235.8 746.5 233.1 752.9"/>
<polyline points="562.1 629.1 568.3 643.7 571.3 651.3 574.0 659.1 576.6 667.1 579.0 675.3 585.6 700.3 587.9 708.2 590.4 715.7 593.1 722.6 596.2 728.8 599.6 734.2 603.4 738.8 607.5 742.7 611.9 746.0 616.6 748.9 621.6 751.3 626.7 753.5 632.1 755.4 643.3 758.9 649.1 760.4 660.8 763.1 672.7 765.2 684.4 766.6 690.2 766.9 696.0 767.1 701.8 766.9 707.6 766.5 713.4 765.7 719.2 764.5 725.2 763.0 731.2 761.0 737.2 758.6 743.3 755.7 749.2 752.5 755.1 748.9 760.7 745.0 766.2 740.7 771.3 736.1 776.1 731.1 780.5 725.9 784.4 720.3 787.8 714.5 790.6 708.4 792.7 702.1 794.1 695.6 794.7 688.9 794.4 682.0 793.3 674.9 791.5 667.9 789.1 660.8 786.0 653.7 782.5 646.8 778.5 640.1 774.1 633.7 769.4 627.5 764.6 621.6 759.5 615.8 738.9 593.2 733.9 587.3 729.2 581.2 724.6 574.8 720.2 568.3 715.9 561.5 711.8 554.7 704.0 540.6 692.8 518.9 682.2 496.9 668.7 467.3 659.0 444.9 653.1 429.5 650.4 421.7 647.8 413.6 645.4 405.4 643.2 397.1 639.3 380.3 636.1 364.0 633.7 348.7 631.9 334.8 630.9 322.0 630.5 309.8 630.6 303.7 630.7 297.6 631.8 278.7 632.1 266.0 631.9 259.7 631.3 253.5 630.3 247.5 628.9 241.6 627.0 236.0 624.8 230.8 622.4 226.2 619.9 222.1 617.3 218.8 614.8 216.4 612.4 214.9 610.3 214.4 608.4 214.8 606.9 215.9 605.7 217.3 605.0 219.1 604.8 220.8 605.0 222.4 605.9 223.6 607.4 224.3 609.4 224.4 612.0 224.1 615.0 223.3 622.2 220.6 630.7 216.7 645.0 209.8 650.1 207.7 655.2 205.8 660.4 204.4 665.6 203.5 670.7 203.2 675.8 203.7 680.8 204.9 685.5 206.7 689.9 209.0 693.8 211.8 697.2 215.0 700.0 218.5 702.1 222.2 703.4 226.1 704.1 230.2 704.0 234.4 703.5 238.7 702.5 243.2 701.1 247.7 697.4 257.2 691.1 272.3 689.0 277.6 687.2 283.1 685.6 288.8 684.4 294.7 683.5 300.8 683.2 307.2 683.2 313.9 684.1 327.8 686.0 349.8 686.3 357.3 686.5 364.9 686.4 372.6 685.6 388.0 682.5 426.6 681.1 449.6 680.2 473.2 679.7 505.8 679.3 513.8 678.7 521.7 677.9 529.3 676.6 536.6 674.9 543.3 672.7 549.6 670.0 555.5 667.0 560.9 663.7 566.1 660.1 571.0 644.9 589.8 637.5 599.6 633.9 604.7 627.0 615.4 623.8 621.0 620.6 626.9 617.6 633.1 614.8 639.5 612.1 646.0 609.7 652.5 607.5 659.0 605.6 665.4 604.0 671.6 602.7 677.4 601.7 683.0 601.1 688.1 600.9 692.7 601.1 696.9 601.7 700.4 602.8 703.4 604.2 705.7 606.2 707.2 608.5 708.0 611.2 708.0 614.2 707.2 617.2 705.6 620.2 703.2 623.0 700.0 625.6 695.9 627.8 691.1 629.4 685.4 630.6 678.9 631.5 671.9 632.0 664.4 632.3 648.3 632.1 614.8 632.4 557.5 632.3 533.4 631.9 517.4 631.1 501.5 627.8 461.8 626.8 445.8 626.5 429.6 627.3 388.6 627.2 380.5 627.0 372.5 626.5 364.5 625.7 356.7 624.7 349.2 623.3 341.9 621.6 334.9 619.7 328.2 617.3 322.0 614.6 316.2 611.6 311.0 608.2 306.3 604.6 302.2 600.8 298.8 596.9 296.1 592.9 294.2 588.8 293.1 584.9 292.9 581.0 293.6 577.3 295.2 573.8 297.6 570.5 300.7 567.6 304.4 565.1 308.8 562.9 313.7 561.3 319.0 560.1 324.7 559.5 330.8 559.2 337.1 559.3 343.7 559.7 350.5 560.3 357.4 561.9 371.6 563.8 385.8 566.0 400.1 568.7 414.5 571.8 429.2 573.5 436.6 585.3 481.8 588.7 496.9 591.5 512.0 595.1 534.8 602.8 590.9 606.4 615.7 610.5 640.5 616.5 673.5 621.2 698.6 624.6 715.2 628.5 731.7 630.6 739.8 633.0 747.7 635.5 755.6 638.3 763.4 644.3 778.5 651.0 793.2 654.5 800.4 661.9 814.5 669.7 828.1 673.8 834.7 678.0 841.1 682.4 847.4 686.9 853.4 691.6 859.1 696.4 864.6 701.4 869.8 706.5 874.7 711.7 879.1 717.0 883.0 722.2 886.4 727.4 889.2 732.6 891.3 737.7 892.8 742.6 893.5 747.3 893.6 751.8 893.0 756.0 891.7 759.9 889.9 763.3 887.5 766.2 884.5 768.7 880.9 770.6 876.9 772.1 872.4 773.1 867.5 773.6 862.3 773.6 856.9 773.2 851.2 772.4 845.4 771.1 839.5 769.5 833.5 767.6 827.4 765.4 821.3 760.6 808.9 750.3 783.8 748.0 777.6 746.0 771.5 744.3 765.5 743.0 759.6 742.3 753.9 742.1 748.5 742.5 743.2 743.5 738.2 745.1 733.3 747.1 728.6 749.5 724.0 752.2 719.6 755.2 715.3 758.4 711.0 768.5 698.3 771.8 693.9 774.8 689.5 777.6 684.9 780.1 680.2 782.1 675.3 783.7 670.1 784.8 664.7 785.6 659.1 785.9 653.3 785.9 647.4 785.7 641.3 785.2 635.2 784.5 628.9 781.1 603.1 780.4 596.7 780.0 590.3 779.8 583.9 780.1 577.7 780.8 571.5 781.8 565.4 783.2 559.4 784.9 553.3 789.0 540.9 795.9 521.2 802.9 499.9 809.6 478.3 820.0 444.1 824.1 430.9 828.6 417.7 838.5 390.5 843.1 376.6 845.0 369.6 846.8 362.5 848.1 355.3 849.2 348.3 850.7 334.7 852.3 309.2 852.9 303.6 853.3 301.4 854.5 297.7 855.3 295.8 860.5 285.6 863.7 278.7 865.1 274.9 866.4 270.9 867.5 266.6 868.4 262.2 868.9 257.5 869.1 252.8 869.0 248.0 868.6 243.2 867.8 238.3 866.5 233.5 864.9 228.8 862.9 224.3 860.5 219.9 857.7 215.6 854.7 211.7 851.4 208.0 848.0 204.6 844.4 201.6 840.7 198.9 836.9 196.7 833.2 194.9 829.6 193.8 826.0 193.3 822.6 193.6 819.4 194.8 816.4 196.9 813.7 200.0 811.4 204.2 809.3 209.3 807.5 215.2 805.9 221.8 803.1 236.3 793.7 295.5 790.8 316.4 788.6 337.0 787.1 358.0 786.5 372.4 786.2 387.3 786.2 395.0 786.6 410.5 787.5 426.3 788.2 434.3 789.9 450.5 793.4 475.0 796.1 491.4 800.7 516.1 805.8 540.4 811.3 563.6 815.2 578.3 819.7 592.4 822.1 599.4 824.8 606.2 827.6 613.0 830.7 619.7 834.0 626.3 837.5 632.8 841.2 639.2 844.9 645.3 848.8 651.2 852.7 656.9 856.7 662.3 860.7 667.3 868.6 676.5 872.4 680.6 879.8 687.9 894.5 701.1 896.4 703.2 897.8 705.2 898.7 707.1 898.9 709.1 898.5 711.2 897.4 713.5 895.6 715.7 893.3 717.8 890.5 719.7 887.3 721.2 883.8 722.2 880.2 722.5 876.4 722.0 872.6 720.7 868.9 718.5 865.2 715.5 861.4 711.9 857.7 707.7 854.0 703.0 850.4 697.9 846.8 692.5 843.2 686.8 836.2 675.0 818.6 643.9 800.7 612.8 793.9 599.9 790.6 593.2 784.5 579.4 781.6 572.2 776.2 557.6 768.7 535.5 761.8 513.4 757.5 498.6 753.5 483.7 742.2 437.7 738.0 422.0 733.4 406.2 723.9 375.7 722.0 368.7 720.4 362.0 719.3 355.8 718.7 350.0 718.7 344.6 719.0 339.7 719.9 335.1 721.1 330.8 722.8 326.8 724.8 323.0 727.1 319.4 729.7 315.9 735.6 309.2 748.2 296.7 751.1 293.6 759.0 284.8 761.5 282.4 764.0 280.3 766.6 278.8 769.4 277.9 772.4 277.8 775.7 278.5 779.2 279.9 782.8 281.9 786.5 284.5 790.2 287.4 793.9 290.6 797.3 294.0 800.6 297.5 803.5 300.9 806.1 304.2 808.2 307.4 809.9 310.3 811.1 312.9 811.7 315.1 811.6 316.9 810.9 318.2 809.5 318.9 807.4 319.2 804.7 319.1 801.4 318.7 783.5 315.5 778.1 314.7 743.7 311.1 733.0 309.5 728.1 308.6 723.5 307.5 719.3 306.3 715.3 304.8 711.7 303.2 708.5 301.3 705.7 299.2 703.3 296.9 701.2 294.4 699.5 291.9 695.7 285.2 695.4 285.1 695.3 285.8 696.3 300.7 696.5 311.3 696.2 323.8 695.3 345.1 695.0 360.0 695.2 367.4 695.6 374.8 696.2 382.1 697.0 389.4 698.0 396.6 700.5 411.4 703.6 426.7 708.9 450.9 713.0 467.4 717.5 483.8 722.3 499.6 724.9 507.3 730.5 522.1 736.9 536.5 740.3 543.6 744.0 550.7 752.1 564.9 756.5 571.9 765.5 585.9 801.4 639.8 805.9 646.3 815.2 659.1 829.6 678.2 834.2 684.7 838.6 691.2 842.6 697.8 846.2 704.6 849.2 711.5 851.5 718.6 853.3 725.9 854.6 733.3 855.4 740.9 855.8 748.6 855.8 756.4 855.5 764.3 855.0 772.3 853.4 788.3 851.3 804.4 849.0 820.4 844.1 851.2 842.8 858.3 841.3 864.9 839.5 870.9 837.4 876.2 835.0 880.7 832.0 884.3 828.6 886.8 824.6 888.3 820.4 888.9 815.8 888.5 811.0 887.3 806.1 885.2 801.1 882.4 796.2 878.8 791.4 874.6 786.7 869.8 782.1 864.6 768.3 848.4 763.7 843.3 759.0 838.6 754.1 834.3 749.2 830.6 744.2 827.3 739.0 824.3 733.8 821.6 723.1 816.7 700.8 807.4 695.0 804.7 689.3 801.8 683.6 798.5 677.9 794.9 672.2 790.9 666.7 786.3 661.2 781.3 655.8 775.9 650.6 770.1 645.6 763.9 640.8 757.5 636.3 750.8 632.1 744.0 628.2 737.0 624.5 729.9 621.1 722.6 617.9 715.3 611.9 700.5 588.9 640.8 577.8 611.2 567.5 581.7 552.8 537.8 545.2 516.3 542.4 509.2 536.6 495.1 521.5 460.8 515.8 447.5 510.6 434.4 508.3 427.9 506.2 421.4 504.4 414.9 502.9 408.4 501.7 401.9 500.8 395.4 500.3 388.8 500.1 382.3 500.2 375.7 500.5 369.2 501.2 362.8 502.1 356.4 503.3 350.0 504.7 343.8 506.3 337.8 508.0 332.0 509.9 326.5 511.8 321.4 513.9 316.8 515.9 312.9 517.9 309.5 519.8 306.9 521.7 305.0 523.6 303.5 525.5 302.6 527.3 302.0 529.2 301.6 536.8 300.8 538.6 300.4 540.2 299.8 541.5 299.0 542.5 297.9 543.1 296.6 543.2 294.9 542.7 292.8 541.7 290.5 540.3 288.1 538.7 285.6 535.0 280.8 533.2 278.8 530.1 275.9 529.0 275.3 528.2 275.2 527.6 275.6 527.5 276.7 527.7 278.4 529.3 283.9 530.8 287.6 537.4 302.4 555.3 340.5 564.6 361.0 573.6 382.5 585.0 412.6 591.0 427.8 597.4 442.6 600.8 449.7 604.5 456.8 608.3 463.7 616.3 477.2 620.6 483.8 629.3 497.0 643.2 516.7 676.7 563.1 685.8 576.3 690.0 582.8 694.0 589.3 697.6 595.6 700.9 601.8 703.7 607.8 706.2 613.8 708.1 619.8 709.6 625.8 710.7 632.0 711.2 638.4 711.3 645.1 710.8 652.1 709.9 659.6 708.5 667.4 703.5 692.4 702.0 700.9 700.8 709.4 699.9 717.8"/>
<polyline points="444.0 677.0 441.0 683.9 435.2 697.9 432.5 705.2 427.6 720.3 418.8 751.8 416.5 759.4 414.0 766.5 411.3 773.1 408.2 779.1 404.8 784.3 401.0 788.8 396.9 792.6 392.5 796.0 387.9 798.9 383.1 801.4 378.1 803.6 373.0 805.7 367.8 807.6 357.3 811.2 346.5 814.3 341.2 815.7 330.5 818.0 320.0 819.8 314.8 820.4 309.6 820.8 304.4 820.9 299.1 820.6 293.8 820.0 288.3 818.9 282.8 817.5 277.2 815.6 271.5 813.3 266.0 810.6 260.5 807.7 255.2 804.5 250.1 801.0 245.3 797.3 240.8 793.4 236.7 789.3 233.0 785.0 229.7 780.6 227.1 775.9 224.9 771.0 223.5 765.8 222.7 760.4 222.6 754.8 223.2 749.0 224.5 743.1 226.3 737.1 228.7 731.1 231.6 725.1 235.0 719.2 238.8 713.5 242.9 708.1 247.3 702.8 251.9 697.6 271.1 677.2 275.6 671.9 280.0 666.5 284.1 660.9 288.0 655.2 295.4 643.5 298.9 637.4 305.6 625.1 312.2 612.5 328.3 580.5 341.2 555.3 347.4 542.5 353.1 529.4 355.7 522.6 358.0 515.6 360.2 508.5 362.1 501.3 363.8 493.9 365.3 486.6 366.5 479.2 367.5 471.9 368.3 464.6 368.9 457.4 369.2 450.3 369.4 443.2 369.1 429.2 368.7 422.2 367.4 408.2 364.9 387.3 363.5 373.5 363.1 366.7 363.1 360.1 363.4 353.5 364.2 347.1 365.4 340.9 366.9 335.0 368.6 329.5 370.5 324.4 372.5 319.7 374.5 315.6 376.4 312.1 378.2 309.3 382.2 303.8 382.8 302.5 383.1 301.4 382.8 300.2 382.0 299.0 380.6 297.5 376.1 293.9 369.7 289.8 361.8 285.3 352.8 280.7 348.0 278.5 337.9 274.5 332.8 272.8 327.7 271.4 322.5 270.3 317.5 269.6 312.6 269.3 307.8 269.4 303.4 269.8 299.3 270.5 295.6 271.4 292.4 272.5 289.8 273.7 287.9 274.9 286.7 276.2 286.2 277.5 286.3 278.8 286.8 280.2 287.9 281.6 289.2 283.2 296.7 290.6 298.6 292.9 300.5 295.5 302.2 298.3 303.7 301.4 305.0 304.9 305.8 308.8 306.3 313.1 306.4 317.7 306.3 322.7 305.3 339.4 305.1 351.3 305.3 357.4 305.7 363.6 307.2 376.0 310.9 401.0 313.3 419.7 315.1 439.3 316.9 476.7 317.5 484.6 318.4 492.3 319.5 499.7 321.1 506.8 323.2 513.3 325.8 519.3 328.9 524.7 332.4 529.6 336.2 534.2 340.4 538.5 344.7 542.5 362.6 558.1 371.2 566.4 375.4 571.0 379.6 575.8 383.6 581.1 387.5 586.7 391.2 592.9 394.8 599.4 398.2 606.3 401.3 613.4 404.1 620.6 406.7 627.8 408.9 635.0 410.8 642.0 412.2 648.7 413.3 655.2 413.9 661.2 414.0 666.8 413.6 671.7 412.8 676.1 411.4 679.7 409.5 682.6 407.1 684.5 404.3 685.7 401.1 685.9 397.8 685.3 394.4 683.8 391.1 681.4 388.1 678.2 385.3 674.0 383.0 669.0 381.1 663.3 379.5 656.8 378.2 649.9 377.1 642.5 375.5 626.8 373.7 602.9 370.2 547.6 368.9 524.0 368.3 508.5 368.1 493.1 369.1 447.9 368.9 432.9 368.2 417.7 366.6 394.4 365.9 378.3 365.9 370.0 366.1 361.6 366.6 353.0 367.5 344.5 368.6 336.1 370.1 327.9 371.9 320.1 374.2 312.6 376.8 305.7 379.7 299.3 383.1 293.7 386.7 288.8 390.5 284.8 394.4 281.6 398.5 279.4 402.5 278.1 406.5 278.0 410.3 278.9 414.1 280.9 417.5 283.9 420.8 287.7 423.7 292.3 426.3 297.6 428.4 303.6 430.1 310.1 431.4 317.1 432.2 324.4 432.6 332.1 432.7 340.0 432.1 356.4 430.3 381.3 428.8 397.7 427.1 414.0 425.0 430.1 423.8 438.2 420.9 454.2 413.3 493.9 410.7 509.6 408.5 525.2 405.9 548.5 400.7 603.8 398.3 628.2 394.4 661.5 391.0 686.6 387.3 711.4 384.4 727.8 382.8 736.0 379.2 752.3 377.1 760.4 372.5 776.8 367.2 793.0 361.5 809.0 352.4 832.3 346.0 847.0 342.7 854.1 339.2 861.1 335.5 867.8 331.7 874.2 327.6 880.4 323.3 886.4 318.8 892.0 314.2 897.2 309.3 901.9 304.4 906.2 299.4 910.0 294.4 913.1 289.4 915.5 284.5 917.2 279.6 918.3 274.9 918.6 270.4 918.1 266.1 917.0 262.1 915.2 258.4 912.7 255.2 909.5 252.3 905.6 249.9 901.2 247.9 896.1 246.4 890.6 245.3 884.6 244.7 878.2 244.5 871.6 244.7 864.7 245.4 857.7 246.4 850.5 247.8 843.1 251.3 828.1 257.4 805.0 261.3 789.4 263.0 781.7 264.5 774.1 265.6 766.6 266.3 759.5 266.6 752.5 266.4 746.0 265.6 739.8 264.3 734.0 262.5 728.5 260.2 723.2 257.6 718.2 254.6 713.3 251.3 708.5 247.8 703.9 236.5 689.8 232.8 684.9 229.3 679.8 226.1 674.4 223.2 668.8 220.7 662.7 218.8 656.3 217.4 649.5 216.4 642.4 215.8 635.0 215.6 627.5 215.6 619.9 215.9 612.3 216.3 604.8 218.6 576.0 218.9 569.3 219.0 562.9 218.8 556.8 218.2 551.0 217.1 545.5 215.7 540.3 213.9 535.2 211.9 530.3 209.6 525.4 199.4 504.8 191.7 487.3 184.3 469.5 169.2 431.7 158.4 405.7 154.3 395.2 150.8 384.9 149.3 379.9 147.1 370.2 144.1 353.1 143.7 351.8 143.2 351.2 142.8 351.5 142.3 352.3 139.6 359.0 138.8 360.7 136.8 363.6 135.8 364.6 134.0 365.9 133.2 366.2 132.6 366.2 132.3 365.9 132.2 365.4 132.8 363.4 133.6 362.1 135.9 358.6 139.4 354.0 143.8 349.0 151.9 341.4 170.6 324.7 173.6 322.2 176.5 320.2 179.2 318.6 181.7 317.7 184.1 317.5 186.2 318.2 188.1 319.9 189.7 322.5 191.1 325.9 192.4 329.9 193.6 334.3 198.0 353.9 205.9 385.2 208.4 397.0 209.7 404.8 211.1 417.3 211.7 426.7 212.0 437.1 211.7 448.3 211.4 454.2 211.0 460.3 209.5 473.2 206.4 493.7 202.5 515.2 196.9 544.2 192.3 565.4 189.1 578.8 185.6 591.8 181.6 604.3 176.9 616.8 174.2 623.1 168.2 635.7 164.8 642.1 157.7 654.6 150.1 666.6 142.4 678.0 124.3 702.5 118.2 711.0 115.6 714.9 113.3 718.7 111.5 722.3 110.0 725.9 109.1 729.4 108.7 732.8 109.0 736.2 109.9 739.6 111.5 743.0 113.8 746.4 116.5 749.5 119.8 752.2 123.3 754.4 127.0 755.9 130.9 756.7 134.8 756.5 138.6 755.3 142.4 753.1 146.1 750.1 149.7 746.3 153.3 742.0 156.8 737.1 160.2 731.8 167.0 720.5 173.6 708.6 190.0 678.2 206.6 648.8 212.8 636.9 215.8 630.8 221.2 618.3 226.2 605.5 232.9 585.8 239.1 566.1 246.5 539.7 258.4 492.8 262.1 479.1 266.4 465.4 272.9 445.4 276.6 433.5 277.9 428.3 278.9 423.7 279.3 419.7 279.4 416.3 279.0 413.5 278.2 411.1 277.0 409.2 275.6 407.6 273.8 406.3 271.8 405.3 267.2 403.7 254.7 400.8 252.4 400.1 246.6 397.9 244.8 397.5 242.9 397.3 241.0 397.6 239.0 398.4 236.8 399.8 234.3 401.8 231.7 404.6 228.9 407.9 226.1 411.7 223.3 415.9 220.6 420.5 218.0 425.3 215.5 430.3 213.3 435.4 211.4 440.5 209.9 445.6 208.7 450.6 208.0 455.3 207.8 459.8 208.1 464.0 209.0 467.8 210.6 471.0 212.7 473.8 215.4 476.2 218.6 478.2 222.2 479.7 226.2 481.0 230.6 481.9 235.2 482.5 240.1 482.8 245.1 482.8 250.3 482.6 255.4 482.0 260.6 481.2 265.6 480.0 270.5 478.5 275.1 476.6 279.5 474.5 283.5 471.9 287.2 469.1 290.6 466.0 293.6 462.5 296.3 458.8 298.7 454.8 300.8 450.5 302.5 446.0 303.9 441.3 305.1 436.7 305.9 432.3 306.9 424.4 307.1 418.8 306.9 417.2 306.7 416.4 306.3 416.4 305.9 417.1 305.5 418.4 305.2 420.4 304.7 426.0 304.7 433.6 305.1 452.5 304.8 462.9 303.7 473.4 303.0 478.7 301.0 489.6 297.0 507.4 292.3 527.2 288.7 541.1 284.8 555.2 280.7 568.9 278.4 575.6 273.6 588.9 271.0 595.4 265.2 608.6 258.6 622.0 251.2 635.6 243.3 649.1 235.1 662.5 223.1 681.8 211.1 700.2 202.8 712.0 198.5 717.9 185.0 735.5 180.7 741.4 176.6 747.5 173.0 753.7 169.7 760.1 167.1 766.6 165.1 773.4 163.8 780.4 163.0 787.6 162.6 795.0 162.7 802.5 163.2 810.1 163.9 817.8 165.9 833.3 168.4 848.9 171.3 864.2 175.9 886.1 179.0 899.5 180.6 905.6 182.4 911.3 184.5 916.5 186.8 921.0 189.4 924.9 192.5 927.9 195.9 930.2 199.7 931.6 203.9 932.2 208.2 932.0 212.7 931.1 217.2 929.3 221.8 926.9 226.2 923.7 230.6 919.8 234.7 915.4 238.9 910.5 251.2 894.6 255.4 889.4 259.8 884.4 264.3 879.7 269.0 875.4 273.9 871.4 278.9 867.6 284.1 864.1 289.3 860.7 300.0 854.4 316.5 845.1 327.5 838.4 332.8 834.7 338.1 830.8 343.3 826.5 348.3 821.8 353.1 816.8 357.8 811.4 362.3 805.6 366.5 799.6 370.6 793.2 374.4 786.6 378.0 779.7 381.3 772.7 384.4 765.4 387.2 758.0 392.5 742.8 418.6 659.1 427.6 629.4 434.1 607.0 448.2 554.2 452.8 539.0 455.3 531.5 460.6 516.5 471.7 486.7 477.0 471.9 481.8 457.3 483.9 450.0 485.8 442.9 487.5 435.9 488.9 429.0 489.9 422.2 490.6 415.6 490.9 409.2 490.9 403.1 490.6 397.2 490.1 391.5 489.2 386.1 488.2 381.1 486.9 376.4 485.4 372.1 483.8 368.2 482.0 364.8 480.1 361.9 478.2 359.6 476.2 357.9 474.3 356.9 472.4 356.7 470.6 357.2 468.9 358.3 467.2 360.1 465.6 362.3 462.4 367.8 457.9 377.3 455.2 383.6 453.1 389.3 452.5 391.9 452.1 394.2 452.2 396.3 452.6 398.0 453.5 399.5 454.6 400.9 456.0 402.2 461.0 406.4 462.8 408.3 464.5 410.4 466.1 412.9 467.5 415.7 468.7 418.8 469.6 422.1 470.1 425.8 470.1 429.7 469.6 433.9 468.6 438.4 467.0 443.1 465.0 447.9 462.7 452.9 457.1 463.2 438.1 494.6 431.8 505.6 428.7 511.3 422.7 523.4 410.8 549.3 404.5 562.5 401.2 569.0 394.0 581.6 390.3 587.7 382.4 599.8 366.1 623.1 353.7 640.0 345.3 650.6 341.0 655.6 336.6 660.3 332.2 664.8 327.6 669.1 323.1 673.1 318.4 676.9 313.8 680.5 309.0 683.8 299.5 690.0 280.3 701.1 275.7 703.9 271.2 706.9 266.8 710.2 262.6 713.8 258.6 717.7 254.7 722.1 251.1 726.7 247.6 731.7 244.4 737.0 241.3 742.6 238.5 748.4 235.8 754.5"/>
<polyline points="241.1 750.3 243.9 744.6 246.9 739.2 250.1 734.1 253.5 729.2 257.0 724.7 260.7 720.4 264.6 716.3 268.6 712.6 272.7 709.2 277.0 705.9 299.4 690.2 308.5 683.3 313.0 679.6 321.9 671.6 326.4 667.3 335.1 658.1 339.4 653.1 343.6 647.9 352.0 637.1 360.3 625.8 372.6 608.4 384.6 590.8 392.2 578.7 395.8 572.5 399.3 566.1 405.8 553.1 420.5 520.2 426.5 508.0 429.6 502.2 435.9 491.1 452.0 464.7 458.1 454.4 460.8 449.3 463.3 444.3 465.4 439.5 467.1 434.8 468.3 430.4 469.0 426.1 469.2 422.1 468.9 418.4 468.3 415.0 467.2 411.8 465.9 409.0 464.4 406.5 462.6 404.3 460.7 402.6 458.8 401.1 453.3 397.5 451.9 396.2 450.8 394.8 450.1 393.1 450.0 391.1 450.2 388.7 450.9 386.1 451.8 383.2 454.5 377.0 457.7 370.4 461.1 363.8 462.9 360.8 464.6 358.1 466.5 355.8 468.4 354.0 470.4 352.8 472.5 352.4 474.7 352.7 476.9 353.9 479.1 355.8 481.4 358.4 483.5 361.7 485.5 365.5 487.4 369.8 489.1 374.7 490.5 379.9 491.6 385.5 492.5 391.5 493.1 397.7 493.4 404.2 493.4 410.8 493.1 417.7 492.4 424.6 491.4 431.5 490.0 438.6 488.4 445.7 486.5 452.8 484.3 459.9 479.5 474.4 474.2 488.9 460.3 525.7 455.2 540.6 452.8 548.1 448.3 563.1 438.0 600.8 429.3 630.6 417.6 667.8 395.7 735.5 390.4 750.5 387.6 757.9 384.7 765.2 381.5 772.3 378.0 779.3 374.3 786.1 370.3 792.7 366.0 799.1 361.6 805.2 356.9 811.0 352.1 816.5 347.2 821.6 342.1 826.3 336.9 830.6 331.6 834.5 326.3 838.1 315.5 844.6 293.9 856.3 283.4 862.4 278.3 865.7 273.3 869.2 268.5 872.9 263.7 877.0 259.2 881.4 254.7 886.2 250.5 891.3 238.0 906.9 233.8 911.8 229.5 916.3 225.2 920.3 220.7 923.6 216.1 926.3 211.5 928.3 207.0 929.6 202.6 930.0 198.4 929.7 194.5 928.5 190.9 926.5 187.8 923.5 185.0 919.7 182.5 915.2 180.3 910.0 178.4 904.3 176.7 898.1 173.7 884.6 171.0 870.2 168.6 855.3 165.7 832.4 164.2 817.2 163.7 809.8 163.4 802.5 163.4 795.2 163.7 788.2 164.6 781.2 165.9 774.5 167.8 767.9 170.3 761.5 173.3 755.3 176.9 749.2 180.7 743.3 184.9 737.4 202.6 714.0 215.4 696.1 223.8 683.8 232.1 671.2 240.4 658.2 248.6 645.0 256.2 631.6 263.3 618.3 266.4 611.6 272.2 598.4 274.9 591.8 279.7 578.4 284.1 564.8 288.3 550.9 292.1 536.9 297.3 516.8 301.7 498.5 304.0 487.2 305.8 476.4 307.0 465.7 307.5 455.0 307.5 426.6 308.2 417.6 308.7 414.6 308.9 414.3 309.0 414.8 308.9 418.4 308.6 421.5 307.4 429.4 306.4 433.9 305.2 438.5 303.7 443.2 301.9 447.6 299.8 451.8 297.3 455.7 294.5 459.3 291.4 462.6 287.9 465.6 284.2 468.3 280.1 470.7 275.8 472.9 271.1 474.9 266.3 476.5 261.2 477.9 256.1 479.1 251.0 480.0 245.8 480.7 240.8 481.1 235.9 481.2 231.3 481.1 227.0 480.8 223.0 480.1 219.4 479.0 216.2 477.5 213.5 475.6 211.4 473.2 209.9 470.3 209.1 466.9 208.8 462.9 209.1 458.6 209.9 454.0 211.2 449.1 212.7 444.1 214.6 439.0 216.7 434.0 219.0 429.0 223.9 419.7 228.9 411.5 231.3 408.1 233.6 405.1 235.8 402.7 237.7 400.9 239.5 399.7 241.2 398.9 242.8 398.5 244.5 398.5 246.2 398.6 259.5 400.9 264.6 401.9 269.3 403.4 271.5 404.4 273.4 405.5 275.0 406.9 276.3 408.7 277.3 411.0 277.9 413.7 278.0 417.0 277.6 420.9 276.7 425.5 275.4 430.8 271.7 442.7 262.7 469.9 258.6 483.6 254.9 497.2 246.4 530.5 242.8 543.7 237.2 563.4 233.0 576.7 226.3 596.6 221.3 609.8 216.0 622.6 210.4 634.8 204.4 646.6 188.8 675.7 169.4 712.6 162.7 724.7 155.9 736.0 152.5 741.2 148.9 745.8 145.3 749.9 141.6 753.2 137.8 755.7 133.9 757.2 129.9 757.6 125.9 757.1 122.0 755.8 118.3 753.8 114.9 751.1 112.0 748.0 109.6 744.6 107.9 741.0 106.9 737.2 106.6 733.4 107.0 729.5 108.0 725.5 109.5 721.4 111.5 717.3 113.9 713.1 116.6 708.9 123.0 700.2 137.8 681.3 145.8 670.6 153.7 658.8 157.6 652.6 164.9 639.8 168.4 633.3 174.6 620.3 177.3 613.9 179.8 607.6 182.0 601.3 185.9 588.7 189.3 575.7 192.3 562.3 195.0 548.2 198.7 526.7 203.2 498.3 206.2 477.9 207.0 471.4 208.2 458.6 208.9 446.5 209.1 435.1 208.8 424.6 208.2 415.2 207.3 406.9 206.1 399.4 203.7 388.4 196.0 357.9 190.4 333.5 189.2 329.1 188.0 325.2 186.5 321.9 185.0 319.3 183.2 317.6 181.1 316.8 178.9 316.9 176.4 317.7 173.8 319.2 171.0 321.3 165.1 326.6 155.8 335.9 146.8 345.5 139.8 353.5 137.0 357.3 135.3 360.5 134.9 361.8 134.8 363.0 134.9 363.9 135.3 364.7 135.8 365.3 136.5 365.6 137.3 365.7 138.2 365.5 139.0 365.0 139.8 364.3 140.5 363.2 141.3 360.3 141.9 354.7 142.7 364.1 144.0 371.8 144.9 376.2 146.0 380.8 147.5 385.5 151.1 395.2 155.4 405.2 171.6 440.1 194.2 489.9 199.8 501.3 211.2 522.5 213.8 527.7 216.2 532.9 218.2 538.3 219.9 543.9 221.2 549.7 222.0 555.9 222.4 562.3 222.3 569.1 222.0 576.1 221.5 583.4 218.5 614.1 217.6 630.0 217.4 637.8 217.6 645.4 218.2 652.8 219.3 659.8 220.9 666.5 223.1 672.7 225.8 678.5 228.8 683.9 232.2 689.0 235.7 693.9 249.8 711.7 252.8 716.0 255.5 720.4 257.9 724.9 259.9 729.7 261.5 734.7 262.7 740.0 263.3 745.8 263.4 752.0 263.1 758.6 262.3 765.6 261.1 772.8 259.7 780.4 256.2 795.8 248.1 827.2 246.3 834.9 244.7 842.6 243.4 850.1 242.4 857.5 242.0 864.7 242.0 871.8 242.5 878.7 243.5 885.2 245.0 891.4 246.9 897.1 249.3 902.4 252.1 907.1 255.3 911.2 258.9 914.7 262.9 917.4 267.2 919.5 271.7 920.8 276.5 921.5 281.4 921.4 286.4 920.5 291.5 918.9 296.6 916.5 301.7 913.4 306.7 909.7 311.6 905.4 316.4 900.5 321.0 895.2 325.4 889.4 329.6 883.3 333.5 876.9 337.1 870.3 340.5 863.4 343.7 856.2 349.7 841.3 355.5 825.6 361.2 809.3 369.4 784.4 374.3 767.7 376.5 759.4 380.4 743.1 383.7 726.9 386.6 710.7 389.0 694.2 392.3 669.0 394.3 652.0 396.9 626.8 404.2 547.6 405.8 532.1 407.7 516.6 410.0 500.9 411.3 493.0 420.0 444.9 421.2 436.9 423.3 420.8 425.1 404.7 426.5 388.5 428.4 364.1 429.4 347.8 429.7 339.9 429.7 332.1 429.4 324.5 428.7 317.2 427.6 310.2 426.0 303.6 424.0 297.4 421.5 291.8 418.7 286.9 415.5 282.8 412.1 279.5 408.4 277.3 404.5 276.1 400.5 276.1 396.3 277.3 392.2 279.5 388.1 282.7 384.1 286.9 380.4 291.9 376.9 297.7 373.7 304.2 371.0 311.3 368.7 319.0 366.8 327.1 365.2 335.4 364.0 344.0 363.2 352.7 362.6 361.3 362.4 369.8 362.4 378.1 363.1 394.2 365.3 424.7 366.0 439.6 366.0 454.4 365.7 484.3 365.7 491.9 366.1 507.3 366.8 522.8 367.8 538.5 371.2 586.0 374.3 626.0 375.9 641.7 377.0 649.1 378.3 656.2 379.8 662.7 381.7 668.6 384.0 673.7 386.7 678.1 389.8 681.5 393.0 684.1 396.4 685.8 399.7 686.6 403.0 686.5 405.9 685.5 408.6 683.5 410.7 680.6 412.4 676.9 413.6 672.3 414.3 667.1 414.5 661.3 414.3 655.0 413.6 648.3 412.4 641.3 410.7 634.0 408.7 626.6 406.2 619.2 403.3 611.9 400.1 604.7 396.7 597.8 392.9 591.3 389.0 585.2 384.9 579.6 380.7 574.5 376.3 569.9 371.8 565.5 367.2 561.5 362.5 557.6 343.5 542.6 338.9 538.6 334.5 534.3 330.4 529.7 326.7 524.7 323.5 519.2 320.7 513.0 318.6 506.3 317.0 499.0 315.8 491.4 314.9 483.5 314.3 475.4 312.9 444.4 312.4 437.4 311.3 424.3 309.0 405.6 304.3 374.7 302.9 362.5 302.4 356.5 302.2 350.5 302.2 344.7 303.5 318.7 303.5 314.4 303.2 310.5 302.5 307.0 301.6 303.8 300.4 301.0 299.0 298.5 295.8 294.1 289.5 287.4 288.3 286.0 287.4 284.6 287.0 283.2 287.0 281.8 287.6 280.5 288.9 279.1 290.8 277.7 293.5 276.3 296.7 275.0 300.4 273.8 304.5 272.8 308.9 272.0 313.7 271.5 318.6 271.4 323.6 271.6 328.8 272.2 333.9 273.2 339.0 274.4 344.1 275.8 353.8 279.1 358.4 280.9 366.7 284.7 373.6 288.5 376.4 290.3 378.7 292.1 380.5 293.7 381.7 295.3 382.3 296.8 382.4 298.2 382.0 299.6 381.2 301.2 377.0 307.7 375.3 310.8 373.5 314.4 371.7 318.6 370.0 323.3 368.4 328.4 367.0 333.9 365.9 339.8 365.1 345.8 364.6 352.2 364.6 358.6 364.9 365.2 365.5 372.0 370.2 407.1 371.5 421.5 371.9 428.8 372.1 436.1 371.9 450.9 371.5 458.3 370.9 465.8 370.1 473.4 369.0 481.0 367.7 488.6 366.2 496.1 364.5 503.6 362.5 510.9 360.3 518.1 357.9 525.2 355.3 532.0 352.5 538.6 346.4 551.5 329.9 583.0 310.2 621.5 303.6 634.0 296.7 646.2 293.0 652.0 289.3 657.8 285.3 663.4 281.1 668.9 276.7 674.2 271.9 679.4 252.1 699.3 247.3 704.4 242.8 709.7 238.7 715.1 235.0 720.8 231.8 726.6 229.1 732.6 227.0 738.6 225.4 744.6 224.3 750.6 223.9 756.3 224.1 761.9 224.9 767.2 226.4 772.2 228.5 776.9 231.1 781.4 234.1 785.7 237.7 789.8 241.6 793.7 245.9 797.4 250.6 800.9 255.5 804.2 260.6 807.3 265.9 810.1 271.3 812.6 276.8 814.8 282.2 816.7 287.6 818.1 293.0 819.0 298.2 819.6 303.4 819.9 308.6 819.8 313.7 819.5 324.1 818.3 340.2 815.6 345.6 814.5 356.6 812.1 367.6 809.1 378.3 805.5 383.5 803.4 388.5 801.0 393.3 798.1 397.9 794.8 402.1 790.9 406.1 786.3 409.6 781.0 412.7 774.9 415.5 768.1 418.0 760.7 420.3 753.0 428.9 720.7 431.2 713.0 433.7 705.5 436.4 698.2 442.0 684.2 445.1 677.3 451.4 663.8"/>
<polyline points="557.6 621.3 560.8 628.4 566.9 643.0 569.8 650.6 572.4 658.4 575.0 666.5 577.3 674.9 584.1 700.4 586.4 708.6 589.0 716.3 591.8 723.4 595.0 729.8 598.6 735.4 602.5 740.1 606.8 744.2 611.3 747.6 616.2 750.5 621.3 752.9 626.7 754.9 632.2 756.7 637.9 758.1 643.7 759.4 655.6 761.4 661.6 762.2 673.7 763.4 685.6 764.2 691.4 764.5 697.2 764.6 703.0 764.5 708.7 764.1 714.5 763.4 720.3 762.3 726.1 760.9 732.0 759.0 737.9 756.7 743.8 754.0 749.6 750.9 755.2 747.4 760.6 743.6 765.9 739.5 770.8 735.1 775.4 730.3 779.6 725.3 783.3 720.0 786.6 714.5 789.3 708.7 791.3 702.6 792.7 696.2 793.4 689.6 793.2 682.8 792.3 675.8 790.8 668.7 788.5 661.6 785.7 654.5 782.4 647.6 778.5 640.8 774.2 634.3 769.6 628.1 764.6 622.1 759.5 616.4 738.1 594.0 733.0 588.2 728.1 582.2 723.5 576.0 719.1 569.5 714.8 563.0 710.7 556.2 702.8 542.3 691.5 520.7 680.6 498.6 666.8 469.0 657.0 446.8 651.0 431.6 648.2 423.7 645.6 415.6 643.2 407.4 640.9 398.9 636.9 381.9 633.6 365.1 631.0 349.2 629.1 334.8 627.9 321.4 627.4 308.8 627.5 302.6 628.1 290.2 629.5 271.6 629.8 265.4 629.9 259.4 629.6 253.4 629.0 247.5 627.9 241.8 626.4 236.3 624.6 231.1 622.6 226.4 620.4 222.3 618.1 218.9 615.9 216.2 613.6 214.5 611.6 213.7 609.7 213.7 608.1 214.4 606.8 215.5 606.0 216.9 605.5 218.4 605.6 219.8 606.2 220.9 607.4 221.6 609.2 221.9 611.6 221.8 614.4 221.3 617.6 220.5 625.2 218.1 638.7 213.1 648.7 209.7 653.8 208.3 659.0 207.3 664.2 206.8 669.4 206.9 674.5 207.6 679.4 209.0 684.1 211.0 688.5 213.4 692.4 216.2 695.8 219.4 698.6 222.8 700.8 226.4 702.2 230.2 702.9 234.1 703.0 238.1 702.6 242.2 701.8 246.4 700.6 250.8 697.5 259.8 692.2 274.3 690.5 279.5 689.0 284.8 687.7 290.3 686.7 296.1 686.1 302.1 685.9 308.3 686.0 314.8 686.3 321.5 688.6 350.0 688.9 357.4 689.0 364.9 688.9 372.4 688.1 387.5 685.0 425.6 684.0 440.8 683.0 464.1 682.3 505.3 682.0 513.6 681.4 521.7 680.4 529.5 679.1 537.0 677.3 544.0 675.0 550.5 672.2 556.5 669.0 562.1 665.4 567.4 661.6 572.4 657.6 577.2 641.3 595.8 633.4 605.4 629.6 610.5 626.0 615.7 622.5 621.3 619.1 627.0 615.9 633.1 612.9 639.5 610.1 646.0 607.6 652.6 605.4 659.1 603.5 665.6 602.0 672.0 600.8 678.0 600.1 683.8 599.7 689.1 599.8 694.0 600.3 698.3 601.2 702.0 602.6 705.1 604.3 707.4 606.5 709.0 609.0 709.7 611.8 709.5 614.8 708.5 617.9 706.6 621.0 703.9 623.8 700.5 626.4 696.2 628.6 691.1 630.2 685.3 631.5 678.8 632.3 671.8 632.8 664.3 633.2 648.2 633.3 614.8 634.1 557.4 634.2 533.2 634.0 517.2 633.5 501.2 630.7 461.5 629.9 445.5 629.7 429.4 630.7 388.6 630.7 380.5 630.4 372.4 629.9 364.4 629.2 356.4 628.1 348.7 626.7 341.1 624.9 333.9 622.8 327.0 620.4 320.5 617.5 314.5 614.3 308.9 610.7 304.0 606.9 299.6 602.9 296.0 598.8 293.1 594.6 291.1 590.4 289.9 586.4 289.7 582.4 290.5 578.7 292.3 575.3 294.8 572.1 298.2 569.3 302.2 566.8 306.8 564.9 311.9 563.4 317.4 562.4 323.3 561.9 329.5 561.7 335.9 562.0 342.5 563.2 356.3 567.8 392.1 570.0 406.7 572.7 421.4 574.2 428.9 577.6 444.0 585.2 474.5 588.8 489.7 590.4 497.3 593.3 512.5 595.8 527.7 598.0 543.1 605.4 599.2 607.7 615.7 611.6 640.6 615.9 665.6 620.5 690.5 623.7 707.0 627.4 723.3 631.6 739.4 634.0 747.5 636.6 755.4 639.3 763.3 645.3 778.9 651.8 794.2 662.2 816.4 669.4 830.7 673.2 837.5 677.1 844.2 681.2 850.7 685.5 856.9 690.0 862.8 694.7 868.5 699.6 873.9 704.7 878.8 709.9 883.3 715.2 887.3 720.5 890.7 725.8 893.4 731.1 895.5 736.4 896.8 741.5 897.4 746.4 897.2 751.2 896.4 755.6 894.9 759.7 892.8 763.4 890.1 766.7 886.8 769.5 882.9 771.8 878.6 773.5 873.8 774.8 868.7 775.6 863.2 776.0 857.5 775.8 851.6 775.1 845.6 774.0 839.5 772.5 833.3 770.6 827.1 768.4 820.8 763.5 808.2 753.3 783.0 751.0 776.9 749.0 770.9 747.4 765.0 746.1 759.4 745.3 754.0 745.1 748.8 745.4 743.9 746.3 739.3 747.7 735.0 749.5 730.7 751.7 726.6 754.3 722.6 757.1 718.7 769.9 702.5 773.1 698.2 776.1 693.7 778.8 689.1 781.0 684.3 782.9 679.2 784.1 673.9 784.9 668.3 785.2 662.5 785.1 656.5 784.7 650.3 784.0 644.0 783.1 637.6 778.8 610.7 777.9 603.9 777.3 597.1 776.8 590.3 776.8 583.6 777.2 577.0 778.0 570.6 779.3 564.2 781.0 557.9 783.0 551.6 785.2 545.3 795.3 519.1 802.9 498.1 810.1 476.8 821.3 442.8 825.9 429.6 830.7 416.6 841.3 390.4 846.1 377.0 848.1 370.3 849.8 363.5 851.2 356.7 852.3 349.8 853.6 336.6 854.9 310.6 855.5 304.2 855.9 301.5 857.2 297.0 858.2 294.9 859.3 292.7 865.2 282.2 868.3 275.7 869.6 272.1 870.7 268.2 871.5 264.1 872.0 259.7 872.2 255.2 872.0 250.5 871.5 245.6 870.6 240.7 869.4 235.7 867.7 230.7 865.7 225.7 863.3 220.8 860.5 216.1 857.5 211.6 854.2 207.4 850.8 203.5 847.2 200.1 843.6 197.1 839.9 194.8 836.2 193.0 832.5 191.9 829.0 191.6 825.6 192.1 822.4 193.5 819.5 195.8 816.8 199.1 814.5 203.4 812.5 208.6 810.7 214.6 809.1 221.2 806.4 235.8 795.9 302.6 793.2 322.9 791.1 342.7 790.1 356.3 789.3 370.6 788.9 385.6 788.8 393.3 788.8 401.1 789.3 417.0 789.7 425.0 791.0 441.0 791.8 449.1 793.8 465.2 797.3 489.6 801.3 514.2 805.8 538.6 809.1 554.2 812.8 569.1 816.9 583.5 819.2 590.6 821.7 597.5 824.4 604.4 827.3 611.3 830.5 618.1 833.9 624.9 837.5 631.5 841.2 638.0 845.1 644.3 849.1 650.4 853.1 656.2 857.2 661.6 861.3 666.6 865.4 671.3 869.5 675.6 877.3 683.3 894.0 698.6 896.4 701.1 898.4 703.6 900.0 706.1 900.9 708.5 901.1 710.9 900.7 713.4 899.4 715.9 897.5 718.4 895.0 720.7 892.0 722.6 888.6 724.1 885.0 725.0 881.1 725.2 877.3 724.5 873.4 722.9 869.7 720.4 865.9 717.1 862.2 713.1 858.6 708.5 854.9 703.5 847.8 692.3 840.6 680.4 833.6 668.0 805.9 617.8 799.3 605.1 792.8 591.8 786.7 577.9 783.8 570.7 778.1 556.1 772.8 541.3 765.6 519.1 761.2 504.4 757.2 489.7 753.3 474.7 745.8 444.4 741.7 428.9 737.1 413.2 727.0 382.0 724.7 374.6 722.8 367.5 721.2 360.8 720.2 354.5 719.7 348.7 719.8 343.4 720.3 338.4 721.4 333.8 722.9 329.6 724.7 325.6 726.9 321.8 729.4 318.2 732.2 314.7 738.2 308.1 761.2 285.8 763.6 283.9 765.9 282.3 768.4 281.3 771.0 280.8 773.8 281.1 776.8 282.0 779.9 283.6 783.2 285.7 786.6 288.3 790.0 291.3 793.3 294.5 799.5 301.4 804.8 308.3 806.9 311.5 808.7 314.5 809.9 317.1 810.5 319.4 810.5 321.1 809.8 322.3 808.4 322.8 806.3 322.8 803.5 322.3 800.1 321.5 782.1 316.1 771.1 313.4 759.6 311.0 731.9 305.6 722.4 303.3 718.2 302.0 714.2 300.5 710.6 298.9 707.3 297.1 704.5 295.0 701.9 292.7 699.8 290.2 698.0 287.8 694.3 282.3 693.6 281.6 693.1 281.7 692.9 282.8 692.8 284.8 693.4 312.0 692.9 347.4 693.0 362.6 693.7 377.5 695.2 392.0 697.4 406.5 700.2 421.4 703.5 436.8 707.3 452.9 711.6 469.2 716.2 485.5 718.7 493.5 723.9 509.0 729.5 524.0 732.6 531.3 735.9 538.6 739.3 545.7 743.0 552.8 746.9 559.8 751.1 566.8 755.4 573.7 764.4 587.4 796.8 634.5 810.8 654.0 830.0 679.3 834.5 685.5 838.8 691.9 842.6 698.3 846.1 704.8 849.0 711.4 851.2 718.3 853.0 725.3 854.2 732.4 855.0 739.7 855.4 747.2 855.5 754.7 855.0 770.2 854.1 786.1 853.4 794.2 851.8 810.3 849.7 826.3 847.3 841.9 845.9 849.5 844.3 856.7 842.4 863.5 840.3 869.7 837.8 875.2 835.0 880.0 831.8 883.9 828.0 886.8 823.9 888.7 819.5 889.7 814.8 889.8 809.9 889.0 805.0 887.4 800.0 884.9 795.1 881.7 790.4 877.7 785.7 873.1 781.1 868.1 767.6 852.0 763.0 846.8 758.3 842.0 753.5 837.8 748.6 833.9 743.6 830.5 738.5 827.4 733.2 824.5 722.5 819.4 699.9 809.3 688.4 803.4 682.7 800.1 677.0 796.4 671.4 792.2 665.9 787.7 660.5 782.7 655.3 777.3 650.3 771.5 645.5 765.4 640.9 759.0 636.5 752.4 632.5 745.5 628.7 738.4 625.2 731.1 621.9 723.7 615.8 708.7 587.7 633.3 579.6 611.1 569.4 581.5 555.0 537.5 547.5 515.9 544.8 508.7 539.1 494.5 524.2 459.6 518.5 446.0 513.4 432.6 509.1 419.4 507.3 413.0 505.8 406.6 504.6 400.2 503.8 394.0 503.2 387.8 503.0 381.7 503.1 375.7 503.4 369.7 504.0 363.8 504.8 358.0 507.0 346.4 509.9 335.3 513.1 325.3 514.8 320.9 516.5 317.1 518.2 313.9 519.8 311.4 521.4 309.4 522.9 308.0 524.5 307.0 526.1 306.4 527.7 305.9 534.6 304.6 536.3 304.0 537.8 303.3 539.2 302.4 540.2 301.2 540.9 299.7 541.2 298.0 541.0 295.9 540.3 293.5 539.3 291.1 538.0 288.5 536.6 286.1 533.4 281.9 531.9 280.4 530.4 279.3 529.2 278.8 528.2 278.8 527.5 279.5 527.0 280.7 527.0 282.5 527.3 284.9 528.1 288.0 529.4 291.8 531.1 296.2 535.5 306.4 553.1 344.0 562.1 364.4 570.9 385.7 585.4 422.7 591.7 437.4 595.1 444.7 598.6 451.9 602.3 458.9 606.2 465.9 614.4 479.5 623.0 492.9 632.0 506.1 641.3 519.2 650.9 532.1 660.6 544.8 680.1 569.7 689.2 581.9 693.3 587.9 697.1 593.9 700.5 599.8 703.5 605.8 706.0 611.7 708.0 617.7 709.5 623.9 710.5 630.2 711.0 636.8 710.9 643.7 710.3 651.0 709.1 658.6 707.6 666.6 701.8 691.9 700.0 700.6 698.6 709.3 697.6 717.8"/>
<polyline points="556.4 620.5 559.6 627.6 562.6 634.8 565.5 642.2 568.3 649.8 570.9 657.7 573.4 665.9 582.5 700.5 585.0 708.9 587.6 716.8 590.5 724.2 593.8 730.8 597.5 736.6 601.6 741.5 606.0 745.7 610.8 749.2 615.8 752.2 621.1 754.5 626.6 756.4 632.3 757.9 638.1 759.1 644.1 760.0 650.2 760.6 662.4 761.3 692.6 762.1 704.2 762.0 709.9 761.7 715.7 761.1 721.4 760.1 727.1 758.8 732.9 757.1 738.6 754.9 744.3 752.3 749.9 749.3 755.3 745.9 760.5 742.3 765.5 738.3 770.2 734.1 774.6 729.6 778.6 724.8 782.2 719.8 785.3 714.5 787.9 708.9 789.9 703.0 791.3 696.9 792.0 690.4 792.0 683.7 791.3 676.7 790.0 669.6 788.0 662.4 785.4 655.3 782.3 648.3 778.6 641.4 774.4 634.9 769.7 628.6 764.7 622.7 759.4 617.0 737.4 594.8 732.1 589.1 727.1 583.2 722.4 577.1 717.9 570.8 713.6 564.4 705.5 550.9 701.6 544.0 693.9 529.7 682.7 507.7 668.3 478.0 658.1 456.1 651.9 441.2 648.9 433.6 646.1 425.8 643.4 417.7 640.9 409.3 636.5 392.1 632.7 374.7 629.6 357.8 627.2 342.1 626.3 334.7 624.9 320.8 624.5 314.2 624.4 307.8 624.4 301.5 624.6 295.2 625.1 289.1 627.0 270.9 627.9 259.0 627.9 253.2 627.6 247.5 626.9 241.9 625.8 236.5 624.4 231.4 622.8 226.7 620.9 222.5 618.9 218.9 616.9 216.1 614.9 214.1 612.9 212.9 611.0 212.6 609.4 212.9 608.0 213.7 606.9 214.7 606.3 215.9 606.1 217.1 606.5 218.2 607.5 218.9 609.1 219.3 611.2 219.4 613.7 219.3 616.8 218.9 624.1 217.5 642.3 212.8 647.3 211.7 652.5 210.8 657.7 210.3 662.9 210.2 668.1 210.6 673.2 211.6 678.1 213.2 682.8 215.2 687.1 217.7 691.0 220.6 694.4 223.7 697.2 227.1 699.4 230.6 700.9 234.2 701.7 238.0 702.0 241.8 701.7 245.7 701.1 249.7 700.2 253.9 693.3 276.4 690.8 286.5 689.8 291.9 689.1 297.5 688.7 303.3 688.6 309.4 688.8 315.8 691.3 350.3 691.5 357.5 691.6 364.9 691.4 372.2 690.6 387.1 688.1 417.1 686.6 439.6 685.6 462.9 685.0 504.8 684.6 513.3 684.0 521.6 683.0 529.7 681.6 537.4 679.7 544.7 677.3 551.4 674.3 557.6 670.9 563.3 667.1 568.7 663.1 573.8 658.9 578.6 637.1 601.5 628.9 611.0 625.0 616.1 621.2 621.5 617.6 627.2 614.2 633.2 611.1 639.5 608.2 646.0 605.6 652.6 603.3 659.3 601.5 665.9 600.0 672.4 599.0 678.6 598.4 684.6 598.3 690.1 598.7 695.2 599.5 699.7 600.7 703.6 602.4 706.8 604.4 709.2 606.7 710.7 609.5 711.3 612.4 711.0 615.5 709.7 618.7 707.6 621.7 704.7 624.6 700.9 627.2 696.4 629.3 691.2 631.0 685.3 632.3 678.7 633.1 671.6 633.7 664.1 634.0 656.3 634.6 606.6 635.9 549.1 636.2 524.9 636.2 516.9 635.9 500.9 633.6 461.2 633.0 445.2 633.0 429.2 634.0 396.8 634.1 380.5 633.9 372.3 633.4 364.2 632.6 356.1 631.5 348.2 630.0 340.4 628.2 333.0 626.0 325.8 623.4 319.0 620.4 312.7 617.0 306.9 613.3 301.7 609.2 297.1 605.0 293.2 600.7 290.2 596.3 288.0 592.0 286.8 587.9 286.6 583.9 287.5 580.2 289.3 576.7 292.1 573.6 295.7 570.9 299.9 568.6 304.8 566.8 310.1 565.4 315.8 564.6 321.9 564.2 328.1 564.3 334.6 564.6 341.3 565.3 348.2 571.7 398.6 573.9 413.5 575.2 421.0 576.6 428.6 579.8 443.9 590.6 490.2 593.7 505.4 596.4 520.7 598.7 536.0 600.9 551.4 606.9 599.3 610.2 624.1 614.0 649.2 616.7 666.0 621.3 690.8 624.6 707.1 628.3 723.1 632.6 739.1 637.6 755.2 640.4 763.2 646.3 779.3 656.0 803.0 665.8 825.9 672.7 840.3 676.3 847.3 680.1 853.9 684.1 860.4 688.4 866.5 693.0 872.4 697.8 877.9 702.8 882.9 708.0 887.5 713.4 891.5 718.8 894.9 724.2 897.6 729.7 899.6 735.1 900.8 740.4 901.2 745.5 900.9 750.5 899.8 755.2 898.1 759.5 895.7 763.6 892.7 767.1 889.1 770.2 885.0 772.9 880.3 775.0 875.3 776.6 869.9 777.7 864.1 778.3 858.2 778.4 852.0 777.9 845.8 776.9 839.4 775.4 833.1 773.5 826.7 771.4 820.3 769.0 813.8 756.2 782.2 752.1 770.3 750.5 764.6 749.2 759.1 748.4 754.0 748.1 749.2 748.3 744.7 749.1 740.5 750.3 736.6 751.9 732.9 753.9 729.2 756.3 725.7 758.9 722.1 771.4 706.7 774.5 702.4 777.3 698.0 779.9 693.3 782.0 688.3 783.6 683.1 784.5 677.6 784.9 671.9 784.8 665.9 784.2 659.7 783.4 653.3 782.3 646.7 778.3 626.0 775.8 611.8 774.8 604.6 774.1 597.4 773.7 590.3 773.7 583.3 774.3 576.4 775.3 569.6 776.9 563.0 778.8 556.5 781.1 550.0 783.6 543.5 794.8 517.0 800.3 503.2 808.1 482.2 822.6 441.4 827.6 428.4 832.8 415.5 841.3 396.5 846.7 383.9 849.1 377.5 851.2 371.1 852.9 364.6 854.3 358.0 855.3 351.4 856.0 344.9 856.8 332.5 857.4 312.1 858.1 304.8 858.6 301.7 859.2 298.9 860.0 296.3 861.0 293.9 862.2 291.6 868.3 282.0 871.4 276.4 872.7 273.3 873.8 269.8 874.6 266.0 875.0 262.0 875.2 257.6 875.0 253.0 874.4 248.1 873.5 243.1 872.2 237.9 870.5 232.6 868.5 227.2 866.0 221.8 863.3 216.5 860.3 211.5 857.1 206.7 853.7 202.4 850.1 198.6 846.5 195.4 842.8 192.8 839.1 191.1 835.5 190.1 832.0 189.9 828.6 190.6 825.4 192.2 822.5 194.7 819.9 198.2 817.6 202.6 815.6 208.0 813.9 214.0 812.3 220.7 809.7 235.3 798.2 309.5 795.6 328.9 793.6 348.0 792.5 361.6 791.8 376.2 791.5 383.8 791.3 399.6 791.6 415.7 791.9 423.7 793.0 439.7 795.4 463.6 798.5 487.7 801.9 512.3 805.8 536.7 808.9 552.4 812.3 567.3 816.4 581.6 818.8 588.7 821.3 595.6 824.0 602.6 827.0 609.5 830.3 616.5 833.7 623.4 837.4 630.2 841.3 636.9 845.3 643.4 849.3 649.6 853.5 655.4 857.7 660.9 862.0 665.9 866.2 670.5 874.5 678.6 892.8 695.1 895.8 698.2 898.4 701.1 900.5 704.1 902.1 707.0 903.1 709.9 903.4 712.7 902.8 715.6 901.5 718.4 899.4 721.1 896.7 723.5 893.5 725.5 889.9 727.0 886.1 727.9 882.1 727.9 878.1 727.0 874.2 725.1 870.4 722.3 866.7 718.7 863.0 714.3 859.4 709.4 852.3 698.2 841.6 679.9 830.9 660.9 814.0 629.2 804.4 610.2 798.1 597.2 788.9 576.4 782.9 562.0 780.0 554.6 774.5 539.8 769.5 524.9 765.0 510.2 760.8 495.5 756.9 480.7 747.4 443.2 743.2 427.8 738.5 412.2 727.9 380.9 725.6 373.5 723.6 366.3 722.0 359.6 721.0 353.2 720.6 347.4 720.9 342.1 721.7 337.1 722.9 332.6 724.6 328.3 726.7 324.3 729.1 320.6 731.7 317.0 734.6 313.5 737.6 310.1 743.9 303.8 750.1 298.0 761.0 288.5 763.4 286.8 765.6 285.3 767.9 284.3 770.2 283.8 772.6 283.7 775.1 284.3 777.8 285.5 780.7 287.2 783.6 289.5 786.7 292.2 789.7 295.1 792.7 298.4 798.5 305.4 803.6 312.4 805.7 315.7 807.4 318.7 808.7 321.4 809.3 323.7 809.4 325.3 808.7 326.4 807.3 326.7 805.2 326.4 802.3 325.5 798.9 324.2 780.6 316.7 769.7 312.8 752.5 307.4 725.9 300.3 717.1 297.7 713.1 296.2 709.5 294.6 706.2 292.8 703.2 290.8 700.6 288.5 698.4 286.0 693.4 279.7 692.3 278.5 691.5 278.0 690.9 278.4 690.4 279.9 690.2 282.3 690.0 289.7 690.4 312.7 690.5 341.9 691.0 365.1 691.9 380.2 692.6 387.5 694.5 401.9 695.6 409.1 698.4 423.8 701.8 439.0 705.7 454.8 710.1 471.0 715.0 487.2 720.1 503.0 725.6 518.4 731.6 533.3 734.9 540.6 738.3 547.8 742.0 554.9 745.9 561.8 750.0 568.7 754.3 575.5 763.3 588.9 791.9 629.0 811.2 655.3 830.4 680.3 834.8 686.4 838.9 692.5 842.7 698.7 846.0 705.0 848.7 711.4 850.9 717.9 852.6 724.6 853.8 731.5 854.5 738.5 855.0 745.7 855.2 760.5 854.9 776.0 854.4 791.9 853.3 808.1 851.7 824.3 850.6 832.2 849.2 840.1 847.6 847.8 845.7 855.1 843.6 862.0 841.1 868.4 838.3 874.2 835.1 879.2 831.5 883.5 827.5 886.7 823.2 889.1 818.6 890.6 813.8 891.1 808.9 890.8 803.9 889.6 799.0 887.5 794.1 884.6 789.3 880.8 784.7 876.4 780.2 871.5 766.8 855.6 762.3 850.4 757.6 845.5 752.9 841.2 748.0 837.2 743.0 833.7 737.9 830.4 732.7 827.5 721.9 822.0 699.1 811.2 693.3 808.2 687.5 805.0 681.7 801.6 676.1 797.8 670.5 793.6 665.1 789.0 659.9 784.1 654.8 778.7 650.0 773.0 645.3 766.9 640.9 760.6 636.8 753.9 632.9 747.0 629.2 739.8 625.9 732.4 622.7 724.9 619.7 717.2 614.0 701.6 603.1 670.7 581.4 610.9 573.7 588.7 568.8 574.0 554.8 530.0 549.9 515.5 547.3 508.2 541.6 493.9 523.9 451.4 518.6 437.6 513.9 424.1 511.9 417.5 510.2 411.0 508.7 404.7 507.6 398.6 506.7 392.7 506.2 386.9 506.0 381.2 506.0 375.7 506.3 370.3 506.8 364.9 508.4 354.3 510.5 343.7 513.0 333.8 514.3 329.2 517.1 321.4 518.4 318.3 519.7 315.8 521.0 313.9 522.3 312.5 523.5 311.5 524.8 310.7 526.2 310.2 532.3 308.4 535.4 306.8 536.8 305.8 537.9 304.5 538.7 302.9 539.2 301.1 539.3 298.9 538.9 296.5 538.3 294.0 537.4 291.5 536.3 289.1 535.0 286.9 533.6 285.1 532.2 283.6 530.8 282.7 529.4 282.3 528.2 282.5 527.3 283.3 526.6 284.6 526.2 286.5 526.3 289.1 526.8 292.2 527.9 296.0 529.4 300.3 531.4 305.1 536.3 316.0 547.9 340.9 556.7 360.9 565.4 381.7 579.9 417.8 586.1 432.4 592.8 446.9 600.2 461.1 608.2 475.0 616.7 488.6 625.6 502.0 634.8 515.1 644.2 527.9 653.9 540.4 663.9 552.4 683.7 575.3 688.3 580.9 692.6 586.5 696.6 592.2 700.1 597.9 703.2 603.7 705.8 609.6 707.8 615.7 709.4 622.0 710.4 628.5 710.8 635.3 710.6 642.4 709.8 649.8 708.4 657.6 706.6 665.8 700.0 691.5 698.0 700.3 696.4 709.1 695.3 717.9"/>
<polyline points="439.9 683.6 434.1 697.7 431.3 704.9 428.7 712.3 426.2 719.8 417.3 750.7 415.0 758.0 412.5 765.0 409.8 771.4 406.8 777.2 403.5 782.2 399.9 786.6 396.0 790.5 391.8 793.8 387.4 796.7 382.8 799.4 378.0 801.8 373.1 804.0 363.0 808.3 352.7 812.2 342.1 815.7 331.6 818.6 326.4 819.7 321.2 820.7 315.9 821.4 310.7 821.8 305.4 821.9 300.0 821.6 294.5 820.9 289.0 819.8 283.3 818.3 277.5 816.3 271.8 813.9 266.1 811.2 260.4 808.1 255.0 804.7 249.7 801.1 244.7 797.2 240.0 793.1 235.7 788.8 231.8 784.4 228.4 779.7 225.6 774.8 223.5 769.7 222.0 764.5 221.3 759.0 221.3 753.3 222.1 747.5 223.6 741.5 225.7 735.5 228.3 729.5 231.4 723.6 235.0 717.7 238.8 712.0 242.9 706.5 251.8 695.8 270.2 675.0 274.6 669.6 278.8 664.1 282.9 658.4 286.8 652.6 294.1 640.7 297.6 634.7 304.4 622.3 314.1 603.5 339.3 552.8 345.3 539.9 350.9 526.8 353.4 520.0 355.7 513.1 357.8 506.0 359.7 498.9 361.4 491.8 362.8 484.6 364.0 477.5 365.0 470.4 365.8 463.4 366.3 456.5 366.5 449.7 366.5 436.2 366.2 429.5 365.3 416.1 362.4 388.8 361.8 381.9 361.5 375.0 361.4 368.2 361.6 361.5 362.3 354.9 363.4 348.4 364.9 342.1 366.7 336.2 368.8 330.6 371.0 325.4 373.2 320.8 375.4 316.8 377.5 313.5 379.4 310.9 383.2 306.3 383.7 305.4 383.7 304.6 383.3 303.7 382.3 302.6 378.5 299.5 375.8 297.5 369.1 292.9 356.5 285.0 346.9 279.6 341.9 277.1 336.8 274.7 331.7 272.5 326.6 270.6 321.4 269.0 316.4 267.9 311.5 267.1 306.8 266.8 302.3 266.9 298.2 267.2 294.5 267.8 291.3 268.7 288.8 269.6 286.9 270.7 285.8 271.9 285.4 273.1 285.5 274.4 286.3 275.8 287.5 277.3 289.0 278.9 297.5 287.1 299.9 289.6 302.1 292.5 304.1 295.6 305.9 299.0 307.4 302.9 308.5 307.1 309.1 311.7 309.3 316.7 309.3 322.1 308.0 345.8 308.0 352.1 308.2 358.4 308.6 364.7 310.0 377.3 313.7 402.6 316.0 421.5 317.7 441.2 319.5 478.1 320.1 485.7 320.9 493.2 322.1 500.4 323.6 507.2 325.6 513.6 328.0 519.4 331.0 524.7 334.3 529.6 338.0 534.1 341.9 538.3 362.6 558.5 370.7 567.3 374.6 572.1 378.5 577.1 382.2 582.5 385.9 588.3 389.5 594.5 392.9 601.0 396.2 607.9 399.3 614.8 402.1 621.9 404.8 628.9 407.1 635.9 409.2 642.7 410.9 649.2 412.2 655.3 413.2 661.1 413.7 666.4 413.7 671.1 413.2 675.3 412.1 678.8 410.5 681.6 408.3 683.6 405.5 684.8 402.5 685.2 399.2 684.8 395.8 683.5 392.5 681.3 389.4 678.3 386.6 674.4 384.3 669.5 382.3 663.9 380.7 657.5 379.4 650.6 378.3 643.3 377.4 635.6 376.1 619.7 374.6 595.9 372.1 548.7 371.0 525.2 370.6 509.6 370.6 494.2 372.1 448.8 372.1 433.6 371.5 418.3 370.0 394.7 369.4 378.5 369.4 370.2 369.6 361.9 370.1 353.4 370.9 345.0 372.0 336.8 373.4 328.8 375.2 321.1 377.3 313.9 379.8 307.1 382.6 301.0 385.8 295.5 389.2 290.8 392.9 286.8 396.7 283.7 400.6 281.4 404.5 280.1 408.4 279.8 412.3 280.6 416.0 282.3 419.6 284.9 422.9 288.5 425.9 292.8 428.6 297.9 430.9 303.6 432.7 310.0 434.0 316.9 435.0 324.3 435.5 332.0 435.6 340.1 435.5 348.4 435.2 356.9 434.1 373.9 432.7 390.6 431.0 407.1 428.9 423.4 426.3 439.4 424.9 447.4 416.8 487.0 413.8 502.6 412.6 510.4 410.4 526.0 407.7 549.3 403.1 597.0 400.5 621.4 396.5 654.3 393.0 679.1 388.0 712.2 385.1 728.8 383.5 737.0 379.8 753.4 377.8 761.5 373.0 777.6 367.7 793.3 361.7 808.7 358.6 816.3 352.1 831.0 345.2 845.2 341.6 852.1 337.9 858.8 334.0 865.2 330.0 871.5 325.7 877.5 321.3 883.3 316.7 888.7 311.9 893.8 307.1 898.5 302.2 902.8 297.2 906.5 292.3 909.6 287.4 912.1 282.6 914.0 277.8 915.1 273.3 915.6 269.0 915.5 265.0 914.6 261.3 913.0 257.9 910.8 255.0 907.8 252.5 904.2 250.5 899.9 249.0 895.1 247.8 889.7 247.1 884.0 246.8 877.8 246.9 871.4 247.4 864.7 248.3 857.9 249.5 850.9 251.0 843.7 254.5 829.1 260.7 806.3 264.6 790.8 266.3 783.0 267.8 775.3 268.9 767.7 269.6 760.3 269.9 753.1 269.5 746.2 268.6 739.6 267.1 733.3 265.0 727.3 262.5 721.5 259.6 715.9 256.4 710.6 252.9 705.4 249.2 700.4 233.5 680.8 229.8 675.7 226.3 670.4 223.2 664.9 220.5 659.0 218.3 652.8 216.5 646.2 215.2 639.3 214.2 632.3 213.6 625.1 213.3 617.8 213.2 610.5 213.4 603.3 213.7 596.2 215.1 575.9 215.6 563.5 215.5 557.7 215.1 552.3 214.3 547.1 213.2 542.3 211.7 537.6 210.0 533.0 199.0 508.3 194.2 496.6 189.5 484.5 182.9 466.3 169.6 427.9 157.6 395.2 154.1 384.3 152.6 378.9 150.2 368.6 146.9 352.4 146.1 350.0 145.4 348.4 144.5 347.8 143.7 347.9 142.7 348.8 141.7 350.1 137.1 358.3 134.7 362.1 131.4 366.3 130.0 367.7 129.6 367.9 129.6 367.8 130.3 366.4 132.2 363.6 139.5 353.7 147.6 343.3 156.7 332.4 162.7 325.7 165.6 322.8 168.4 320.3 171.1 318.3 173.6 316.8 176.0 316.1 178.1 316.0 180.1 316.9 181.8 318.6 183.4 321.2 184.8 324.5 186.0 328.3 187.2 332.6 192.8 357.1 201.5 391.1 203.7 401.5 204.8 408.9 205.6 417.6 206.1 427.6 206.2 438.8 205.8 450.7 205.0 463.2 203.7 475.9 202.2 489.1 195.6 538.0 193.4 552.2 190.9 566.0 188.0 579.2 184.5 591.9 180.2 604.6 177.7 611.0 171.9 624.1 168.6 630.8 165.1 637.4 157.5 650.5 153.5 656.9 149.4 662.9 145.3 668.7 137.1 679.3 121.6 697.9 118.2 702.4 115.0 706.8 112.2 711.4 109.7 716.0 107.6 720.5 106.0 725.1 104.9 729.6 104.5 734.0 104.8 738.2 105.9 742.3 107.7 746.2 110.2 749.7 113.3 752.8 116.8 755.3 120.7 757.2 124.8 758.4 129.0 758.6 133.1 757.9 137.0 756.1 140.9 753.3 144.6 749.7 148.2 745.4 151.7 740.4 155.1 735.0 158.5 729.2 168.4 710.7 196.5 655.9 205.1 638.7 210.7 626.7 218.8 607.6 226.4 587.6 231.0 574.1 235.2 560.8 240.9 541.1 251.3 501.5 256.9 481.3 261.2 467.5 270.5 440.1 274.2 428.0 275.5 422.8 276.4 418.2 276.6 414.3 276.4 411.1 275.7 408.5 274.5 406.4 273.0 404.7 271.2 403.4 269.1 402.4 266.9 401.5 264.4 400.8 259.4 399.7 251.9 398.7 245.6 398.5 243.9 398.6 242.4 399.0 240.9 399.6 239.5 400.5 238.0 401.8 234.8 405.7 230.9 411.6 228.8 415.2 226.7 419.2 222.2 428.0 217.9 437.7 215.9 442.7 214.0 447.7 212.4 452.6 211.2 457.4 210.3 461.9 209.9 466.0 210.0 469.7 210.8 472.9 212.2 475.4 214.3 477.4 217.0 478.9 220.1 479.8 223.7 480.4 227.7 480.6 232.1 480.4 236.7 480.0 246.5 478.5 256.8 476.2 261.9 474.7 266.9 473.1 271.7 471.2 276.4 469.2 280.8 467.0 284.9 464.7 288.6 462.1 292.1 459.2 295.3 456.1 298.2 452.7 300.8 448.9 303.0 444.8 304.9 440.4 306.5 435.7 307.8 431.0 309.6 422.3 311.1 412.2 310.5 423.1 310.1 452.0 309.6 463.0 308.6 474.0 307.9 479.4 306.0 490.3 303.6 501.6 300.7 513.5 295.6 532.9 291.8 546.6 287.6 560.6 283.3 574.4 278.6 588.0 273.4 601.4 267.7 614.7 264.5 621.3 257.5 634.5 249.9 647.6 245.8 654.1 237.5 667.0 224.5 685.8 215.7 698.1 206.8 710.1 189.1 733.5 180.8 745.1 177.1 750.9 173.7 756.9 170.8 762.9 168.4 769.1 166.6 775.5 165.4 782.0 164.5 788.7 164.1 795.5 164.0 802.4 164.2 809.5 165.4 831.4 167.4 854.0 169.1 868.8 171.4 883.2 172.8 890.1 174.4 896.7 176.2 903.0 178.2 908.7 180.5 913.9 183.2 918.4 186.1 922.1 189.4 925.0 193.1 926.8 197.1 927.8 201.4 927.9 205.8 927.1 210.4 925.6 215.0 923.3 219.6 920.4 224.1 916.8 228.5 912.7 232.8 908.2 237.1 903.3 249.7 888.0 254.1 883.1 258.5 878.5 263.2 874.3 267.9 870.5 272.8 867.0 277.8 863.8 282.8 860.7 293.2 855.1 309.1 847.0 319.8 841.1 325.1 837.8 330.4 834.2 335.7 830.3 340.9 826.0 346.0 821.3 351.1 816.2 356.1 810.6 360.9 804.8 365.5 798.6 370.0 792.2 374.1 785.6 378.0 778.8 381.6 771.9 385.0 764.9 388.1 757.8 393.7 743.3 398.9 728.6 416.6 676.4 428.6 639.2 437.7 609.5 448.3 572.0 455.1 549.6 457.6 542.1 462.8 527.4 476.8 491.1 482.1 476.8 486.9 462.6 489.0 455.5 490.9 448.4 492.5 441.3 493.9 434.1 494.9 426.9 495.6 419.7 495.9 412.4 495.9 405.3 495.6 398.3 495.0 391.5 494.0 385.0 492.8 378.8 491.2 373.0 489.4 367.6 487.3 362.8 485.0 358.6 482.6 355.0 480.1 352.1 477.6 349.9 475.1 348.6 472.6 348.1 470.2 348.4 468.0 349.6 465.8 351.4 463.7 353.8 461.7 356.6 459.8 359.8 456.0 366.6 452.5 373.5 449.6 379.9 448.6 382.9 448.0 385.5 447.8 387.9 448.1 389.9 448.9 391.5 450.3 392.9 452.0 394.0 458.3 397.3 460.5 398.7 462.5 400.4 464.3 402.6 465.8 405.1 467.0 407.9 467.8 411.2 468.3 414.7 468.3 418.5 467.9 422.5 467.0 426.8 465.7 431.3 463.8 436.0 461.6 440.8 456.2 450.8 433.7 487.5 427.4 498.8 424.3 504.6 418.4 517.0 403.8 550.2 397.4 563.3 394.0 569.6 386.7 581.8 382.9 587.8 375.0 599.5 354.5 628.4 346.2 639.8 337.8 650.6 329.3 660.7 325.1 665.5 320.8 670.1 312.2 678.7 308.0 682.7 299.4 690.3 282.4 704.3 274.3 711.4 270.4 715.0 266.5 718.9 262.8 723.0 259.3 727.3 255.9 731.8 252.6 736.5 249.5 741.5 246.5 746.7 243.8 752.2 241.2 757.8"/>
<polyline points="555.2 619.7 558.3 626.8 561.2 634.0 564.1 641.5 566.8 649.1 569.3 657.1 571.8 665.4 581.0 700.6 583.5 709.2 586.2 717.4 589.3 724.9 592.7 731.8 596.5 737.8 600.7 742.9 605.3 747.2 610.2 750.8 615.4 753.8 620.9 756.1 626.5 757.9 632.4 759.2 638.4 760.0 644.5 760.5 650.7 760.7 657.0 760.6 681.8 759.7 699.6 759.6 711.1 759.3 716.8 758.8 722.5 758.0 728.1 756.8 733.7 755.1 739.3 753.0 744.8 750.5 750.2 747.7 755.4 744.4 760.4 740.9 765.2 737.1 769.7 733.1 773.9 728.8 777.7 724.3 781.1 719.5 784.1 714.5 786.6 709.1 788.5 703.5 789.9 697.5 790.7 691.2 790.8 684.5 790.3 677.6 789.2 670.5 787.4 663.3 785.1 656.1 782.1 649.0 778.6 642.1 774.5 635.5 769.9 629.2 764.8 623.3 759.4 617.6 753.7 612.0 736.6 595.7 731.2 590.1 726.1 584.3 721.3 578.3 716.8 572.1 712.5 565.8 708.4 559.3 704.3 552.6 700.4 545.7 692.7 531.5 681.2 509.4 662.9 472.3 656.1 457.9 652.9 450.6 646.8 435.6 643.9 427.8 641.2 419.7 638.7 411.3 636.4 402.7 634.2 393.9 630.3 376.1 628.6 367.3 625.7 350.3 623.4 334.7 622.6 327.3 621.9 320.2 621.5 313.4 621.3 306.8 621.3 300.3 621.6 294.1 622.9 281.9 625.3 264.4 625.9 258.7 626.2 253.1 626.3 247.6 625.9 242.1 625.2 236.7 624.2 231.6 622.9 226.9 621.4 222.6 619.8 218.9 618.0 215.9 616.1 213.6 614.2 212.2 612.3 211.5 610.6 211.4 609.1 211.8 607.9 212.6 607.0 213.5 606.6 214.5 606.8 215.4 607.6 216.2 608.9 216.8 610.8 217.1 613.1 217.3 616.0 217.4 623.0 216.9 640.9 214.3 646.0 213.7 651.1 213.3 656.4 213.2 661.6 213.5 666.8 214.3 671.9 215.5 676.7 217.3 681.4 219.5 685.7 222.1 689.6 225.0 693.0 228.1 695.9 231.4 698.1 234.8 699.6 238.3 700.6 241.8 700.9 245.5 700.9 249.2 700.4 253.0 698.8 261.0 695.5 273.8 693.5 283.2 691.9 293.4 691.4 298.9 691.2 304.6 691.3 310.5 692.0 323.2 693.0 336.6 693.9 350.5 694.1 357.6 694.1 364.8 693.9 372.1 693.0 386.7 690.5 416.2 689.1 438.5 688.2 461.7 687.6 504.2 687.2 513.0 686.6 521.6 685.6 529.9 684.1 537.9 682.1 545.3 679.6 552.2 676.4 558.6 672.9 564.5 668.9 570.0 664.6 575.2 660.2 580.0 655.5 584.7 637.0 602.4 628.1 611.6 623.9 616.5 619.9 621.7 616.1 627.3 612.5 633.2 609.2 639.5 606.2 646.0 603.5 652.7 601.3 659.4 599.4 666.1 598.0 672.8 597.1 679.2 596.8 685.3 597.0 691.1 597.6 696.4 598.7 701.1 600.2 705.2 602.2 708.5 604.4 711.0 607.0 712.5 609.9 713.0 613.0 712.5 616.2 711.0 619.4 708.6 622.5 705.4 625.3 701.4 627.9 696.7 630.1 691.3 631.8 685.2 633.1 678.6 633.9 671.5 634.5 664.0 634.9 656.2 635.8 606.7 638.0 540.9 638.3 524.7 638.4 508.7 638.2 500.7 636.5 460.9 636.1 444.9 636.2 429.0 637.4 396.8 637.6 380.5 637.4 372.3 636.9 364.0 636.0 355.8 634.9 347.7 633.4 339.7 631.5 332.0 629.2 324.6 626.5 317.6 623.4 311.0 619.8 304.9 615.8 299.4 611.6 294.6 607.1 290.5 602.6 287.2 598.1 284.9 593.6 283.7 589.3 283.5 585.3 284.4 581.6 286.4 578.2 289.4 575.2 293.2 572.6 297.7 570.4 302.8 568.7 308.3 567.5 314.3 566.8 320.4 566.6 326.8 566.8 333.4 567.3 340.1 568.1 347.0 571.9 375.7 575.5 405.4 577.7 420.6 579.0 428.3 582.0 443.8 590.7 482.8 593.9 498.3 596.8 513.6 599.4 528.9 601.6 544.2 603.7 559.6 611.4 624.1 614.9 649.5 617.6 666.4 620.5 683.0 623.7 699.2 627.3 715.1 631.3 730.9 636.0 746.9 638.6 755.0 644.3 771.4 653.6 796.2 662.8 820.3 668.9 835.7 672.1 843.1 675.4 850.3 679.0 857.2 682.7 863.9 686.8 870.2 691.2 876.3 696.0 881.9 701.0 887.1 706.2 891.7 711.6 895.8 717.1 899.2 722.6 901.8 728.2 903.7 733.8 904.8 739.3 905.1 744.6 904.5 749.8 903.2 754.8 901.3 759.4 898.6 763.7 895.3 767.6 891.4 771.0 887.0 774.0 882.1 776.4 876.7 778.4 871.0 779.8 865.0 780.7 858.8 781.0 852.4 780.7 845.9 779.8 839.4 778.4 832.9 776.5 826.3 774.3 819.7 771.9 813.2 761.5 787.6 757.0 775.5 755.1 769.7 753.5 764.1 752.3 758.9 751.5 754.0 751.1 749.5 751.2 745.4 751.8 741.7 752.8 738.3 754.3 735.0 756.1 731.8 758.3 728.7 760.8 725.5 769.6 714.9 772.8 710.9 775.8 706.7 778.6 702.2 781.0 697.4 782.9 692.3 784.3 687.0 784.9 681.4 784.9 675.4 784.4 669.3 783.4 662.8 782.1 656.2 775.6 627.8 774.1 620.4 772.7 612.9 771.7 605.3 770.9 597.8 770.6 590.4 770.7 583.0 771.4 575.8 772.6 568.7 774.4 561.8 776.6 555.0 779.2 548.3 782.0 541.7 794.3 514.9 800.1 501.3 808.4 480.6 821.4 446.7 826.6 433.6 832.1 420.8 834.9 414.5 843.9 396.1 849.6 384.0 852.1 377.9 854.2 371.8 856.0 365.6 857.4 359.3 858.4 353.0 859.0 346.7 859.4 340.5 860.0 313.5 860.7 305.4 861.9 298.6 862.8 295.7 863.8 293.0 865.1 290.5 868.1 286.1 873.0 279.6 874.5 277.2 875.8 274.5 876.9 271.4 877.7 268.0 878.1 264.2 878.2 260.0 877.9 255.4 877.3 250.6 876.4 245.5 875.0 240.1 873.3 234.4 871.2 228.6 868.8 222.8 866.1 217.0 863.1 211.4 859.9 206.1 856.5 201.3 853.0 197.1 849.4 193.6 845.7 190.9 842.1 189.1 838.5 188.2 835.0 188.2 831.6 189.1 828.5 190.9 825.6 193.6 823.0 197.3 820.7 201.9 818.7 207.3 817.0 213.4 815.5 220.1 814.2 227.2 799.6 322.1 797.2 340.4 795.4 359.8 794.2 382.1 793.9 390.0 793.8 406.2 794.1 422.4 794.5 430.4 795.0 438.3 796.3 454.1 797.9 469.8 802.5 510.4 804.6 526.8 807.1 542.8 808.6 550.6 811.9 565.5 813.8 572.7 816.0 579.8 818.3 586.8 820.9 593.8 823.6 600.7 826.7 607.8 830.0 614.8 833.6 621.9 837.4 628.9 841.3 635.8 845.4 642.4 849.6 648.8 853.9 654.7 858.3 660.2 862.6 665.1 867.0 669.7 871.3 673.8 887.5 687.8 894.6 694.4 897.7 697.8 900.4 701.1 902.6 704.5 904.3 707.9 905.3 711.2 905.6 714.5 905.0 717.7 903.6 720.9 901.3 723.8 898.4 726.4 895.0 728.5 891.3 730.0 887.2 730.7 883.1 730.6 879.0 729.5 875.0 727.4 871.2 724.2 867.5 720.2 863.8 715.5 860.2 710.2 853.2 698.3 831.8 660.0 821.6 640.7 815.2 628.0 809.2 615.4 797.3 589.0 788.0 567.8 779.0 545.7 773.6 530.8 768.7 516.0 764.4 501.2 760.5 486.5 751.1 449.5 744.8 426.8 739.8 411.3 731.5 387.6 726.4 372.4 724.4 365.2 722.8 358.3 721.9 352.0 721.6 346.1 722.0 340.8 723.0 335.9 724.4 331.3 726.3 327.1 728.6 323.1 731.2 319.3 737.0 312.3 740.1 308.9 746.4 302.6 752.6 297.1 758.3 292.5 763.3 289.0 765.6 287.7 767.7 286.8 769.9 286.3 772.0 286.2 774.2 286.6 776.5 287.6 778.9 289.0 781.4 290.9 784.0 293.3 789.4 299.0 792.1 302.3 797.4 309.3 802.3 316.5 804.4 319.9 806.2 323.0 807.4 325.7 808.2 327.9 808.3 329.6 807.6 330.5 806.2 330.6 804.0 330.0 801.2 328.8 797.7 327.0 779.2 317.3 773.8 314.7 762.6 309.6 756.9 307.3 745.5 302.9 734.7 299.2 716.0 293.4 712.0 291.9 708.3 290.4 705.0 288.6 702.0 286.6 699.3 284.3 697.0 281.9 691.6 275.7 690.4 274.6 689.4 274.4 688.6 275.1 688.0 276.9 687.6 279.8 687.3 283.6 687.1 293.7 687.4 320.7 687.9 344.0 688.5 359.8 689.5 375.4 690.1 382.9 691.7 397.4 692.7 404.6 693.8 411.7 696.6 426.2 700.0 441.2 704.1 456.8 708.7 472.8 713.7 488.8 719.0 504.7 724.6 520.3 730.6 535.4 733.9 542.7 737.3 549.9 741.0 557.0 744.9 563.9 749.0 570.6 757.7 583.9 771.8 603.5 801.6 643.5 811.6 656.6 830.7 681.3 835.1 687.2 839.1 693.2 842.7 699.2 845.9 705.2 848.5 711.3 850.6 717.6 852.2 724.0 853.3 730.6 854.1 737.3 854.6 744.3 855.1 758.7 855.3 789.7 854.9 805.9 854.4 814.1 853.7 822.2 852.6 830.3 851.1 838.3 849.4 846.1 847.2 853.5 844.7 860.6 841.9 867.2 838.7 873.2 835.1 878.5 831.2 883.0 827.0 886.7 822.5 889.5 817.7 891.4 812.8 892.4 807.8 892.5 802.8 891.7 797.9 890.0 793.0 887.4 788.3 884.0 783.7 879.8 779.3 875.0 774.8 869.9 761.5 853.9 757.0 849.0 752.3 844.6 747.4 840.5 742.4 836.9 737.3 833.5 732.1 830.4 721.2 824.6 698.3 813.1 686.6 806.7 680.8 803.1 675.2 799.2 669.7 795.0 664.4 790.4 659.3 785.4 654.3 780.1 649.7 774.5 645.2 768.4 641.0 762.1 637.0 755.4 633.3 748.5 629.8 741.2 626.5 733.7 623.5 726.0 620.6 718.1 604.5 670.7 585.8 618.2 578.1 596.0 570.8 573.8 557.1 529.7 552.2 515.1 549.7 507.8 544.1 493.2 529.4 457.2 523.9 443.0 518.9 429.0 516.8 422.2 513.1 409.1 511.6 402.9 510.5 397.0 509.7 391.3 509.2 385.9 509.0 380.7 509.0 375.7 509.6 366.0 510.9 356.4 512.6 346.7 514.6 337.4 515.6 333.1 517.7 325.7 518.7 322.7 520.6 318.4 521.6 317.0 522.6 315.9 523.6 315.1 524.7 314.5 530.1 312.2 533.0 310.3 534.4 309.1 535.6 307.7 536.5 306.1 537.2 304.2 537.6 301.9 537.6 299.5 537.3 297.0 536.7 294.5 535.9 292.2 534.9 290.0 533.8 288.2 532.5 286.9 531.1 286.1 529.6 285.9 528.3 286.2 527.1 287.1 526.1 288.6 525.5 290.6 525.3 293.2 525.6 296.4 526.4 300.2 527.8 304.5 529.7 309.2 534.4 319.9 545.7 344.4 551.4 357.6 574.3 413.3 580.4 427.6 587.0 441.9 590.5 449.0 594.2 456.1 602.1 470.3 610.4 484.2 619.2 497.8 628.3 511.1 637.6 524.0 647.2 536.4 657.1 548.1 667.4 559.2 682.7 574.8 687.4 580.0 691.9 585.2 696.1 590.5 699.8 595.9 702.9 601.6 705.6 607.5 707.7 613.7 709.2 620.1 710.2 626.8 710.5 633.7 710.2 641.1 709.3 648.7 707.7 656.7 705.6 664.9 698.3 691.1 696.0 700.0 694.2 709.0 692.9 718.0"/>
<polyline points="438.8 683.3 432.9 697.4 430.1 704.6 424.9 719.4 415.8 749.6 413.4 756.7 411.0 763.4 408.3 769.6 405.4 775.2 402.2 780.2 398.8 784.5 395.0 788.3 391.0 791.6 386.8 794.6 382.4 797.3 377.9 799.9 368.4 804.7 358.5 809.4 353.4 811.7 343.1 815.7 337.9 817.5 332.7 819.1 327.5 820.5 322.3 821.5 317.1 822.3 311.7 822.8 306.4 822.9 300.9 822.6 295.3 821.9 289.6 820.7 283.8 819.1 277.9 817.0 272.0 814.5 266.1 811.7 260.3 808.5 254.7 804.9 249.2 801.1 244.0 797.1 239.2 792.8 234.7 788.4 230.6 783.7 227.1 778.8 224.2 773.8 222.0 768.5 220.5 763.1 219.9 757.5 220.0 751.8 221.0 745.9 222.7 739.9 225.1 733.9 227.9 728.0 231.2 722.0 234.9 716.2 238.8 710.4 243.0 704.9 251.6 694.1 269.3 672.8 277.7 661.6 285.5 650.0 292.8 638.0 299.8 625.8 309.5 607.1 334.3 556.7 343.2 537.4 348.7 524.1 351.1 517.4 353.4 510.5 355.5 503.6 357.3 496.6 359.0 489.6 360.4 482.7 361.6 475.7 362.5 468.9 363.2 462.2 363.6 455.6 363.9 442.7 363.4 429.9 362.4 417.0 360.5 397.1 359.6 383.4 359.4 376.5 359.6 369.7 360.1 362.9 361.1 356.2 362.5 349.7 364.4 343.3 366.6 337.3 369.0 331.6 371.5 326.5 374.0 321.9 376.4 317.9 378.6 314.8 380.5 312.4 384.2 308.9 384.5 308.4 384.4 307.8 383.7 307.2 372.2 298.7 360.1 290.2 350.8 283.9 340.8 277.7 335.7 274.8 330.6 272.1 325.5 269.8 320.3 267.7 315.3 266.1 310.4 264.9 305.7 264.2 301.2 263.9 297.1 263.9 293.4 264.3 290.3 264.8 287.8 265.6 285.9 266.5 284.9 267.6 284.5 268.7 284.8 270.0 285.7 271.4 287.0 273.0 298.4 283.6 301.1 286.4 303.6 289.5 306.0 292.9 308.1 296.6 309.8 300.8 311.1 305.4 311.9 310.4 312.3 315.8 312.3 321.5 311.0 346.4 310.9 352.9 311.0 359.3 311.4 365.8 312.8 378.6 316.5 404.1 318.7 423.2 320.3 443.1 321.7 471.9 322.7 486.8 323.5 494.1 324.6 501.0 326.1 507.7 328.0 513.9 330.3 519.5 333.1 524.7 336.3 529.5 339.7 534.0 343.4 538.2 355.0 550.5 362.7 559.0 370.2 568.2 373.8 573.2 377.4 578.4 380.9 584.0 384.4 589.8 387.7 596.1 391.0 602.7 397.3 616.3 402.8 630.1 405.3 636.8 409.5 649.6 411.2 655.5 412.5 661.0 413.3 666.0 413.7 670.6 413.6 674.5 412.8 677.9 411.5 680.6 409.4 682.7 406.8 684.0 403.8 684.5 400.6 684.3 397.2 683.2 393.9 681.3 390.8 678.4 387.9 674.7 385.5 670.0 383.5 664.4 381.9 658.2 380.5 651.4 379.5 644.1 378.6 636.4 376.8 612.7 375.6 589.1 373.6 542.0 373.0 518.6 372.9 503.1 373.0 495.4 375.1 449.7 375.3 434.4 374.8 418.8 373.1 386.9 372.9 370.4 373.1 362.1 373.6 353.8 374.3 345.6 375.4 337.5 376.8 329.7 378.4 322.2 380.4 315.2 382.8 308.6 385.5 302.7 388.5 297.3 391.8 292.7 395.3 288.8 398.9 285.7 402.7 283.5 406.5 282.1 410.4 281.7 414.2 282.2 418.0 283.7 421.6 286.0 425.0 289.2 428.1 293.3 430.9 298.1 433.3 303.6 435.3 309.9 436.7 316.7 437.7 324.1 438.4 332.0 438.6 340.2 438.6 348.7 438.3 357.3 437.3 374.7 435.8 391.7 433.9 408.3 431.6 424.6 428.9 440.7 427.3 448.6 417.2 495.7 415.8 503.5 413.3 519.0 410.3 542.4 404.7 598.3 401.9 622.8 398.8 647.3 395.2 671.7 388.6 713.0 385.7 729.7 384.1 738.0 380.5 754.5 378.4 762.5 376.1 770.5 373.6 778.3 371.0 786.0 368.1 793.6 362.0 808.4 355.4 822.8 348.2 836.7 340.6 850.1 336.6 856.5 332.5 862.7 328.2 868.8 323.8 874.6 319.2 880.2 314.5 885.5 309.7 890.5 304.8 895.1 299.9 899.3 295.0 903.0 290.1 906.1 285.3 908.7 280.6 910.7 276.1 912.0 271.7 912.7 267.7 912.8 263.9 912.1 260.4 910.8 257.4 908.8 254.8 906.1 252.7 902.7 251.1 898.7 250.0 894.0 249.2 888.9 248.9 883.3 249.0 877.4 249.4 871.1 250.1 864.7 251.2 858.0 252.5 851.3 254.1 844.3 257.8 830.0 265.9 799.9 269.6 784.3 271.1 776.5 272.2 768.8 272.9 761.2 273.1 753.7 272.6 746.4 271.6 739.4 269.8 732.6 267.6 726.1 264.8 719.8 261.7 713.7 258.2 707.8 254.4 702.2 250.5 696.8 234.1 676.7 230.3 671.6 226.6 666.4 223.3 661.0 220.3 655.3 217.8 649.3 215.7 642.9 214.0 636.3 212.6 629.5 211.6 622.6 210.9 615.7 210.6 608.7 210.5 601.8 210.6 595.0 212.0 569.8 212.3 558.7 212.1 553.6 211.5 548.8 210.6 544.3 209.5 539.9 208.1 535.6 196.5 506.0 189.9 487.6 185.7 475.0 182.0 462.9 172.0 429.3 159.0 389.4 155.8 378.0 150.2 353.0 149.2 349.6 148.2 346.9 147.1 345.1 145.9 344.3 144.5 344.4 143.1 345.2 141.6 346.6 140.1 348.6 137.0 353.3 128.8 366.7 127.3 369.2 127.0 370.2 128.6 368.2 131.2 364.7 148.4 340.1 154.5 332.0 157.4 328.3 163.2 321.9 165.8 319.3 168.4 317.3 170.8 316.0 173.1 315.3 175.2 315.3 177.0 316.2 178.7 318.0 180.2 320.5 181.6 323.7 182.8 327.5 184.0 331.8 190.8 361.2 200.0 396.5 201.3 403.2 202.3 410.9 202.7 415.4 203.1 425.5 203.3 436.9 203.0 449.0 202.3 461.4 200.7 480.3 195.8 527.8 194.2 542.0 192.2 556.0 189.8 569.5 186.7 582.5 184.9 588.9 182.9 595.2 180.6 601.6 178.1 608.1 175.3 614.7 168.8 628.3 165.2 635.1 161.4 641.9 157.4 648.5 153.3 654.9 149.1 661.1 144.9 666.9 140.6 672.3 136.3 677.3 124.1 691.2 120.3 695.6 116.7 700.1 113.4 704.8 110.4 709.6 107.8 714.6 105.6 719.6 104.0 724.7 102.9 729.7 102.4 734.6 102.7 739.2 103.8 743.6 105.8 747.7 108.4 751.3 111.7 754.4 115.4 756.9 119.4 758.7 123.7 759.6 128.0 759.6 132.2 758.6 136.2 756.5 140.1 753.5 143.8 749.5 147.4 744.9 150.8 739.6 154.2 733.9 157.6 727.8 167.5 708.7 186.3 670.9 200.2 642.3 208.2 624.7 216.3 605.4 224.2 585.2 229.0 571.6 233.3 558.2 237.2 545.0 249.5 499.1 255.3 478.9 259.7 465.1 269.3 437.4 273.1 425.3 274.4 420.0 275.1 415.4 275.3 411.6 274.9 408.5 274.0 406.0 272.7 404.0 271.0 402.5 269.0 401.3 266.8 400.4 261.9 399.0 256.7 398.0 254.1 397.6 249.2 397.3 245.0 397.6 243.3 398.0 241.7 398.7 240.3 399.5 239.0 400.7 237.7 402.1 235.2 406.1 232.2 411.7 228.8 418.8 225.0 427.2 221.1 436.5 215.4 451.3 213.7 456.1 212.4 460.8 211.4 465.2 211.0 469.1 211.0 472.6 211.7 475.4 213.1 477.6 215.1 479.2 217.7 480.2 220.9 480.7 224.5 480.7 228.5 480.3 232.8 479.7 242.3 477.6 252.3 474.9 262.5 471.5 272.4 467.6 281.4 463.3 285.5 461.0 289.4 458.5 292.9 455.8 296.2 452.9 299.1 449.6 301.8 446.0 304.1 442.0 306.1 437.6 307.7 432.9 309.1 428.2 310.2 423.6 313.1 409.9 313.3 410.0 313.4 411.2 313.4 419.3 313.0 443.0 312.3 459.9 311.4 471.4 310.8 476.9 310.0 482.5 308.0 493.4 305.5 504.7 302.6 516.5 299.2 529.2 293.3 549.4 286.8 570.2 282.2 584.0 277.3 597.6 274.6 604.3 268.9 617.7 265.7 624.3 262.3 630.9 258.8 637.4 251.2 650.2 242.9 662.9 238.7 669.2 229.8 681.7 216.0 700.1 188.8 735.5 184.7 741.2 180.8 746.9 177.3 752.7 174.1 758.5 171.3 764.4 169.1 770.4 167.4 776.5 166.1 782.8 165.3 789.2 164.9 795.7 164.7 809.2 165.5 837.8 166.1 852.6 167.3 867.4 168.1 874.6 169.2 881.8 170.5 888.7 172.1 895.4 173.9 901.7 176.1 907.4 178.6 912.6 181.3 917.1 184.5 920.8 187.9 923.5 191.7 925.2 195.8 925.9 200.1 925.7 204.6 924.7 209.2 922.8 213.8 920.3 218.5 917.2 223.1 913.4 227.5 909.2 231.9 904.6 249.0 884.7 253.4 880.0 257.9 875.6 262.6 871.6 267.3 868.0 272.2 864.8 277.2 861.8 282.2 859.1 308.2 846.4 318.7 840.7 323.9 837.5 329.2 834.0 334.4 830.1 339.7 825.8 344.9 821.0 350.1 815.8 355.2 810.3 360.2 804.4 365.0 798.2 369.6 791.7 374.0 785.1 378.1 778.4 381.8 771.6 385.3 764.7 388.5 757.7 391.5 750.7 397.0 736.4 407.5 707.3 420.4 670.1 430.3 640.4 439.5 610.7 452.7 565.9 457.4 551.1 459.9 543.7 465.3 529.1 482.1 486.3 487.2 472.3 489.4 465.3 491.5 458.2 493.4 451.2 495.0 444.0 496.4 436.7 497.4 429.3 498.1 421.7 498.4 414.0 498.5 406.4 498.1 398.9 497.4 391.5 496.4 384.4 495.1 377.6 493.4 371.2 491.4 365.4 489.1 360.1 486.5 355.5 483.9 351.5 481.1 348.3 478.2 345.9 475.4 344.4 472.7 343.7 470.1 344.1 467.5 345.2 465.2 347.1 462.8 349.6 460.6 352.5 458.5 355.8 454.4 362.9 450.5 370.0 447.4 376.6 446.4 379.6 445.7 382.3 445.6 384.7 446.0 386.7 447.1 388.3 448.7 389.5 450.7 390.6 457.8 393.5 460.2 394.9 462.3 396.5 464.1 398.6 465.6 401.2 466.7 404.1 467.4 407.4 467.6 410.9 467.4 414.8 466.8 418.9 465.7 423.2 464.2 427.7 462.2 432.4 459.8 437.2 457.2 442.1 451.2 452.3 438.1 473.2 431.6 484.0 425.2 495.3 422.1 501.3 416.2 513.8 401.8 547.3 395.6 560.5 392.2 566.8 385.0 578.9 377.3 590.6 348.7 631.2 336.2 648.1 332.0 653.5 323.8 663.7 319.7 668.6 311.5 677.8 299.3 690.5 275.9 713.6 268.5 721.5 265.0 725.6 258.3 734.3 255.1 739.0 252.0 743.8 249.1 748.8 246.4 754.0 243.9 759.5"/>
</g>
</svg>