<svg xmlns="http://www.w3.org/2000/svg" height="26.45834cm" viewBox="0 0 1000 1000" width="26.45834cm">

<polyline fill="none" stroke="#00f" points="703.0 709.5 711.5 653.5 711.0 633.5 706.5 616.0 701.5 603.5 682.5 569.5 659.5 534.5 635.5 501.0 622.5 481.5 614.0 468.2 599.5 440.5 573.5 372.0 530.5 279.8 528.0 272.8 528.0 271.5 529.0 271.8 539.5 282.5 544.5 289.8 545.5 293.5 544.0 295.5 541.0 296.8 528.5 297.5 522.0 300.5 517.5 305.2 508.2 322.8 502.2 341.2 498.5 361.8 497.0 382.8 498.8 403.5 503.2 423.2 513.0 449.0 543.0 516.5 570.5 596.5 593.0 656.0 617.0 714.5 631.5 742.5 636.0 749.5 651.0 768.5 662.0 780.0 673.0 789.5 684.5 797.0 696.0 803.0 734.5 818.5 744.5 824.0 750.0 827.5 764.5 839.5 787.5 866.5 802.0 880.0 812.0 885.5 816.5 887.0 821.0 888.0 825.5 888.0 829.0 887.0 832.5 884.5 835.0 881.5 840.0 866.5 847.0 822.5 853.0 790.5 855.0 774.5 856.0 742.0 852.0 719.0 849.5 711.5 838.5 690.5 805.5 645.0 753.0 563.0 734.5 527.5 728.5 513.0 718.5 482.2 710.5 449.0 698.5 386.8 697.0 364.8 697.0 350.0 699.5 316.2 699.5 301.0 698.5 291.5 697.5 288.5 702.5 298.5 709.5 305.5 716.5 309.3 729.5 312.7 750.5 314.7 779.5 314.7 806.0 315.7 810.5 315.0 812.0 314.0 813.0 312.7 812.5 308.5 807.5 300.2 801.5 293.5 794.5 286.8 786.5 280.5 782.5 278.0 774.5 275.0 771.0 274.5 765.0 276.2 762.0 278.2 742.5 300.8 730.0 313.7 722.5 324.2 719.5 332.0 717.5 341.0 719.5 363.2 734.5 415.0 746.0 462.2 760.0 515.0 779.5 573.5 791.5 601.0 839.0 681.5 853.0 702.5 864.5 714.0 872.0 718.5 879.0 720.0 886.0 718.5 889.0 717.0 895.5 711.0 896.5 709.0 896.5 706.0 894.5 702.5 887.5 697.5 875.0 685.5 867.5 677.5 856.0 663.0 841.0 640.5 834.0 628.0 822.5 601.5 813.5 573.0 800.0 518.0 789.0 460.0 786.0 435.8 783.5 396.8 784.0 359.5 786.0 330.8 793.5 274.0 802.5 222.4 808.0 205.0 810.5 200.9 816.5 196.1 819.5 195.1 826.5 195.6 838.0 200.6 852.0 211.8 857.5 218.9 862.0 227.0 865.0 236.0 865.5 240.6 865.5 260.2 863.5 269.8 860.5 278.5 850.5 301.2 848.0 332.8 845.0 354.0 842.0 368.8 818.5 445.5 803.0 501.8 788.5 549.0 785.5 561.0 783.0 578.5 783.5 596.5 787.5 633.0 787.0 644.5 785.0 661.0 781.5 671.5 776.5 681.0 750.0 716.5 744.5 726.5 739.5 742.5 739.0 754.0 741.0 766.0 745.0 778.5 762.5 822.0 766.5 833.5 769.5 845.5 771.5 866.5 769.5 875.0 766.0 882.0 760.0 887.0 752.5 889.5 748.0 890.0 739.0 888.5 729.0 885.0 719.0 879.0 703.0 866.0 693.0 855.5 683.5 844.0 665.5 819.0 650.0 792.0 640.0 771.0 629.5 740.0 623.5 715.0 605.0 615.5 590.0 511.5 585.5 489.0 567.5 422.2 563.0 400.8 558.0 365.5 556.5 338.2 559.0 320.5 563.5 310.8 569.0 303.2 576.0 298.0 579.5 296.8 587.0 296.2 595.0 299.0 602.5 304.8 605.5 308.5 609.0 313.0 614.5 323.5 618.5 335.8 621.5 349.8 622.5 357.0 624.0 388.5 623.5 438.0 630.5 533.5 631.5 640.0 631.5 656.5 630.0 679.0 627.0 691.0 622.5 699.5 619.5 702.5 613.5 706.0 608.0 706.5 604.0 704.0 602.0 699.0 602.0 691.5 607.5 665.0 616.5 639.5 631.0 609.5 637.5 598.5 662.0 565.0 668.0 554.5 672.5 542.5 675.5 529.0 677.0 506.2 678.0 458.5 684.0 372.8 683.5 349.5 680.5 320.0 681.0 299.5 683.5 287.2 687.5 275.8 697.5 254.6 704.5 235.2 704.5 222.1 703.5 218.0 701.5 214.2 695.0 207.5 687.0 202.4 677.0 199.8 672.0 199.5 661.5 201.4 656.5 203.2 623.0 221.8 612.5 226.4 609.5 227.0 605.5 226.4 604.0 223.2 604.5 219.1 607.0 215.9 609.0 215.1 613.5 216.5 616.5 218.8 622.5 225.9 630.0 241.4 633.0 253.6 634.5 266.5 633.5 316.7 635.5 341.2 638.5 363.0 647.5 403.5 655.0 427.5 664.0 450.8 697.5 524.5 717.0 560.0 725.5 573.5 739.5 592.5 759.5 615.0 774.0 633.0 786.5 653.0 792.5 667.0 795.5 681.0 795.5 695.0 792.0 708.0 789.0 714.5 781.5 726.5 777.0 732.0 766.5 742.0 755.0 750.5 743.0 757.5 730.5 763.0 706.5 769.0 689.0 769.5 671.5 767.0 654.0 762.5 637.5 756.5 612.5 744.5 604.5 737.5 600.5 733.0 597.5 728.0 594.5 722.0 589.5 708.0 580.5 675.5 570.0 644.5 553.5 609.0"/>
<polyline fill="none" stroke="#00f" points="235.9 746.5 241.9 734.5 248.8 724.0 260.5 711.0 269.5 704.5 309.5 684.5 329.0 671.0 347.0 653.0 355.5 643.0 367.8 626.5 388.0 597.0 403.0 572.0 430.8 514.5 462.0 461.5 468.8 446.5 471.0 437.5 471.2 433.2 469.2 422.5 464.5 414.2 455.0 403.0 454.2 399.5 455.2 392.5 465.0 369.0 467.8 364.5 470.8 361.5 474.0 361.0 477.2 363.2 480.5 367.8 484.8 378.0 488.2 396.5 488.5 407.8 487.5 419.8 481.5 447.2 474.5 469.5 458.0 514.5 448.0 545.0 430.2 613.5 389.5 750.5 381.0 773.0 374.5 787.0 363.0 806.0 349.5 822.0 334.0 835.0 312.0 849.0 295.2 858.5 274.5 873.5 265.0 882.5 256.0 892.5 243.8 909.0 231.5 923.5 222.9 930.0 213.9 934.0 205.1 934.5 201.0 933.5 197.2 932.0 194.0 929.5 188.6 922.5 186.5 918.0 181.2 901.0 171.1 858.0 166.1 834.5 162.6 810.5 162.1 787.0 164.4 772.5 166.4 765.5 172.6 752.0 180.6 739.5 207.1 704.0 234.0 660.5 257.2 619.0 272.5 586.0 281.5 559.5 287.2 538.5 299.0 486.5 301.8 470.2 302.8 455.0 302.0 422.8 302.8 419.2 304.0 418.0 305.2 421.5 305.0 431.0 302.8 444.2 297.8 457.8 289.8 469.2 282.8 475.5 274.5 480.2 265.0 483.5 249.6 485.2 234.5 483.8 225.5 481.2 214.6 475.0 209.8 468.8 207.1 461.2 207.5 447.2 212.0 431.8 216.9 421.5 225.9 408.0 232.0 401.0 237.8 396.8 242.5 395.5 246.6 396.5 257.2 402.0 272.2 406.2 276.2 408.2 279.0 411.5 280.5 416.0 280.8 422.2 277.8 436.2 261.8 488.2 248.4 542.5 235.0 588.5 223.8 620.5 215.2 639.0 167.9 722.5 157.6 738.0 146.9 750.5 139.4 755.0 135.6 756.0 128.1 754.5 124.6 753.0 118.2 748.0 113.4 741.5 111.1 735.0 111.1 729.0 113.4 723.0 139.4 685.5 157.8 656.5 164.8 644.5 173.9 626.0 181.1 607.5 188.9 582.0 197.5 547.5 211.0 482.0 214.2 456.0 214.9 439.0 214.4 424.0 211.5 398.2 194.4 326.5 191.1 320.5 187.1 318.2 184.6 318.5 179.1 321.0 146.0 346.8 142.0 350.5 139.4 354.2 137.4 360.5 139.1 365.2 141.2 366.5 142.2 364.8 141.4 359.5 140.3 358.5 139.8 363.5 141.6 377.5 145.9 390.8 150.0 400.0 197.1 492.2 215.6 525.0 220.8 536.5 224.2 548.5 225.8 562.0 225.5 576.0 219.5 632.5 218.9 648.5 219.9 663.5 223.0 676.5 228.4 688.0 234.9 698.0 251.0 718.5 255.6 726.5 258.8 735.5 260.2 745.5 259.0 764.5 256.5 779.0 243.0 834.0 239.5 857.5 239.5 872.0 241.8 886.0 245.9 898.0 251.9 908.5 259.5 916.5 268.2 922.0 278.0 924.5 288.2 924.0 293.5 922.5 304.0 917.0 314.0 909.0 323.2 898.5 331.5 886.0 338.5 873.0 344.8 858.5 350.2 843.0 368.8 784.0 378.0 750.0 381.5 734.0 387.0 702.0 391.5 668.0 404.8 523.5 419.8 427.5 423.5 387.5 426.8 332.2 425.0 310.3 421.8 297.2 416.5 286.2 410.2 278.2 406.5 275.5 402.5 274.2 394.2 275.2 385.8 280.8 377.7 290.0 374.0 296.0 367.8 310.0 363.5 326.2 360.5 343.5 358.8 369.8 362.5 431.2 363.8 506.0 367.0 553.0 374.8 641.0 378.5 662.0 382.8 673.5 388.2 681.5 395.0 686.5 398.2 687.5 401.8 687.5 404.8 686.5 410.0 681.5 413.5 673.0 415.2 661.5 415.0 648.0 410.5 625.5 408.2 618.0 402.0 603.0 394.8 589.5 386.2 578.0 372.3 564.5 347.2 546.5 332.8 534.5 324.5 524.5 318.2 513.0 314.5 498.2 312.3 482.2 310.8 450.0 308.0 416.2 300.0 361.5 299.2 344.2 300.5 312.3 299.5 306.2 297.5 301.5 288.0 289.0 287.8 286.2 288.5 284.8 294.5 280.0 305.5 275.8 314.7 273.8 329.8 273.0 345.2 275.0 363.5 280.2 376.7 286.8 381.5 291.8 382.0 293.2 381.2 296.8 372.5 313.2 369.5 322.2 367.2 332.8 366.0 344.5 366.0 357.2 374.5 420.8 375.0 436.0 373.5 467.0 370.3 490.5 366.8 506.0 360.2 528.0 348.5 554.0 301.5 643.0 290.5 660.5 282.2 671.5 247.4 706.0 238.6 716.5 232.0 728.0 227.6 740.0 225.4 752.0 225.5 763.5 227.9 773.5 232.4 782.5 235.2 786.5 242.4 794.0 251.0 801.0 260.8 807.0 271.0 812.0 281.8 816.0 292.2 818.0 307.5 819.0 344.8 815.0 361.8 812.0 373.0 809.0 378.5 807.5 389.0 803.0 394.0 800.5 403.2 793.0 411.0 783.0 414.2 776.5 419.5 762.0 430.2 721.0 437.5 698.5 446.0 677.5 452.5 664.5"/>
<polyline fill="none" stroke="#00f" points="701.0 709.5 705.0 684.0 710.0 659.5 711.5 645.0 709.5 626.0 706.0 614.0 701.0 602.0 694.0 589.0 681.5 569.5 652.5 530.0 625.0 490.5 612.0 470.5 604.5 456.8 594.0 435.2 579.5 397.5 561.5 354.0 532.5 292.0 527.5 278.5 528.0 275.2 531.5 277.0 540.5 288.0 543.0 294.8 542.5 298.0 537.0 300.8 525.5 302.5 521.5 305.0 516.0 312.7 511.8 321.5 506.2 337.8 502.0 356.2 500.0 382.2 500.8 395.2 502.8 408.5 508.2 427.8 513.0 441.0 539.5 502.0 548.0 523.5 575.0 604.0 591.5 648.5 618.0 715.5 624.5 730.0 632.0 744.0 645.5 764.0 650.5 770.0 661.0 781.5 672.0 791.0 689.5 802.0 700.5 807.5 734.0 821.5 749.0 830.5 759.0 838.5 768.5 848.5 786.5 870.0 796.0 879.0 801.0 882.5 811.0 887.5 816.0 888.5 820.5 889.0 828.5 887.0 832.0 884.5 835.0 880.5 839.5 871.0 843.0 858.5 845.5 844.0 854.5 780.5 856.0 748.5 853.5 726.0 849.0 711.5 846.0 704.5 838.5 691.0 797.0 633.5 752.0 565.0 733.5 529.5 727.5 514.5 715.0 475.8 707.0 442.8 699.0 404.0 696.0 382.0 695.0 367.5 696.5 317.2 696.5 300.8 695.5 285.0 701.0 294.5 705.5 299.2 711.5 303.2 728.0 308.5 749.5 311.8 772.5 314.0 807.5 319.2 811.0 318.2 811.5 316.7 810.0 310.3 797.5 294.0 786.5 284.5 779.0 279.8 775.5 278.5 772.5 277.8 766.5 278.8 759.0 284.8 735.5 309.3 729.5 316.0 725.0 323.0 721.0 330.8 719.0 339.8 718.5 350.0 720.5 362.0 726.0 383.0 736.0 414.0 759.5 506.0 773.5 550.5 781.5 572.0 790.5 593.0 800.5 613.0 843.0 687.0 857.5 707.5 865.0 715.5 872.5 720.5 876.5 722.0 884.0 722.0 893.5 718.0 897.5 713.5 898.5 711.0 899.0 709.0 898.0 705.0 894.5 701.0 876.0 684.5 860.5 667.5 852.5 657.0 834.0 626.5 822.0 599.5 813.0 571.0 800.5 516.0 794.5 483.2 788.0 434.2 786.0 387.2 788.5 337.0 791.5 309.5 798.0 266.5 803.0 236.4 807.5 215.2 813.5 200.0 816.5 196.9 822.5 193.6 829.5 193.8 833.0 194.9 844.5 201.5 851.5 208.0 857.5 215.6 863.0 224.2 865.0 228.9 868.5 243.1 868.5 262.2 865.0 275.0 854.5 297.8 853.0 303.5 850.0 341.2 847.0 362.5 841.0 383.5 824.0 431.0 803.0 500.0 783.0 559.5 780.5 571.5 780.0 590.5 786.0 647.5 785.0 664.5 782.0 675.5 777.5 685.0 775.0 689.5 752.0 719.5 747.0 728.5 743.5 738.0 742.5 743.0 742.0 748.5 743.0 759.5 746.0 771.5 765.5 821.5 772.5 845.5 773.5 857.0 773.0 867.5 770.5 877.0 766.0 884.5 763.5 887.5 760.0 890.0 752.0 893.0 737.5 893.0 732.5 891.5 722.0 886.5 711.5 879.0 701.5 870.0 691.5 859.0 682.5 847.5 665.5 821.5 654.5 800.5 641.0 771.0 630.5 739.5 621.0 698.5 605.0 607.5 593.0 519.5 585.5 481.8 573.5 436.5 568.5 414.5 559.5 350.5 559.0 337.0 560.0 324.8 563.0 313.7 565.0 308.8 570.5 300.8 574.0 297.5 581.0 293.5 589.0 293.0 593.0 294.2 601.0 298.8 604.5 302.2 611.5 311.0 617.5 322.0 623.5 341.8 627.0 372.5 626.5 437.8 630.5 493.5 632.5 533.5 632.5 648.5 631.5 672.0 629.5 685.5 628.0 691.0 625.5 696.0 623.0 700.0 620.0 703.0 614.0 707.0 608.5 708.0 604.0 705.5 601.5 700.5 601.5 683.0 605.5 665.5 609.5 652.5 617.5 633.0 623.5 621.0 641.0 594.5 660.0 571.0 667.0 561.0 675.0 543.5 678.0 529.5 679.5 514.0 681.0 449.8 686.5 372.5 686.5 357.2 683.0 307.3 683.5 300.8 687.0 283.0 699.5 252.4 703.5 238.8 703.5 226.1 700.0 218.5 694.0 211.9 685.5 206.6 681.0 204.9 670.5 203.2 660.5 204.4 650.0 207.6 626.5 218.8 615.0 223.2 607.5 224.2 605.0 222.4 605.5 217.4 608.5 214.8 610.5 214.4 615.0 216.4 620.0 222.1 625.0 230.9 630.5 247.5 632.0 259.8 630.5 315.7 632.5 341.5 636.0 364.0 641.0 388.8 653.0 429.5 662.0 452.5 682.0 497.0 700.0 533.5 720.0 568.5 734.0 587.5 769.5 627.5 778.5 640.0 786.0 653.5 791.5 668.0 794.5 682.0 794.0 695.5 790.5 708.5 784.5 720.5 771.5 736.0 760.5 745.0 749.0 752.5 737.0 758.5 725.0 763.0 702.0 767.0 690.0 767.0 678.5 766.0 649.0 760.5 632.0 755.5 621.5 751.5 612.0 746.0 603.5 739.0 596.0 729.0 593.0 722.5 585.5 700.5 576.5 667.0 568.5 643.5 552.0 608.0"/>
<polyline fill="none" stroke="#00f" points="238.5 748.5 244.4 737.0 251.1 726.5 258.5 717.5 266.8 710.0 280.2 701.0 309.0 684.0 318.5 677.0 336.5 660.5 349.5 645.5 362.0 629.0 386.2 594.0 397.8 575.5 407.8 556.0 428.8 511.2 462.8 453.0 468.5 438.5 470.0 429.8 468.8 418.8 464.5 410.5 459.2 404.8 454.5 401.0 452.2 396.2 452.5 392.0 454.0 386.5 465.5 362.2 468.8 358.2 472.5 356.8 474.2 357.0 478.2 359.5 482.0 364.8 485.5 372.0 488.2 381.0 490.0 391.5 491.0 403.0 490.0 422.2 484.0 450.0 477.0 472.0 452.8 539.0 446.0 561.5 427.8 629.5 390.0 750.5 381.2 772.5 374.5 786.5 366.5 799.5 357.8 811.5 348.2 822.0 338.0 831.0 322.0 842.0 289.2 860.5 269.0 875.5 264.2 879.5 255.4 889.5 234.8 915.5 230.5 920.0 221.8 927.0 217.2 929.5 208.2 932.0 199.8 931.5 192.5 928.0 189.4 925.0 186.8 921.0 182.5 911.5 177.4 893.0 168.4 849.0 163.9 818.0 162.6 795.0 163.8 780.5 165.1 773.5 169.8 760.0 176.6 747.5 211.1 700.0 223.1 682.0 247.2 642.5 265.2 608.5 273.8 589.0 280.8 569.0 288.8 541.0 301.0 489.8 304.8 463.0 304.8 423.0 306.2 416.2 307.0 417.2 306.0 432.2 302.5 446.0 298.8 454.8 290.5 466.0 283.5 472.0 275.2 476.8 260.5 481.2 245.1 482.8 230.5 481.8 218.6 478.2 212.8 473.8 209.0 467.8 207.8 459.8 209.9 445.5 215.5 430.2 220.6 420.5 226.1 411.8 234.2 401.8 239.0 398.2 242.9 397.2 271.8 405.2 275.5 407.5 278.2 411.0 279.0 413.5 279.2 419.8 278.0 428.2 260.2 486.0 244.8 546.5 237.1 572.5 226.2 605.5 212.9 637.0 160.2 732.0 149.8 746.5 138.6 755.5 134.8 756.5 127.0 756.0 119.8 752.0 113.8 746.5 109.9 739.5 108.7 733.0 110.0 726.0 113.3 718.5 118.2 711.0 138.6 683.5 157.6 654.5 171.3 629.5 176.9 617.0 185.5 592.0 190.8 572.0 198.4 537.0 208.6 480.0 211.0 460.2 212.0 437.0 211.1 417.2 209.1 400.8 192.5 329.8 189.8 322.5 186.2 318.2 184.1 317.5 179.1 318.5 170.6 324.8 146.2 346.5 137.0 357.2 134.8 363.0 135.2 364.8 137.4 365.8 139.8 364.2 141.4 360.2 142.0 355.0 144.9 376.2 147.5 385.5 153.1 400.2 194.2 490.0 213.8 527.5 218.2 538.5 221.2 549.5 222.4 562.5 221.5 583.5 217.5 630.0 217.6 645.5 219.2 660.0 220.9 666.5 225.8 678.5 235.8 694.0 249.8 711.5 255.5 720.5 260.0 729.5 262.8 740.0 263.5 752.0 261.2 773.0 244.6 842.5 242.0 864.5 242.5 878.5 245.0 891.5 249.2 902.5 252.1 907.0 259.0 914.5 267.2 919.5 271.8 921.0 276.5 921.5 286.5 920.5 291.5 919.0 301.8 913.5 316.5 900.5 325.5 889.5 337.0 870.5 349.8 841.5 361.2 809.5 372.0 776.0 382.2 735.0 390.2 686.0 395.2 643.5 405.8 532.0 408.8 508.8 420.0 445.0 424.2 412.8 428.5 364.0 429.8 332.0 428.8 317.2 426.0 303.5 424.0 297.5 418.8 287.0 412.0 279.5 408.5 277.2 404.5 276.0 396.2 277.2 388.0 282.8 380.2 292.0 376.7 297.8 371.0 311.3 366.8 327.0 364.0 344.0 362.2 369.8 363.0 394.2 366.0 439.5 366.0 507.2 374.3 626.0 377.0 649.0 379.7 662.5 384.0 673.5 389.8 681.5 396.5 686.0 403.0 686.5 406.0 685.5 408.5 683.5 412.5 677.0 414.2 667.0 413.5 648.5 408.8 626.5 400.0 604.5 393.0 591.5 385.0 579.5 371.8 565.5 334.5 534.5 326.8 524.5 323.5 519.0 318.5 506.2 315.7 491.5 314.2 475.5 312.0 430.8 302.8 362.5 302.2 339.0 303.5 318.8 303.2 310.5 301.5 303.8 299.0 298.5 288.2 286.0 287.0 283.2 287.5 280.5 288.8 279.0 293.5 276.2 304.5 272.8 313.7 271.5 328.8 272.2 339.0 274.2 349.0 277.2 362.8 282.8 376.5 290.2 381.8 295.2 382.5 298.2 382.0 299.5 375.2 310.8 370.0 323.2 367.0 334.0 364.5 352.2 365.5 372.0 370.3 407.0 372.0 428.8 372.0 450.8 371.0 465.8 367.8 488.5 364.5 503.5 355.2 532.0 343.2 558.0 307.0 628.0 296.8 646.0 285.2 663.5 272.0 679.5 242.9 709.5 235.0 721.0 229.1 732.5 225.4 744.5 223.9 756.5 225.0 767.0 228.5 777.0 231.0 781.5 237.6 790.0 250.5 801.0 260.5 807.5 276.8 815.0 293.0 819.0 308.5 820.0 324.0 818.5 351.2 813.5 373.0 807.5 388.5 801.0 397.8 795.0 402.2 791.0 406.0 786.5 412.8 775.0 418.0 760.5 429.0 720.5 436.2 698.0 451.5 664.0"/>
<polyline fill="none" stroke="#00f" points="698.5 709.0 710.5 651.0 711.0 643.5 710.5 630.0 708.0 617.5 706.0 611.5 700.5 600.0 693.5 588.0 675.5 563.5 655.5 538.5 623.0 493.0 610.0 472.8 598.5 451.8 591.5 437.5 565.0 371.3 531.0 296.2 528.0 288.0 527.0 280.8 528.0 278.8 530.5 279.2 535.0 283.8 540.5 293.5 541.0 299.8 538.0 303.2 526.0 306.2 521.5 309.5 516.5 317.0 509.8 335.2 504.8 358.0 503.0 375.7 504.5 400.2 509.0 419.5 518.5 446.0 545.0 508.8 579.5 611.0 610.0 693.5 625.0 731.0 636.5 752.5 645.5 765.5 655.5 777.5 666.0 787.5 677.0 796.5 694.0 806.5 733.0 824.5 743.5 830.5 753.5 837.5 758.5 842.0 785.5 873.0 795.0 881.5 805.0 887.5 815.0 890.0 824.0 888.5 828.0 887.0 835.0 880.0 840.5 869.5 844.5 856.5 847.5 842.0 851.0 818.5 853.5 794.0 855.5 762.5 855.0 739.5 853.0 725.5 849.0 711.5 846.0 705.0 834.5 685.5 792.0 628.0 751.0 567.0 743.0 553.0 732.5 531.5 721.0 501.2 711.5 469.2 703.5 436.8 698.5 414.0 695.0 392.0 693.5 377.5 693.0 362.5 693.0 281.8 694.5 282.2 698.0 287.8 704.5 295.0 710.5 299.0 718.0 302.0 727.0 304.5 782.0 316.0 800.0 321.5 806.5 322.8 810.0 322.2 810.0 317.2 802.5 305.0 793.5 294.5 786.5 288.2 780.0 283.5 774.0 281.0 771.0 280.8 766.0 282.2 758.5 288.0 738.0 308.0 732.0 314.7 724.5 325.5 721.5 333.8 720.0 343.2 719.5 348.8 721.0 360.8 724.5 374.5 744.0 436.5 761.0 504.5 778.0 556.0 789.5 585.0 802.5 611.5 830.0 662.0 847.5 692.5 858.5 708.5 869.5 720.5 873.5 723.0 877.5 724.5 885.0 725.0 892.0 722.5 897.5 718.5 899.5 716.0 901.0 711.0 900.0 706.0 896.5 701.0 881.0 687.0 865.5 671.5 857.0 661.5 849.0 650.5 841.0 638.0 834.0 625.0 827.5 611.5 819.0 590.5 809.0 554.0 802.5 522.5 792.5 457.0 789.5 425.0 789.0 378.0 791.5 336.0 799.0 281.2 807.5 228.4 810.5 214.6 814.5 203.4 819.5 195.8 822.5 193.5 825.5 192.1 832.5 191.9 840.0 194.8 843.5 197.1 851.0 203.5 857.5 211.6 865.5 225.8 869.5 235.8 871.5 245.6 871.5 264.0 867.0 279.0 857.0 297.0 855.0 307.3 854.5 324.8 852.5 349.8 850.0 363.5 844.0 383.8 828.0 423.0 800.5 505.2 785.0 545.5 778.0 570.5 777.0 577.0 777.0 597.0 784.0 644.0 785.0 656.5 785.0 668.5 783.0 679.0 781.0 684.5 776.0 693.5 770.0 702.5 760.0 714.5 751.5 726.5 747.5 735.0 745.5 744.0 745.0 749.0 746.0 759.5 749.0 771.0 768.5 821.0 774.0 839.5 776.0 851.5 775.0 868.5 772.0 878.5 769.5 883.0 763.5 890.0 755.5 895.0 746.5 897.0 736.5 897.0 726.0 893.5 715.0 887.5 699.5 874.0 690.0 863.0 681.0 850.5 673.0 837.5 662.0 816.5 642.0 771.0 631.5 739.5 623.5 707.0 610.0 632.5 593.5 512.5 589.0 489.8 572.5 421.5 563.0 356.2 561.5 335.8 563.5 317.5 567.0 306.8 572.0 298.2 578.5 292.2 586.5 289.8 594.5 291.0 603.0 296.0 607.0 299.8 614.5 309.0 620.5 320.5 623.0 327.0 628.0 348.8 630.0 364.2 630.5 405.0 629.5 437.5 630.5 461.5 634.0 509.2 633.0 664.5 631.5 679.0 628.5 691.0 624.0 700.5 621.0 704.0 615.0 708.5 612.0 709.5 606.5 709.0 602.5 705.0 601.0 702.0 600.0 694.0 600.0 684.0 603.5 665.5 610.0 646.0 619.0 627.0 629.5 610.5 665.5 567.5 675.0 550.5 677.5 544.0 679.0 537.0 680.5 529.5 682.0 513.5 683.5 448.5 689.0 372.5 689.0 357.5 686.0 314.7 686.0 302.0 687.5 290.2 692.0 274.2 702.0 246.4 703.0 238.1 703.0 234.1 701.0 226.4 696.0 219.4 688.5 213.4 679.5 209.0 669.5 206.9 664.0 206.9 648.5 209.6 614.5 221.2 609.0 221.9 606.0 220.9 605.5 219.8 606.0 216.9 608.0 214.4 609.5 213.8 611.5 213.6 616.0 216.2 620.5 222.2 622.5 226.4 628.0 241.8 630.0 259.2 627.5 296.5 627.5 315.0 629.0 334.8 635.0 373.5 643.0 407.2 648.0 423.8 660.0 454.2 670.0 476.2 684.0 506.0 706.5 549.5 719.0 569.5 728.0 582.0 738.0 594.0 769.5 628.0 782.5 647.5 791.0 668.5 792.5 676.0 793.5 689.5 791.5 702.5 789.5 708.5 783.5 720.0 779.5 725.5 775.5 730.5 766.0 739.5 755.0 747.5 744.0 754.0 732.0 759.0 720.5 762.5 703.0 764.5 667.5 763.0 643.5 759.5 626.5 755.0 621.5 753.0 616.0 750.5 607.0 744.0 598.5 735.5 595.0 730.0 589.0 716.5 570.0 650.5 561.0 628.5 551.0 607.5"/>
<polyline fill="none" stroke="#00f" points="241.1 750.5 246.9 739.0 253.5 729.0 268.5 712.5 281.2 702.5 308.5 683.5 330.8 663.0 343.5 648.0 360.2 626.0 384.8 591.0 395.8 572.5 405.8 553.0 426.5 508.0 439.0 485.8 458.0 454.5 467.2 434.8 469.2 422.2 467.2 411.8 462.5 404.2 451.8 396.2 450.0 391.0 450.8 386.0 453.0 380.2 462.8 360.8 466.5 355.8 470.5 352.8 474.8 352.8 479.2 355.8 483.5 361.8 487.5 369.8 491.8 385.5 493.5 404.2 492.5 424.5 486.5 452.8 477.0 481.8 460.2 525.5 452.8 548.0 436.0 608.0 422.5 653.0 398.2 728.0 387.8 758.0 378.0 779.5 366.0 799.0 357.0 811.0 342.0 826.5 321.0 841.5 278.2 865.5 273.2 869.0 263.8 877.0 254.7 886.0 233.8 912.0 225.1 920.5 216.1 926.5 211.5 928.5 202.6 930.0 198.4 929.5 194.5 928.5 190.9 926.5 187.8 923.5 182.5 915.0 178.4 904.5 173.6 884.5 167.5 847.5 163.6 810.0 163.8 788.0 165.9 774.5 170.3 761.5 176.9 749.0 223.8 684.0 252.5 638.5 263.2 618.5 272.2 598.5 284.2 565.0 292.2 537.0 303.0 492.8 307.0 465.8 307.5 426.5 309.0 414.8 306.5 434.0 303.8 443.2 299.8 451.8 294.5 459.2 288.0 465.5 275.8 473.0 261.2 478.0 245.9 480.8 231.4 481.2 219.4 479.0 213.5 475.5 209.9 470.2 208.9 463.0 209.1 458.5 211.1 449.0 216.8 434.0 223.9 419.8 233.6 405.0 239.5 399.8 242.9 398.5 262.0 401.2 271.5 404.2 276.2 408.8 277.2 411.0 278.0 417.0 275.5 430.8 258.5 483.5 241.0 550.5 230.9 583.5 221.2 610.0 207.5 641.0 169.4 712.5 155.9 736.0 145.4 750.0 137.9 755.5 129.9 757.5 122.0 756.0 118.3 754.0 112.0 748.0 107.9 741.0 106.6 733.5 108.0 725.5 113.9 713.0 119.7 704.5 137.9 681.5 153.8 659.0 164.9 640.0 177.2 614.0 186.0 588.5 190.9 569.0 197.5 534.0 206.1 478.0 208.2 458.5 209.0 440.8 208.5 419.8 206.8 403.0 204.6 392.0 188.0 325.2 185.0 319.2 183.1 317.5 178.9 316.7 176.4 317.7 171.0 321.2 165.1 326.5 149.8 342.2 135.9 358.5 132.1 365.2 133.2 366.2 135.9 364.8 138.8 360.8 142.2 352.2 143.2 351.2 143.6 351.8 149.2 379.7 156.4 400.5 191.6 487.2 213.9 535.0 217.1 545.5 219.0 563.0 215.6 620.0 216.4 642.5 218.8 656.5 223.1 669.0 226.0 674.5 236.5 690.0 244.1 699.0 254.6 713.5 260.2 723.0 264.2 734.0 266.5 746.0 266.8 752.5 264.5 774.0 259.5 797.0 249.5 835.5 246.4 850.5 244.8 864.5 244.6 878.0 246.4 890.5 249.9 901.0 255.1 909.5 262.0 915.0 266.0 917.0 275.0 918.5 284.5 917.0 289.5 915.5 299.5 910.0 314.2 897.0 327.8 880.5 335.5 868.0 342.8 854.0 358.5 817.0 370.0 785.0 377.2 760.5 384.5 728.0 392.2 678.5 400.0 612.0 408.5 525.0 413.2 494.0 422.5 446.2 428.0 406.0 432.5 348.0 432.2 324.5 430.2 310.0 428.5 303.5 423.8 292.2 417.5 283.8 410.2 279.0 406.5 278.0 402.5 278.0 394.5 281.5 386.8 288.8 379.7 299.2 376.7 305.8 372.0 320.0 368.5 336.0 367.5 344.5 365.8 370.0 366.5 394.5 369.0 432.8 368.2 508.5 375.5 627.0 377.0 642.5 381.0 663.5 385.2 674.0 388.0 678.0 394.5 684.0 401.0 686.0 407.0 684.5 409.5 682.5 412.8 676.0 414.0 666.5 413.2 655.0 409.0 635.0 404.2 620.5 398.2 606.5 387.5 586.5 375.5 571.0 367.0 562.0 344.8 542.5 336.2 534.0 328.8 524.5 323.2 513.5 321.0 506.8 318.2 492.2 314.0 426.0 306.2 369.8 305.0 351.2 306.5 317.7 305.8 308.8 302.2 298.2 296.8 290.5 287.8 281.8 286.2 278.8 286.8 276.2 292.5 272.5 303.5 269.8 317.5 269.5 327.8 271.5 338.0 274.5 357.5 283.0 376.0 294.0 382.8 300.2 382.2 303.8 374.5 315.5 368.5 329.5 366.8 335.0 363.5 353.5 363.5 373.5 367.5 408.2 369.2 436.2 369.0 457.5 367.5 472.0 365.2 486.5 360.2 508.5 353.0 529.5 341.2 555.5 309.0 619.0 295.5 643.5 284.0 661.0 275.8 672.0 242.9 708.0 235.0 719.0 228.8 731.0 224.5 743.0 222.6 755.0 223.5 766.0 227.0 776.0 236.6 789.5 245.2 797.5 255.2 804.5 271.5 813.5 282.8 817.5 293.8 820.0 309.8 821.0 320.0 820.0 335.8 817.0 352.0 813.0 362.5 809.5 388.0 799.0 397.0 792.5 404.8 784.5 411.2 773.0 416.5 759.5 432.5 705.0 450.2 663.5"/>
<polyline fill="none" stroke="#00f" points="696.5 709.0 710.0 650.0 711.0 635.5 710.5 628.5 708.0 615.5 706.0 609.5 696.5 592.0 688.5 581.0 654.0 540.5 630.0 508.5 616.5 488.8 600.0 461.0 586.0 432.5 551.0 347.5 533.5 310.5 528.0 296.0 526.0 286.5 526.5 284.5 528.0 282.5 529.5 282.2 533.5 285.0 537.5 291.5 539.5 299.0 538.0 304.5 537.0 305.8 534.0 307.8 523.5 311.5 521.0 314.0 519.5 315.7 515.5 325.0 509.2 349.0 506.2 370.3 506.2 386.8 508.8 404.8 516.0 430.8 550.0 515.5 573.5 588.5 586.5 626.0 600.5 663.0 619.5 717.0 629.0 740.0 641.0 760.5 650.0 773.0 665.0 789.0 676.0 798.0 699.0 811.0 727.5 824.5 748.0 837.0 753.0 841.0 767.0 855.5 775.5 866.5 784.5 876.5 794.0 884.5 799.0 887.5 809.0 891.0 818.5 890.5 823.0 889.0 831.5 883.5 838.5 874.0 843.5 862.0 847.5 848.0 851.5 824.5 854.5 792.0 855.0 745.5 854.0 731.5 851.0 718.0 846.0 705.0 839.0 692.5 811.0 655.5 772.5 602.5 754.5 575.5 742.0 555.0 731.5 533.5 725.5 518.5 717.5 495.2 705.5 454.8 695.5 409.2 692.5 387.5 690.5 357.5 690.0 282.2 691.0 278.5 692.5 278.5 703.0 290.8 713.0 296.2 769.5 312.7 805.0 326.5 807.5 326.8 809.5 325.2 807.5 318.8 798.5 305.2 783.5 289.5 778.0 285.5 775.0 284.2 770.0 283.8 765.5 285.2 758.5 290.5 740.5 306.8 731.5 317.0 726.5 324.2 721.5 337.2 720.5 347.5 722.0 359.5 725.5 373.5 736.0 404.2 745.5 435.5 767.0 517.5 777.0 547.0 798.0 597.0 817.0 635.5 841.5 680.0 863.0 714.5 870.5 722.5 878.0 727.0 886.0 728.0 893.5 725.5 899.5 721.0 903.0 715.5 903.0 710.0 900.5 704.0 893.0 695.0 866.0 670.5 853.5 655.5 845.0 643.5 833.5 623.5 818.5 588.5 810.5 560.0 803.0 520.5 793.5 447.8 791.5 415.8 791.5 383.8 793.5 348.0 797.0 316.0 809.5 235.2 815.5 208.0 817.5 202.6 822.5 194.8 825.5 192.1 832.0 189.9 835.5 190.1 843.0 192.9 850.0 198.6 857.0 206.8 863.5 216.5 868.5 227.1 874.5 248.1 875.0 262.0 874.0 269.8 871.5 276.5 862.0 291.5 859.0 299.0 857.5 308.3 857.0 332.5 855.5 351.5 853.0 364.5 849.0 377.5 841.5 396.5 830.0 422.0 820.0 448.0 800.5 503.2 781.0 550.0 775.5 569.5 773.5 583.5 774.0 597.5 777.0 619.0 783.5 653.5 785.0 666.0 784.5 677.5 782.0 688.5 777.5 698.0 754.0 729.0 749.0 740.5 748.0 749.0 749.0 759.0 752.0 770.5 771.5 820.5 777.0 839.5 778.5 858.0 775.0 875.5 773.0 880.5 770.0 885.0 763.5 892.5 755.0 898.0 750.5 900.0 745.5 901.0 735.0 901.0 724.0 897.5 719.0 895.0 708.0 887.5 698.0 878.0 684.0 860.5 672.5 840.5 659.0 811.0 649.5 787.5 637.5 755.0 632.5 739.0 624.5 707.0 616.5 666.0 610.0 624.0 596.5 520.5 589.0 482.5 575.0 421.0 571.5 398.5 564.5 341.2 564.0 328.2 565.5 315.7 568.5 304.8 573.5 295.8 576.5 292.0 580.0 289.2 584.0 287.5 588.0 286.5 592.0 286.8 596.5 288.0 605.0 293.2 613.5 301.8 620.5 312.7 626.0 325.8 631.5 348.2 634.0 372.3 633.0 445.2 636.0 501.0 636.0 549.0 634.5 598.5 634.0 656.5 633.0 671.5 631.0 685.5 627.0 696.5 621.5 704.5 618.5 707.5 612.5 711.0 609.5 711.5 606.5 710.5 602.5 707.0 600.5 703.5 598.5 695.0 599.0 678.5 601.5 666.0 605.5 652.5 614.0 633.0 621.0 621.5 633.0 606.0 659.0 578.5 671.0 563.5 677.5 551.5 681.5 537.5 684.5 513.5 686.0 447.2 691.5 372.3 691.0 343.0 688.5 315.7 688.5 303.2 692.0 281.2 699.0 258.0 702.0 241.8 701.0 234.2 699.5 230.6 694.5 223.8 683.0 215.2 673.0 211.6 663.0 210.1 647.5 211.8 624.0 217.5 613.5 219.2 607.5 218.9 606.0 217.1 606.5 215.9 608.0 213.6 611.0 212.6 615.0 214.0 617.0 216.0 623.0 226.6 627.0 241.9 628.0 259.0 624.5 295.2 624.5 314.2 627.0 342.0 632.5 374.8 638.5 400.8 643.5 417.8 655.0 448.8 682.5 507.8 701.5 544.0 713.5 564.5 727.0 583.0 737.5 595.0 759.5 617.0 774.5 635.0 785.5 655.5 790.0 669.5 792.0 683.5 791.5 697.0 788.0 709.0 785.5 714.5 778.5 725.0 765.5 738.5 755.5 746.0 744.5 752.5 727.0 759.0 704.0 762.0 662.5 761.5 638.0 759.0 626.5 756.5 621.0 754.5 611.0 749.0 601.5 741.5 594.0 731.0 590.5 724.0 585.0 709.0 573.5 666.0 568.5 650.0 556.5 620.5 549.5 606.5"/>
<polyline fill="none" stroke="#00f" points="243.8 752.0 252.6 736.5 262.8 723.0 270.2 715.0 299.2 690.5 316.5 674.5 333.5 656.0 346.2 640.0 371.0 605.5 383.0 588.0 397.5 563.5 424.2 504.5 433.8 487.5 456.2 450.8 465.8 431.2 468.0 422.5 468.2 418.5 467.0 408.0 462.5 400.5 450.2 392.8 448.0 390.0 447.8 388.0 448.5 382.8 452.5 373.5 459.8 359.8 463.8 353.8 468.0 349.5 472.5 348.0 475.0 348.5 480.0 352.0 485.0 358.5 487.2 362.8 491.2 373.0 494.0 385.0 496.0 405.2 495.0 427.0 491.0 448.5 487.0 462.5 455.0 549.5 431.0 632.0 399.0 728.5 388.0 758.0 378.0 779.0 361.0 805.0 346.0 821.5 335.8 830.5 325.0 838.0 309.3 847.0 282.8 860.5 268.0 870.5 254.1 883.0 237.1 903.5 224.1 917.0 219.6 920.5 210.4 925.5 201.4 928.0 197.1 928.0 193.1 927.0 189.4 925.0 183.1 918.5 180.5 914.0 176.1 903.0 172.7 890.0 168.1 861.5 164.1 809.5 164.5 788.5 166.6 775.5 170.8 763.0 177.0 751.0 193.4 727.5 224.5 686.0 241.8 660.5 253.7 641.0 264.5 621.5 273.5 601.5 287.8 560.5 297.5 526.5 306.0 490.2 308.0 479.5 310.0 457.5 311.0 412.2 308.8 426.5 305.0 440.2 298.2 452.8 292.2 459.2 284.8 464.8 276.5 469.2 261.8 474.8 246.5 478.5 227.8 480.5 220.1 479.8 214.2 477.5 210.8 472.8 209.9 466.0 211.1 457.5 215.9 442.8 222.2 428.0 230.9 411.5 236.5 403.5 240.9 399.5 249.6 398.5 262.0 400.2 269.2 402.2 274.5 406.5 276.5 411.0 276.8 414.2 274.2 428.0 255.0 488.0 233.2 567.5 224.0 594.5 207.9 633.0 171.8 704.5 155.1 735.0 148.1 745.5 140.9 753.5 137.0 756.0 133.1 758.0 124.8 758.5 116.8 755.5 110.2 749.5 105.9 742.5 104.6 734.0 106.0 725.0 109.7 716.0 118.2 702.5 137.1 679.5 153.5 657.0 168.6 631.0 177.6 611.0 184.5 592.0 190.9 566.0 195.6 538.0 203.0 482.5 205.5 457.0 206.1 438.8 205.6 417.5 203.7 401.5 184.8 324.5 181.9 318.5 180.1 316.7 178.1 316.0 173.6 316.7 165.6 322.8 156.6 332.2 133.5 361.5 129.6 368.0 134.6 362.2 142.6 348.8 144.5 347.8 146.1 350.0 152.6 379.0 159.5 400.8 189.5 484.5 210.0 533.0 214.2 547.0 215.6 563.5 213.4 603.5 213.2 618.0 215.1 639.5 218.2 653.0 223.2 665.0 226.4 670.5 233.5 681.0 252.9 705.5 259.8 716.0 265.0 727.5 268.5 739.5 269.5 746.0 269.8 760.5 267.8 775.5 262.8 798.5 251.0 843.5 247.4 864.5 246.9 878.0 247.9 889.5 250.5 900.0 255.0 908.0 261.2 913.0 269.0 915.5 282.5 914.0 297.2 906.5 312.0 894.0 325.8 877.5 338.0 859.0 355.5 823.5 370.5 785.5 377.7 761.5 383.5 737.0 394.2 671.0 401.5 613.0 410.2 526.0 413.8 502.8 429.0 423.2 432.8 390.8 435.2 356.8 435.8 340.0 435.0 324.2 432.8 310.0 430.8 303.5 426.0 292.8 419.5 285.0 416.0 282.2 408.5 279.8 404.5 280.0 400.5 281.5 392.8 286.8 385.8 295.5 382.5 301.0 377.2 313.7 375.2 321.2 371.0 345.0 369.5 361.8 369.5 378.5 372.3 441.2 370.5 509.5 376.0 619.5 378.2 643.5 382.2 664.0 386.5 674.5 392.5 681.5 395.8 683.5 399.2 685.0 405.5 685.0 408.2 683.5 412.0 679.0 413.8 671.0 413.2 661.0 409.2 642.5 402.2 622.0 393.0 601.0 378.5 577.0 362.8 558.5 342.0 538.5 334.2 529.5 328.0 519.5 323.5 507.2 320.0 485.8 317.7 441.2 316.0 421.5 308.5 364.8 308.0 345.8 309.3 322.0 308.5 307.0 307.5 302.8 304.0 295.5 297.5 287.0 286.2 275.8 285.2 273.0 285.8 271.8 288.8 269.8 294.5 267.8 302.2 266.8 316.5 267.8 326.5 270.5 342.0 277.0 356.5 285.0 372.8 295.2 380.8 301.2 383.8 304.5 383.2 306.2 379.2 310.8 375.5 316.7 368.8 330.5 363.2 348.5 361.5 361.5 361.8 381.8 365.2 416.0 366.5 436.2 366.2 456.5 365.0 470.5 359.8 499.0 351.0 527.0 339.2 553.0 307.8 616.0 283.0 658.5 270.2 675.0 242.9 706.5 235.0 717.5 228.4 729.5 223.6 741.5 221.4 753.5 222.0 764.5 225.6 775.0 231.8 784.5 235.6 789.0 249.6 801.0 260.5 808.0 271.8 814.0 283.2 818.5 294.5 821.0 310.8 822.0 331.5 818.5 357.8 810.5 378.0 802.0 391.8 794.0 396.0 790.5 403.5 782.0 409.8 771.5 415.0 758.0 431.2 705.0 449.2 663.0"/>
<polyline fill="none" stroke="#00f" points="694.0 709.0 709.5 648.5 710.5 633.5 710.0 626.5 707.5 613.5 705.5 607.5 700.0 596.0 692.0 585.0 662.0 554.0 647.0 536.5 637.5 524.0 619.0 497.8 606.0 477.2 594.0 456.2 583.5 434.8 554.5 364.2 529.5 309.3 525.5 296.5 526.0 288.5 527.0 287.0 529.5 285.8 531.0 286.0 534.0 288.2 537.5 297.0 537.5 302.0 536.5 306.0 534.5 309.3 530.0 312.3 523.5 315.0 521.5 317.0 518.5 322.8 515.5 333.0 509.5 366.0 509.0 375.7 509.8 391.2 513.0 409.0 519.0 429.0 526.5 450.0 547.0 500.5 559.5 537.0 583.0 611.0 602.0 663.0 620.5 718.0 633.0 748.5 645.0 768.5 649.5 774.5 659.0 785.5 669.5 795.0 686.5 806.5 737.5 833.5 747.5 840.5 757.0 849.0 783.5 880.0 793.0 887.5 798.0 890.0 808.0 892.5 813.0 892.5 817.5 891.5 822.5 889.5 827.0 886.5 835.0 878.5 842.0 867.0 849.5 846.0 852.5 830.5 855.0 806.0 855.5 774.0 855.0 751.5 853.5 730.5 850.5 717.5 846.0 705.0 839.0 693.0 821.5 669.0 781.5 617.0 753.0 577.5 741.0 557.0 730.5 535.5 724.5 520.5 713.5 488.8 704.0 456.8 698.0 433.5 692.5 404.5 690.0 383.0 688.0 352.0 687.0 288.2 688.5 275.0 690.5 274.5 702.0 286.5 712.0 292.0 757.0 307.3 768.5 312.0 804.0 330.0 807.5 330.5 808.5 329.5 807.5 325.8 802.5 316.5 795.0 305.8 784.0 293.2 776.5 287.5 772.0 286.2 767.5 286.8 761.0 290.5 752.5 297.0 743.0 305.8 728.5 323.0 724.5 331.2 722.0 340.8 722.0 352.0 724.5 365.2 745.0 426.8 768.5 516.0 773.5 531.0 788.0 568.0 815.0 628.0 853.0 698.5 860.0 710.0 867.5 720.0 875.0 727.5 883.0 730.5 891.5 730.0 898.5 726.5 901.5 724.0 903.5 721.0 905.5 714.5 905.5 711.0 904.5 708.0 900.5 701.0 891.0 691.0 871.5 674.0 862.5 665.0 849.5 648.5 833.5 622.0 826.5 608.0 818.5 587.0 810.0 558.0 807.0 543.0 799.5 485.8 795.5 446.2 794.0 422.5 794.0 382.0 797.0 340.2 815.5 220.1 818.5 207.2 820.5 201.9 825.5 193.6 828.5 190.9 831.5 189.1 838.5 188.2 842.0 189.1 849.5 193.6 860.0 206.1 869.0 222.8 873.5 234.5 876.5 245.5 878.0 255.4 878.0 264.2 876.0 274.5 865.0 290.5 861.0 301.8 858.5 353.0 856.0 365.5 852.0 378.0 826.5 433.5 803.0 494.5 794.5 515.0 779.0 548.5 772.5 568.5 770.5 583.0 771.5 605.5 775.5 628.0 784.5 669.0 784.5 687.0 781.0 697.5 776.0 706.5 756.0 732.0 753.0 738.0 751.0 745.5 751.5 754.0 755.0 769.5 759.0 781.5 774.5 819.5 780.0 839.5 781.0 852.5 780.0 865.0 776.5 876.5 771.0 887.0 763.5 895.5 754.5 901.0 744.5 904.5 734.0 905.0 722.5 902.0 711.5 896.0 701.0 887.0 691.0 876.5 682.5 864.0 672.0 843.0 656.5 804.5 638.5 755.0 629.0 723.0 623.5 699.0 616.0 658.0 597.0 513.5 577.5 420.5 568.0 347.0 566.5 326.8 567.5 314.2 568.5 308.3 570.5 302.8 575.0 293.2 581.5 286.5 589.5 283.5 598.0 285.0 607.0 290.5 616.0 299.2 623.5 311.0 631.5 332.0 635.0 347.8 637.5 372.3 636.0 453.0 637.5 476.8 638.5 524.5 635.5 615.0 635.0 656.0 634.0 671.5 632.0 685.0 628.0 696.5 622.5 705.5 619.5 708.5 613.0 712.5 607.0 712.5 602.0 708.5 600.0 705.0 597.5 696.5 597.0 679.0 601.0 659.5 606.0 646.0 612.5 633.0 620.0 621.5 628.0 611.5 660.0 580.0 669.0 570.0 676.5 558.5 682.0 545.5 684.0 538.0 686.5 521.5 688.0 495.5 688.5 446.0 694.0 372.0 694.0 350.5 691.0 304.5 692.5 288.2 697.5 265.0 699.0 261.0 701.0 249.2 701.0 245.5 699.5 238.2 696.0 231.4 689.5 225.0 681.5 219.5 672.0 215.5 667.0 214.2 651.0 213.4 616.0 217.4 609.0 216.8 607.5 216.2 606.5 214.5 609.0 211.9 612.5 211.5 616.0 213.6 618.0 215.9 620.0 218.9 623.0 226.9 626.0 242.1 626.0 258.8 621.5 294.0 621.5 313.5 622.5 327.2 628.5 367.2 632.0 385.0 638.5 411.2 641.0 419.8 650.0 443.2 656.0 458.0 673.5 494.5 692.5 531.5 712.5 566.0 726.0 584.5 742.0 601.0 759.5 617.5 770.0 629.0 778.5 642.0 782.0 649.0 787.5 663.5 790.5 677.5 791.0 684.5 790.0 697.5 786.5 709.0 781.0 719.5 774.0 729.0 760.5 741.0 755.5 744.5 739.5 753.0 722.5 758.0 711.0 759.5 644.5 760.5 626.5 758.0 615.5 754.0 610.0 751.0 600.5 743.0 592.5 732.0 589.0 725.0 586.0 717.5 578.5 692.0 567.0 649.0 558.5 627.0 548.5 606.0"/>
<polyline fill="none" stroke="#00f" points="246.4 754.0 255.1 739.0 265.0 725.5 275.8 713.5 311.5 678.0 332.0 653.5 365.2 608.0 381.2 585.0 392.2 567.0 425.2 495.2 434.8 478.5 457.2 442.2 462.2 432.5 465.8 423.2 467.5 414.8 467.5 411.0 466.8 404.0 464.2 398.8 460.2 394.8 447.0 388.2 445.5 384.8 446.2 379.7 448.8 373.5 460.5 352.5 465.2 347.0 470.0 344.0 475.5 344.2 481.0 348.2 489.0 360.0 493.5 371.3 496.5 384.2 498.5 406.5 497.5 429.2 493.5 451.2 489.5 465.2 479.5 493.2 460.0 543.5 425.5 655.5 410.2 700.0 391.5 750.5 378.0 778.5 369.8 791.5 360.2 804.5 350.2 816.0 339.8 826.0 324.0 837.5 308.3 846.5 282.2 859.0 267.2 868.0 253.4 880.0 231.9 904.5 223.0 913.5 213.9 920.5 209.2 923.0 195.8 926.0 187.9 923.5 184.5 921.0 178.5 912.5 173.9 901.5 169.1 882.0 166.1 852.5 164.6 809.0 165.4 789.0 167.4 776.5 171.4 764.5 177.2 752.5 193.1 729.5 225.2 688.0 243.0 663.0 258.8 637.5 265.8 624.5 274.8 604.5 291.2 556.5 301.0 522.5 308.0 493.5 312.0 465.8 313.5 411.2 313.0 409.8 307.8 433.0 304.0 442.0 299.2 449.5 289.5 458.5 277.0 465.5 257.5 473.2 232.9 479.8 220.9 480.8 215.1 479.2 211.6 475.5 211.0 472.5 211.5 465.2 217.1 446.2 228.8 418.8 235.1 406.0 240.2 399.5 243.2 398.0 254.1 397.5 264.5 399.8 271.0 402.5 274.0 406.0 275.2 411.5 273.0 425.2 255.2 479.0 231.2 565.0 219.0 599.0 200.1 642.5 170.8 702.5 154.2 734.0 147.4 745.0 140.1 753.5 136.2 756.5 132.2 758.5 128.0 759.5 123.7 759.5 115.4 757.0 108.4 751.5 103.8 743.5 102.4 734.5 102.9 729.5 105.6 719.5 110.4 709.5 116.8 700.0 140.6 672.5 153.2 655.0 161.4 642.0 172.1 621.5 180.6 601.5 184.9 589.0 189.8 569.5 193.2 549.0 202.4 461.5 203.2 431.0 201.9 406.8 199.2 393.2 181.6 323.8 178.8 318.0 177.0 316.2 175.1 315.2 170.9 316.0 163.1 321.8 157.5 328.2 126.9 370.3 138.5 350.8 141.6 346.8 144.5 344.2 147.1 345.0 148.2 346.8 159.0 389.5 172.0 429.2 183.8 469.0 194.2 500.0 208.0 535.5 210.6 544.5 212.2 558.5 210.6 608.5 212.6 629.5 215.6 643.0 220.4 655.5 226.6 666.5 254.4 702.0 261.8 713.5 267.5 726.0 271.5 739.5 272.8 746.5 273.0 761.0 271.0 776.5 266.0 800.0 252.5 851.5 249.4 871.0 248.9 883.5 250.0 894.0 251.1 898.5 254.9 906.0 257.5 909.0 260.5 911.0 263.8 912.0 267.8 913.0 276.0 912.0 285.2 908.5 295.0 903.0 300.0 899.5 309.8 890.5 328.2 869.0 340.8 850.0 355.2 823.0 365.2 801.0 371.0 786.0 380.5 754.5 387.2 721.5 392.8 688.0 402.0 623.0 413.2 519.0 418.8 488.0 429.0 440.8 431.8 424.8 435.0 400.0 438.2 357.2 438.5 340.2 437.8 324.0 435.2 309.8 431.0 298.0 425.0 289.2 421.5 286.0 414.2 282.2 406.5 282.0 402.8 283.5 395.2 288.8 388.5 297.2 382.8 308.5 380.5 315.2 376.7 329.8 374.3 345.5 373.0 362.0 373.0 378.7 375.2 426.5 375.2 449.8 373.0 495.2 373.0 518.5 376.2 605.0 378.5 636.5 381.8 658.0 385.5 670.0 390.8 678.5 394.0 681.5 400.5 684.5 403.8 684.5 406.8 684.0 411.5 680.5 412.8 678.0 413.8 670.5 411.2 655.5 400.2 623.0 391.0 602.5 381.0 584.0 370.3 568.0 359.0 554.5 347.2 542.5 336.2 529.5 330.2 519.5 328.0 514.0 326.0 507.8 323.5 494.0 318.8 423.2 312.0 372.3 310.8 353.0 312.3 321.5 311.3 305.2 306.0 292.8 298.5 283.5 285.8 271.5 284.5 268.8 285.0 267.5 290.2 264.8 301.2 264.0 315.2 266.0 325.5 269.8 335.8 274.8 355.5 287.0 375.5 301.0 384.5 308.3 378.5 314.7 369.0 331.5 364.5 343.2 361.0 356.2 359.5 369.8 359.5 383.5 363.5 430.0 363.2 462.2 360.5 482.8 355.5 503.5 351.2 517.5 343.2 537.5 312.7 601.0 299.8 626.0 289.2 644.0 273.5 667.5 238.9 710.5 227.9 728.0 222.8 740.0 220.0 752.0 220.5 763.0 224.2 774.0 227.1 779.0 234.6 788.5 239.1 793.0 254.6 805.0 272.0 814.5 283.8 819.0 295.2 822.0 311.8 823.0 327.5 820.5 348.2 814.0 373.3 802.5 382.5 797.5 395.0 788.5 398.8 784.5 405.5 775.0 413.5 756.5 430.0 704.5 438.8 683.0 448.2 662.5"/>
</svg>