<svg xmlns="http://www.w3.org/2000/svg" height="26.45834cm" viewBox="0 0 1000 1000" width="26.45834cm">

<polyline fill="none" stroke="#00f" points="704.0 708.0 712.0 652.0 712.0 632.0 708.0 616.0 684.0 568.0 624.0 480.0 600.0 440.0 572.0 372.0 532.0 280.0 528.0 272.0 544.0 288.0 544.0 296.0 528.0 296.0 516.0 304.0 504.0 340.0 496.0 384.0 504.0 424.0 544.0 516.0 592.0 656.0 632.0 744.0 652.0 768.0 672.0 788.0 696.0 804.0 744.0 824.0 764.0 840.0 800.0 880.0 816.0 888.0 828.0 888.0 836.0 880.0 840.0 868.0 852.0 792.0 856.0 744.0 852.0 720.0 840.0 692.0 804.0 644.0 752.0 564.0 728.0 512.0 712.0 448.0 700.0 388.0 696.0 288.0 708.0 304.0 728.0 312.0 808.0 316.0 812.0 312.0 812.0 308.0 800.0 292.0 788.0 280.0 776.0 276.0 764.0 276.0 724.0 324.0 716.0 340.0 720.0 364.0 760.0 516.0 792.0 600.0 852.0 704.0 872.0 720.0 880.0 720.0 888.0 716.0 896.0 708.0 896.0 704.0 876.0 684.0 856.0 664.0 832.0 628.0 824.0 600.0 800.0 520.0 784.0 436.0 784.0 396.0 784.0 332.0 804.0 224.0 808.0 204.0 816.0 196.0 828.0 196.0 840.0 200.0 852.0 212.0 864.0 228.0 864.0 240.0 864.0 260.0 852.0 300.0 840.0 368.0 784.0 560.0 784.0 580.0 788.0 632.0 784.0 660.0 776.0 680.0 752.0 716.0 740.0 744.0 740.0 768.0 768.0 844.0 772.0 868.0 768.0 880.0 752.0 888.0 740.0 888.0 720.0 880.0 704.0 864.0 664.0 820.0 640.0 772.0 624.0 716.0 604.0 616.0 592.0 512.0 568.0 424.0 560.0 364.0 556.0 340.0 560.0 320.0 568.0 304.0 580.0 296.0 596.0 300.0 604.0 308.0 616.0 324.0 620.0 348.0 624.0 440.0 632.0 532.0 632.0 640.0 632.0 680.0 624.0 700.0 612.0 704.0 604.0 704.0 600.0 692.0 608.0 664.0 632.0 608.0 668.0 556.0 676.0 528.0 684.0 372.0 680.0 300.0 688.0 276.0 704.0 236.0 700.0 216.0 688.0 204.0 672.0 200.0 656.0 204.0 612.0 228.0 604.0 228.0 604.0 224.0 608.0 216.0 612.0 216.0 624.0 224.0 632.0 240.0 636.0 268.0 632.0 316.0 640.0 364.0 648.0 404.0 664.0 452.0 696.0 524.0 716.0 560.0 788.0 652.0 796.0 680.0 792.0 708.0 780.0 728.0 768.0 744.0 732.0 764.0 708.0 768.0 688.0 768.0 636.0 756.0 612.0 744.0 596.0 728.0 568.0 644.0 552.0 608.0"/>
<polyline fill="none" stroke="#00f" points="236.0 748.0 248.0 724.0 260.0 712.0 328.0 672.0 368.0 628.0 404.0 572.0 432.0 516.0 468.0 448.0 472.0 432.0 468.0 424.0 456.0 400.0 464.0 368.0 472.0 360.0 476.0 364.0 484.0 376.0 488.0 396.0 488.0 420.0 480.0 448.0 448.0 544.0 388.0 752.0 376.0 788.0 348.0 824.0 276.0 872.0 232.0 924.0 212.0 936.0 200.0 932.0 192.0 928.0 188.0 920.0 172.0 856.0 164.0 812.0 164.0 772.0 172.0 752.0 232.0 660.0 272.0 584.0 288.0 540.0 300.0 488.0 304.0 456.0 304.0 424.0 304.0 416.0 304.0 420.0 304.0 444.0 288.0 468.0 276.0 480.0 248.0 484.0 224.0 480.0 208.0 468.0 208.0 448.0 216.0 420.0 232.0 400.0 244.0 396.0 276.0 408.0 280.0 416.0 276.0 436.0 236.0 588.0 216.0 640.0 156.0 736.0 148.0 752.0 136.0 756.0 120.0 748.0 112.0 736.0 112.0 724.0 156.0 656.0 180.0 608.0 196.0 548.0 212.0 480.0 216.0 440.0 212.0 400.0 196.0 328.0 192.0 320.0 184.0 320.0 144.0 348.0 136.0 360.0 140.0 368.0 140.0 360.0 140.0 376.0 152.0 400.0 216.0 524.0 224.0 548.0 224.0 576.0 220.0 632.0 220.0 664.0 228.0 688.0 256.0 728.0 260.0 744.0 256.0 780.0 240.0 856.0 240.0 888.0 252.0 908.0 268.0 920.0 288.0 924.0 304.0 916.0 324.0 900.0 340.0 872.0 352.0 844.0 380.0 736.0 392.0 668.0 404.0 524.0 420.0 428.0 428.0 332.0 420.0 296.0 412.0 280.0 404.0 276.0 396.0 276.0 376.0 288.0 364.0 328.0 360.0 368.0 364.0 504.0 376.0 640.0 384.0 672.0 396.0 688.0 400.0 688.0 408.0 680.0 416.0 660.0 412.0 624.0 396.0 588.0 372.0 564.0 332.0 536.0 320.0 512.0 312.0 484.0 308.0 416.0 300.0 360.0 300.0 312.0 296.0 300.0 288.0 288.0 288.0 284.0 304.0 276.0 328.0 272.0 364.0 280.0 380.0 292.0 368.0 324.0 368.0 344.0 376.0 420.0 372.0 468.0 360.0 528.0 300.0 644.0 284.0 672.0 248.0 704.0 232.0 728.0 224.0 752.0 228.0 772.0 236.0 788.0 252.0 800.0 272.0 812.0 292.0 816.0 344.0 816.0 388.0 804.0 404.0 792.0 416.0 776.0 436.0 700.0 452.0 664.0"/>
<polyline fill="none" stroke="#00f" points="700.0 708.0 712.0 644.0 704.0 616.0 680.0 568.0 624.0 492.0 604.0 456.0 532.0 292.0 528.0 276.0 540.0 288.0 544.0 296.0 520.0 304.0 508.0 336.0 500.0 384.0 508.0 428.0 548.0 524.0 592.0 648.0 632.0 744.0 652.0 768.0 672.0 792.0 748.0 832.0 800.0 884.0 816.0 888.0 828.0 888.0 840.0 872.0 844.0 844.0 856.0 780.0 856.0 748.0 852.0 728.0 840.0 692.0 752.0 564.0 728.0 516.0 716.0 476.0 700.0 404.0 696.0 368.0 696.0 284.0 704.0 300.0 728.0 308.0 808.0 320.0 812.0 316.0 808.0 312.0 788.0 284.0 776.0 280.0 768.0 280.0 724.0 324.0 720.0 340.0 720.0 360.0 760.0 504.0 792.0 592.0 844.0 688.0 856.0 708.0 876.0 720.0 892.0 720.0 900.0 712.0 896.0 704.0 852.0 656.0 832.0 628.0 824.0 600.0 800.0 516.0 788.0 436.0 784.0 388.0 788.0 336.0 808.0 216.0 812.0 200.0 824.0 192.0 832.0 196.0 844.0 200.0 864.0 228.0 868.0 264.0 852.0 304.0 848.0 364.0 780.0 572.0 784.0 664.0 776.0 684.0 752.0 720.0 744.0 744.0 744.0 772.0 772.0 844.0 772.0 868.0 768.0 884.0 752.0 892.0 736.0 892.0 720.0 888.0 700.0 872.0 664.0 820.0 640.0 772.0 620.0 700.0 592.0 520.0 568.0 416.0 560.0 352.0 564.0 312.0 572.0 300.0 580.0 292.0 592.0 296.0 604.0 304.0 616.0 320.0 624.0 340.0 628.0 372.0 628.0 436.0 632.0 532.0 632.0 648.0 628.0 684.0 620.0 704.0 608.0 708.0 600.0 700.0 600.0 684.0 608.0 652.0 624.0 620.0 668.0 560.0 680.0 528.0 688.0 372.0 684.0 308.0 688.0 284.0 704.0 240.0 704.0 228.0 700.0 220.0 684.0 208.0 672.0 204.0 648.0 208.0 616.0 224.0 604.0 224.0 608.0 216.0 616.0 216.0 624.0 232.0 632.0 248.0 632.0 340.0 640.0 388.0 652.0 428.0 680.0 496.0 720.0 568.0 768.0 628.0 784.0 652.0 796.0 680.0 792.0 708.0 772.0 736.0 748.0 752.0 724.0 764.0 704.0 768.0 680.0 768.0 620.0 752.0 604.0 740.0 596.0 728.0 568.0 644.0 552.0 608.0"/>
<polyline fill="none" stroke="#00f" points="240.0 748.0 252.0 728.0 268.0 712.0 308.0 684.0 336.0 660.0 360.0 628.0 396.0 576.0 468.0 440.0 468.0 420.0 452.0 396.0 464.0 364.0 472.0 356.0 480.0 360.0 484.0 372.0 488.0 392.0 488.0 424.0 484.0 448.0 452.0 540.0 392.0 752.0 376.0 788.0 356.0 812.0 336.0 832.0 268.0 876.0 220.0 928.0 208.0 932.0 200.0 932.0 188.0 920.0 176.0 892.0 164.0 816.0 164.0 772.0 176.0 748.0 212.0 700.0 248.0 644.0 272.0 588.0 300.0 488.0 308.0 416.0 304.0 448.0 292.0 464.0 276.0 476.0 244.0 484.0 220.0 480.0 208.0 468.0 208.0 444.0 220.0 420.0 236.0 400.0 244.0 396.0 272.0 404.0 280.0 412.0 280.0 428.0 236.0 572.0 212.0 636.0 160.0 732.0 148.0 748.0 140.0 756.0 128.0 756.0 120.0 752.0 108.0 740.0 112.0 728.0 156.0 656.0 176.0 616.0 192.0 572.0 208.0 480.0 212.0 436.0 208.0 400.0 192.0 328.0 188.0 320.0 180.0 320.0 148.0 348.0 136.0 364.0 136.0 364.0 140.0 364.0 144.0 356.0 144.0 376.0 152.0 400.0 220.0 540.0 224.0 564.0 216.0 632.0 220.0 660.0 224.0 680.0 256.0 720.0 264.0 740.0 260.0 772.0 240.0 864.0 244.0 892.0 252.0 908.0 268.0 920.0 288.0 920.0 300.0 912.0 324.0 888.0 348.0 840.0 372.0 776.0 384.0 736.0 396.0 644.0 408.0 508.0 424.0 412.0 428.0 332.0 424.0 296.0 412.0 280.0 404.0 276.0 396.0 276.0 380.0 292.0 368.0 328.0 364.0 368.0 368.0 508.0 376.0 624.0 380.0 664.0 388.0 680.0 396.0 688.0 408.0 684.0 412.0 676.0 416.0 668.0 408.0 628.0 392.0 592.0 372.0 564.0 336.0 536.0 320.0 508.0 304.0 364.0 304.0 312.0 288.0 280.0 304.0 272.0 328.0 272.0 364.0 284.0 380.0 296.0 368.0 324.0 364.0 352.0 372.0 428.0 372.0 464.0 364.0 504.0 356.0 532.0 308.0 628.0 284.0 664.0 244.0 708.0 228.0 732.0 224.0 756.0 228.0 776.0 236.0 792.0 252.0 800.0 276.0 816.0 292.0 820.0 308.0 820.0 352.0 812.0 388.0 800.0 404.0 792.0 412.0 776.0 436.0 696.0 452.0 664.0"/>
<polyline fill="none" stroke="#00f" points="700.0 708.0 712.0 644.0 708.0 616.0 700.0 600.0 624.0 492.0 600.0 452.0 532.0 296.0 528.0 280.0 532.0 280.0 536.0 284.0 540.0 300.0 520.0 308.0 508.0 336.0 504.0 376.0 508.0 420.0 544.0 508.0 608.0 692.0 636.0 752.0 656.0 776.0 676.0 796.0 752.0 836.0 796.0 880.0 816.0 888.0 828.0 888.0 840.0 868.0 848.0 840.0 856.0 764.0 852.0 724.0 848.0 704.0 836.0 684.0 752.0 568.0 732.0 532.0 720.0 500.0 704.0 436.0 696.0 392.0 692.0 280.0 704.0 296.0 720.0 304.0 808.0 324.0 808.0 324.0 808.0 316.0 788.0 288.0 776.0 280.0 768.0 284.0 736.0 308.0 724.0 324.0 720.0 344.0 720.0 360.0 760.0 504.0 788.0 584.0 832.0 664.0 860.0 708.0 872.0 724.0 884.0 724.0 892.0 724.0 900.0 716.0 900.0 704.0 864.0 672.0 848.0 652.0 832.0 624.0 820.0 592.0 804.0 524.0 788.0 424.0 792.0 336.0 812.0 216.0 816.0 204.0 824.0 192.0 832.0 192.0 844.0 196.0 856.0 212.0 864.0 224.0 872.0 244.0 872.0 264.0 856.0 296.0 852.0 348.0 844.0 384.0 828.0 424.0 776.0 572.0 776.0 596.0 784.0 656.0 784.0 680.0 776.0 692.0 752.0 728.0 744.0 744.0 748.0 772.0 776.0 840.0 776.0 868.0 768.0 884.0 756.0 896.0 736.0 896.0 716.0 888.0 700.0 872.0 680.0 852.0 664.0 816.0 632.0 740.0 608.0 632.0 592.0 512.0 572.0 420.0 560.0 336.0 568.0 308.0 580.0 292.0 596.0 292.0 608.0 300.0 624.0 328.0 632.0 364.0 628.0 436.0 632.0 508.0 632.0 664.0 628.0 692.0 620.0 704.0 616.0 708.0 608.0 708.0 600.0 704.0 600.0 696.0 604.0 664.0 620.0 628.0 664.0 568.0 680.0 536.0 688.0 372.0 688.0 304.0 704.0 240.0 700.0 228.0 696.0 220.0 680.0 208.0 664.0 208.0 616.0 220.0 604.0 220.0 608.0 212.0 616.0 216.0 628.0 240.0 628.0 336.0 636.0 372.0 648.0 424.0 672.0 476.0 708.0 548.0 728.0 584.0 768.0 628.0 784.0 648.0 792.0 676.0 792.0 688.0 788.0 708.0 780.0 724.0 768.0 740.0 744.0 752.0 720.0 764.0 668.0 764.0 620.0 752.0 608.0 744.0 596.0 728.0 568.0 652.0 552.0 608.0"/>
<polyline fill="none" stroke="#00f" points="240.0 752.0 252.0 728.0 268.0 712.0 308.0 684.0 332.0 664.0 360.0 624.0 396.0 572.0 428.0 508.0 468.0 436.0 468.0 412.0 452.0 396.0 448.0 392.0 464.0 360.0 472.0 352.0 480.0 356.0 488.0 368.0 492.0 384.0 492.0 424.0 488.0 452.0 452.0 548.0 400.0 728.0 376.0 780.0 356.0 812.0 344.0 828.0 272.0 868.0 224.0 920.0 212.0 928.0 200.0 928.0 192.0 928.0 184.0 916.0 172.0 884.0 164.0 808.0 164.0 776.0 176.0 748.0 252.0 640.0 272.0 600.0 284.0 564.0 304.0 492.0 308.0 416.0 304.0 444.0 296.0 460.0 276.0 472.0 244.0 480.0 220.0 480.0 208.0 472.0 212.0 448.0 224.0 420.0 232.0 404.0 244.0 400.0 272.0 404.0 276.0 408.0 280.0 416.0 232.0 584.0 208.0 640.0 156.0 736.0 136.0 756.0 128.0 756.0 120.0 752.0 108.0 740.0 108.0 724.0 120.0 704.0 152.0 660.0 176.0 616.0 192.0 568.0 208.0 480.0 208.0 440.0 208.0 404.0 188.0 324.0 184.0 316.0 176.0 316.0 148.0 344.0 132.0 364.0 136.0 364.0 144.0 352.0 156.0 400.0 212.0 536.0 220.0 564.0 216.0 620.0 220.0 656.0 224.0 676.0 256.0 712.0 264.0 736.0 268.0 752.0 264.0 776.0 244.0 864.0 248.0 892.0 256.0 908.0 264.0 916.0 284.0 916.0 300.0 912.0 316.0 896.0 328.0 880.0 344.0 856.0 368.0 784.0 384.0 728.0 392.0 680.0 408.0 524.0 428.0 408.0 432.0 348.0 428.0 304.0 416.0 284.0 408.0 280.0 396.0 280.0 380.0 300.0 372.0 320.0 368.0 344.0 368.0 508.0 376.0 628.0 380.0 664.0 384.0 672.0 396.0 684.0 408.0 684.0 412.0 676.0 412.0 656.0 408.0 636.0 388.0 588.0 368.0 560.0 336.0 536.0 324.0 512.0 320.0 492.0 312.0 424.0 308.0 368.0 304.0 308.0 304.0 300.0 288.0 280.0 288.0 276.0 304.0 268.0 328.0 272.0 356.0 284.0 384.0 300.0 368.0 328.0 364.0 352.0 368.0 436.0 368.0 472.0 352.0 528.0 308.0 620.0 284.0 660.0 244.0 708.0 228.0 732.0 224.0 756.0 228.0 776.0 236.0 788.0 256.0 804.0 272.0 812.0 292.0 820.0 308.0 820.0 336.0 816.0 388.0 800.0 404.0 784.0 412.0 772.0 432.0 704.0 452.0 664.0"/>
<polyline fill="none" stroke="#00f" points="696.0 708.0 712.0 648.0 712.0 628.0 704.0 608.0 688.0 580.0 632.0 508.0 600.0 460.0 532.0 312.0 528.0 284.0 528.0 284.0 532.0 284.0 540.0 300.0 536.0 304.0 520.0 312.0 516.0 324.0 508.0 372.0 508.0 404.0 628.0 740.0 648.0 772.0 676.0 800.0 748.0 836.0 792.0 884.0 808.0 892.0 820.0 892.0 832.0 884.0 840.0 872.0 848.0 848.0 856.0 792.0 856.0 732.0 852.0 720.0 840.0 692.0 756.0 576.0 724.0 520.0 704.0 456.0 696.0 408.0 692.0 356.0 688.0 284.0 692.0 280.0 704.0 292.0 712.0 296.0 804.0 328.0 808.0 324.0 808.0 320.0 784.0 288.0 776.0 284.0 764.0 284.0 740.0 308.0 728.0 324.0 720.0 336.0 720.0 360.0 768.0 516.0 800.0 596.0 840.0 680.0 864.0 716.0 880.0 728.0 892.0 724.0 904.0 716.0 900.0 704.0 852.0 656.0 832.0 624.0 820.0 588.0 804.0 520.0 792.0 448.0 792.0 348.0 808.0 236.0 816.0 208.0 824.0 196.0 832.0 188.0 844.0 192.0 856.0 208.0 868.0 228.0 876.0 248.0 876.0 264.0 872.0 276.0 860.0 300.0 856.0 352.0 848.0 376.0 776.0 568.0 776.0 596.0 784.0 652.0 784.0 676.0 776.0 696.0 752.0 728.0 748.0 748.0 752.0 772.0 776.0 840.0 780.0 856.0 768.0 884.0 756.0 896.0 736.0 900.0 720.0 896.0 696.0 880.0 672.0 840.0 632.0 740.0 616.0 664.0 596.0 520.0 576.0 420.0 564.0 340.0 564.0 316.0 576.0 292.0 592.0 288.0 604.0 292.0 612.0 300.0 624.0 324.0 632.0 372.0 632.0 656.0 632.0 684.0 620.0 704.0 612.0 712.0 608.0 712.0 600.0 704.0 600.0 696.0 600.0 664.0 616.0 632.0 632.0 608.0 672.0 564.0 680.0 536.0 692.0 372.0 688.0 304.0 704.0 240.0 696.0 224.0 684.0 216.0 664.0 212.0 612.0 220.0 608.0 220.0 608.0 216.0 612.0 212.0 616.0 216.0 628.0 240.0 624.0 316.0 632.0 376.0 656.0 448.0 700.0 544.0 728.0 584.0 776.0 636.0 784.0 656.0 792.0 684.0 788.0 708.0 780.0 724.0 764.0 740.0 744.0 752.0 728.0 760.0 704.0 760.0 664.0 760.0 620.0 756.0 600.0 740.0 592.0 724.0 568.0 648.0 548.0 608.0"/>
<polyline fill="none" stroke="#00f" points="244.0 752.0 264.0 724.0 332.0 656.0 372.0 604.0 396.0 564.0 424.0 504.0 464.0 432.0 468.0 408.0 448.0 388.0 464.0 352.0 472.0 348.0 480.0 352.0 488.0 364.0 496.0 384.0 496.0 428.0 488.0 464.0 456.0 548.0 400.0 728.0 376.0 780.0 360.0 804.0 336.0 832.0 268.0 872.0 220.0 920.0 196.0 928.0 184.0 920.0 172.0 888.0 164.0 808.0 168.0 776.0 176.0 752.0 240.0 660.0 272.0 600.0 288.0 560.0 304.0 492.0 312.0 412.0 304.0 440.0 292.0 460.0 260.0 476.0 228.0 480.0 216.0 476.0 208.0 464.0 216.0 444.0 232.0 412.0 240.0 400.0 248.0 400.0 268.0 404.0 276.0 408.0 276.0 416.0 232.0 568.0 208.0 632.0 156.0 736.0 136.0 756.0 124.0 760.0 116.0 756.0 104.0 744.0 104.0 724.0 120.0 704.0 152.0 656.0 176.0 612.0 192.0 568.0 204.0 484.0 208.0 440.0 204.0 400.0 184.0 324.0 180.0 316.0 172.0 316.0 156.0 332.0 128.0 368.0 144.0 348.0 148.0 352.0 160.0 400.0 216.0 548.0 212.0 616.0 220.0 652.0 228.0 672.0 260.0 716.0 268.0 740.0 268.0 776.0 248.0 864.0 248.0 888.0 256.0 908.0 268.0 916.0 284.0 912.0 296.0 908.0 312.0 896.0 336.0 860.0 372.0 784.0 384.0 736.0 396.0 672.0 412.0 528.0 428.0 424.0 436.0 356.0 436.0 324.0 432.0 304.0 420.0 284.0 408.0 280.0 392.0 288.0 384.0 300.0 372.0 344.0 372.0 508.0 376.0 620.0 384.0 664.0 388.0 676.0 396.0 684.0 408.0 684.0 412.0 672.0 408.0 644.0 404.0 624.0 380.0 576.0 336.0 528.0 324.0 508.0 308.0 364.0 308.0 308.0 304.0 296.0 288.0 276.0 284.0 272.0 304.0 268.0 328.0 272.0 356.0 284.0 384.0 304.0 368.0 332.0 360.0 360.0 368.0 436.0 364.0 472.0 352.0 528.0 308.0 616.0 284.0 660.0 244.0 708.0 228.0 728.0 220.0 752.0 224.0 776.0 236.0 788.0 248.0 800.0 272.0 816.0 296.0 820.0 312.0 824.0 332.0 820.0 376.0 800.0 396.0 792.0 408.0 772.0 432.0 704.0 448.0 664.0"/>
<polyline fill="none" stroke="#00f" points="696.0 708.0 708.0 648.0 712.0 628.0 704.0 608.0 692.0 584.0 636.0 524.0 592.0 456.0 528.0 308.0 528.0 288.0 528.0 284.0 536.0 288.0 536.0 304.0 536.0 308.0 520.0 316.0 516.0 332.0 508.0 376.0 512.0 408.0 632.0 748.0 648.0 776.0 668.0 796.0 748.0 840.0 792.0 888.0 808.0 892.0 816.0 892.0 836.0 880.0 848.0 848.0 856.0 808.0 852.0 732.0 848.0 704.0 840.0 692.0 752.0 576.0 724.0 520.0 704.0 456.0 692.0 404.0 688.0 352.0 688.0 288.0 692.0 276.0 704.0 288.0 712.0 292.0 756.0 308.0 804.0 328.0 808.0 328.0 808.0 324.0 784.0 292.0 776.0 288.0 768.0 288.0 744.0 304.0 728.0 324.0 720.0 340.0 724.0 364.0 744.0 428.0 772.0 532.0 816.0 628.0 868.0 720.0 876.0 728.0 884.0 732.0 900.0 728.0 904.0 716.0 900.0 700.0 864.0 664.0 848.0 648.0 832.0 624.0 820.0 588.0 808.0 544.0 796.0 448.0 792.0 384.0 796.0 340.0 816.0 220.0 820.0 200.0 828.0 192.0 840.0 188.0 848.0 192.0 868.0 224.0 876.0 244.0 880.0 264.0 876.0 276.0 860.0 300.0 860.0 352.0 852.0 376.0 828.0 432.0 772.0 568.0 772.0 604.0 784.0 668.0 784.0 688.0 776.0 708.0 756.0 732.0 752.0 744.0 756.0 768.0 780.0 840.0 780.0 864.0 772.0 888.0 756.0 900.0 736.0 904.0 712.0 896.0 692.0 876.0 672.0 844.0 628.0 724.0 616.0 656.0 596.0 512.0 576.0 420.0 568.0 328.0 572.0 304.0 580.0 288.0 588.0 284.0 600.0 284.0 616.0 300.0 632.0 332.0 636.0 372.0 636.0 452.0 640.0 524.0 636.0 656.0 632.0 684.0 624.0 704.0 612.0 712.0 608.0 712.0 600.0 708.0 596.0 696.0 596.0 680.0 600.0 660.0 612.0 632.0 628.0 612.0 668.0 568.0 684.0 536.0 696.0 372.0 692.0 304.0 700.0 248.0 696.0 232.0 680.0 220.0 668.0 216.0 616.0 216.0 608.0 216.0 612.0 212.0 616.0 216.0 624.0 244.0 620.0 312.0 628.0 368.0 640.0 412.0 648.0 444.0 692.0 532.0 728.0 584.0 768.0 628.0 784.0 648.0 792.0 676.0 792.0 696.0 788.0 708.0 776.0 728.0 760.0 740.0 740.0 752.0 724.0 760.0 644.0 760.0 616.0 752.0 600.0 744.0 588.0 724.0 568.0 648.0 548.0 608.0"/>
<polyline fill="none" stroke="#00f" points="248.0 752.0 264.0 724.0 332.0 652.0 392.0 568.0 424.0 496.0 464.0 424.0 468.0 412.0 464.0 400.0 444.0 384.0 460.0 352.0 472.0 344.0 480.0 348.0 488.0 360.0 496.0 384.0 496.0 428.0 488.0 464.0 460.0 544.0 412.0 700.0 376.0 780.0 360.0 804.0 340.0 824.0 324.0 836.0 268.0 868.0 224.0 912.0 208.0 924.0 196.0 928.0 184.0 920.0 180.0 912.0 168.0 880.0 164.0 808.0 168.0 776.0 176.0 752.0 244.0 664.0 276.0 604.0 292.0 556.0 308.0 492.0 312.0 464.0 312.0 412.0 304.0 440.0 288.0 460.0 256.0 472.0 220.0 480.0 212.0 476.0 212.0 464.0 236.0 408.0 244.0 400.0 256.0 396.0 272.0 404.0 276.0 412.0 232.0 564.0 200.0 644.0 156.0 736.0 136.0 756.0 128.0 760.0 116.0 756.0 104.0 744.0 104.0 736.0 104.0 720.0 116.0 700.0 152.0 656.0 172.0 620.0 184.0 588.0 192.0 548.0 204.0 460.0 200.0 408.0 180.0 324.0 176.0 316.0 172.0 316.0 156.0 328.0 128.0 372.0 140.0 348.0 144.0 344.0 148.0 348.0 184.0 468.0 212.0 544.0 212.0 608.0 216.0 644.0 228.0 668.0 260.0 712.0 272.0 740.0 272.0 776.0 248.0 872.0 248.0 896.0 256.0 904.0 264.0 912.0 276.0 912.0 296.0 904.0 308.0 892.0 340.0 848.0 372.0 784.0 380.0 756.0 392.0 688.0 412.0 520.0 432.0 424.0 440.0 356.0 436.0 308.0 424.0 288.0 416.0 284.0 404.0 284.0 388.0 296.0 380.0 316.0 376.0 344.0 372.0 520.0 376.0 604.0 380.0 656.0 384.0 672.0 392.0 680.0 404.0 684.0 412.0 680.0 412.0 672.0 412.0 656.0 400.0 624.0 380.0 584.0 336.0 528.0 328.0 512.0 324.0 496.0 312.0 372.0 312.0 304.0 304.0 292.0 284.0 268.0 300.0 264.0 324.0 268.0 384.0 308.0 368.0 332.0 360.0 356.0 360.0 384.0 364.0 464.0 352.0 516.0 312.0 600.0 288.0 644.0 228.0 728.0 220.0 752.0 224.0 776.0 236.0 788.0 256.0 804.0 272.0 816.0 296.0 824.0 328.0 820.0 372.0 804.0 396.0 788.0 404.0 776.0 432.0 704.0 448.0 664.0"/>
</svg>