<svg xmlns="http://www.w3.org/2000/svg" height="26.45834cm" viewBox="0 0 1000 1000" width="26.45834cm">
<g fill="none" stroke="#00f">
<polyline points="573.0 652.0 589.0 708.0 597.0 728.0 608.0 741.0 627.0 752.0 654.0 762.0 678.0 768.0 701.0 769.0 718.0 767.0 743.0 757.0 766.0 742.0 781.0 726.0 792.0 708.0 796.0 695.0 796.0 681.0 792.0 667.0 786.0 653.0 774.0 633.0 735.0 586.0 717.0 560.0 691.0 510.0 658.0 435.0 645.0 395.0 636.0 348.0 634.0 317.0 634.0 266.0 632.0 247.0 625.0 231.0 617.0 219.0 609.0 215.0 606.0 217.0 604.0 223.0 607.0 227.0 612.0 226.0 657.0 203.0 672.0 200.0 682.0 201.0 691.0 205.0 699.0 211.0 703.0 218.0 705.0 226.0 703.0 240.0 685.0 281.0 681.0 300.0 680.0 313.0 684.0 373.0 675.0 529.0 672.0 543.0 668.0 554.0 634.0 604.0 622.0 627.0 614.0 646.0 606.0 671.0 602.0 691.0 602.0 699.0 604.0 704.0 611.0 707.0 619.0 702.0 625.0 696.0 629.0 685.0 631.0 665.0 630.0 534.0 624.0 446.0 624.0 373.0 620.0 343.0 614.0 323.0 606.0 309.0 599.0 302.0 591.0 297.0 583.0 296.0 576.0 298.0 566.0 307.0 561.0 315.0 558.0 326.0 557.0 338.0 559.0 373.0 568.0 422.0 588.0 504.0 605.0 616.0 624.0 715.0 632.0 748.0 640.0 771.0 654.0 799.0 670.0 826.0 688.0 850.0 703.0 866.0 719.0 879.0 734.0 887.0 748.0 890.0 756.0 889.0 763.0 885.0 768.0 879.0 771.0 871.0 771.0 851.0 765.0 828.0 743.0 772.0 739.0 754.0 740.0 742.0 747.0 721.0 777.0 681.0 785.0 661.0 787.0 639.0 783.0 584.0 785.0 561.0 822.0 432.0 840.0 376.0 846.0 347.0 851.0 301.0 859.0 282.0 864.0 265.0 866.0 246.0 862.0 227.0 855.0 215.0 841.0 203.0 827.0 196.0 816.0 196.0 808.0 205.0 803.0 222.0 791.0 288.0 786.0 331.0 784.0 382.0 785.0 428.0 789.0 460.0 797.0 502.0 810.0 558.0 820.0 594.0 831.0 621.0 849.0 652.0 871.0 682.0 896.0 706.0 896.0 709.0 894.0 713.0 886.0 718.0 879.0 720.0 872.0 718.0 864.0 714.0 853.0 702.0 839.0 682.0 788.0 595.0 774.0 559.0 758.0 508.0 718.0 357.0 718.0 341.0 723.0 324.0 730.0 314.0 765.0 276.0 775.0 275.0 786.0 281.0 802.0 294.0 812.0 309.0 812.0 314.0 806.0 316.0 745.0 314.0 729.0 313.0 716.0 309.0 710.0 306.0 703.0 299.0 698.0 288.0 700.0 306.0 697.0 357.0 699.0 387.0 712.0 457.0 726.0 505.0 738.0 534.0 749.0 556.0 801.0 639.0 838.0 691.0 849.0 712.0 854.0 726.0 856.0 758.0 853.0 791.0 839.0 872.0 835.0 881.0 829.0 887.0 817.0 887.0 802.0 880.0 788.0 866.0 760.0 835.0 745.0 824.0 696.0 803.0 673.0 789.0 651.0 769.0 632.0 743.0 620.0 722.0 605.0 685.0 579.0 619.0 543.0 517.0 510.0 443.0 503.0 423.0 499.0 404.0 497.0 383.0 498.0 362.0 502.0 341.0 511.0 318.0 520.0 302.0 526.0 298.0 541.0 297.0 545.0 295.0 545.0 292.0 541.0 285.0 528.0 272.0 532.0 283.0 570.0 365.0 596.0 433.0 607.0 455.0 627.0 488.0 678.0 563.0 695.0 591.0 704.0 610.0 710.0 628.0 712.0 646.0 702.0 718.0"/>
<polyline points="435.0 706.0 420.0 762.0 414.0 777.0 403.0 793.0 389.0 803.0 373.0 809.0 350.0 814.0 313.0 819.0 292.0 818.0 276.0 814.0 256.0 804.0 239.0 790.0 230.0 778.0 226.0 763.0 225.0 752.0 228.0 740.0 232.0 728.0 239.0 717.0 247.0 706.0 282.0 671.0 301.0 643.0 355.0 541.0 365.0 513.0 371.0 483.0 374.0 459.0 375.0 428.0 373.0 406.0 367.0 364.0 366.0 345.0 369.0 322.0 374.0 309.0 381.0 297.0 381.0 292.0 371.0 283.0 345.0 275.0 320.0 273.0 301.0 277.0 292.0 282.0 288.0 288.0 297.0 301.0 301.0 312.0 300.0 355.0 309.0 422.0 312.0 482.0 316.0 506.0 321.0 519.0 333.0 534.0 377.0 569.0 395.0 590.0 402.0 603.0 411.0 625.0 414.0 641.0 415.0 661.0 414.0 673.0 410.0 682.0 408.0 684.0 402.0 687.0 395.0 686.0 388.0 682.0 380.0 668.0 377.0 655.0 374.0 633.0 364.0 506.0 363.0 439.0 359.0 378.0 362.0 335.0 368.0 310.0 374.0 296.0 386.0 281.0 398.0 274.0 403.0 274.0 410.0 278.0 419.0 291.0 425.0 310.0 427.0 340.0 420.0 428.0 406.0 516.0 390.0 677.0 380.0 742.0 369.0 784.0 347.0 851.0 339.0 873.0 328.0 893.0 309.0 913.0 294.0 922.0 278.0 924.0 268.0 922.0 259.0 917.0 252.0 909.0 244.0 892.0 240.0 879.0 239.0 865.0 243.0 834.0 258.0 772.0 260.0 751.0 260.0 740.0 253.0 723.0 232.0 693.0 225.0 682.0 220.0 663.0 220.0 632.0 226.0 569.0 224.0 548.0 216.0 525.0 197.0 492.0 148.0 395.0 141.0 373.0 141.0 358.0 142.0 366.0 139.0 365.0 138.0 362.0 138.0 356.0 144.0 349.0 182.0 319.0 189.0 319.0 194.0 327.0 210.0 390.0 215.0 429.0 213.0 468.0 207.0 503.0 196.0 554.0 185.0 595.0 176.0 620.0 158.0 657.0 112.0 726.0 111.0 732.0 112.0 738.0 118.0 748.0 125.0 753.0 132.0 756.0 139.0 755.0 147.0 750.0 154.0 743.0 168.0 722.0 218.0 633.0 229.0 608.0 241.0 569.0 264.0 481.0 278.0 436.0 281.0 419.0 280.0 413.0 276.0 408.0 243.0 395.0 238.0 397.0 232.0 401.0 217.0 422.0 210.0 437.0 207.0 447.0 207.0 461.0 210.0 469.0 215.0 475.0 225.0 481.0 234.0 484.0 250.0 485.0 265.0 483.0 275.0 480.0 290.0 469.0 295.0 462.0 301.0 449.0 305.0 424.0 304.0 418.0 302.0 425.0 302.0 465.0 298.0 492.0 283.0 552.0 270.0 592.0 257.0 619.0 242.0 647.0 207.0 704.0 176.0 746.0 169.0 759.0 164.0 772.0 162.0 787.0 163.0 810.0 171.0 858.0 186.0 918.0 194.0 929.0 201.0 934.0 214.0 934.0 227.0 927.0 236.0 919.0 260.0 887.0 274.0 874.0 290.0 862.0 334.0 835.0 349.0 822.0 363.0 806.0 375.0 787.0 384.0 766.0 392.0 742.0 428.0 621.0 450.0 537.0 481.0 447.0 487.0 420.0 488.0 391.0 485.0 378.0 480.0 368.0 476.0 362.0 471.0 362.0 462.0 375.0 456.0 390.0 454.0 399.0 456.0 404.0 466.0 417.0 470.0 426.0 471.0 438.0 469.0 447.0 459.0 467.0 431.0 515.0 400.0 578.0 372.0 620.0 347.0 653.0 329.0 671.0 310.0 684.0 270.0 705.0 256.0 715.0 245.0 729.0 233.0 753.0"/>
<polyline points="571.0 651.0 593.0 723.0 603.0 739.0 612.0 746.0 622.0 751.0 643.0 759.0 673.0 765.0 696.0 767.0 719.0 765.0 743.0 756.0 761.0 745.0 781.0 726.0 791.0 708.0 794.0 696.0 794.0 682.0 792.0 668.0 786.0 654.0 769.0 627.0 729.0 581.0 704.0 541.0 682.0 497.0 659.0 445.0 648.0 414.0 639.0 380.0 634.0 349.0 631.0 322.0 632.0 266.0 630.0 247.0 625.0 231.0 617.0 219.0 610.0 214.0 607.0 216.0 605.0 219.0 606.0 224.0 612.0 224.0 655.0 206.0 671.0 203.0 681.0 205.0 690.0 209.0 700.0 219.0 703.0 226.0 704.0 234.0 701.0 248.0 687.0 283.0 684.0 301.0 686.0 373.0 681.0 450.0 678.0 529.0 675.0 543.0 667.0 561.0 634.0 605.0 618.0 633.0 604.0 672.0 601.0 697.0 604.0 706.0 609.0 708.0 614.0 707.0 620.0 703.0 628.0 691.0 631.0 672.0 632.0 533.0 627.0 446.0 627.0 372.0 623.0 342.0 615.0 316.0 608.0 306.0 601.0 299.0 593.0 294.0 585.0 293.0 574.0 298.0 568.0 304.0 563.0 314.0 559.0 331.0 560.0 357.0 569.0 415.0 592.0 512.0 606.0 616.0 617.0 674.0 625.0 715.0 633.0 748.0 644.0 779.0 662.0 815.0 678.0 841.0 696.0 865.0 717.0 883.0 733.0 891.0 747.0 894.0 756.0 892.0 763.0 887.0 769.0 881.0 772.0 872.0 774.0 862.0 772.0 845.0 765.0 821.0 746.0 771.0 742.0 754.0 743.0 743.0 750.0 724.0 775.0 690.0 784.0 670.0 786.0 647.0 780.0 590.0 782.0 565.0 824.0 431.0 843.0 377.0 849.0 348.0 853.0 301.0 864.0 279.0 868.0 262.0 869.0 243.0 865.0 229.0 855.0 212.0 841.0 199.0 830.0 194.0 819.0 195.0 811.0 204.0 806.0 222.0 794.0 296.0 789.0 337.0 786.0 387.0 788.0 434.0 793.0 475.0 801.0 516.0 811.0 564.0 820.0 592.0 831.0 620.0 849.0 651.0 869.0 676.0 898.0 705.0 899.0 709.0 897.0 713.0 887.0 721.0 880.0 723.0 873.0 721.0 865.0 715.0 854.0 703.0 836.0 675.0 791.0 593.0 776.0 558.0 762.0 513.0 738.0 422.0 720.0 362.0 719.0 340.0 725.0 323.0 736.0 309.0 761.0 282.0 767.0 279.0 776.0 278.0 787.0 284.0 801.0 298.0 811.0 313.0 811.0 318.0 805.0 319.0 728.0 309.0 709.0 301.0 703.0 297.0 695.0 286.0 697.0 311.0 695.0 360.0 697.0 389.0 709.0 451.0 725.0 507.0 737.0 537.0 752.0 565.0 801.0 640.0 839.0 691.0 849.0 711.0 853.0 726.0 855.0 741.0 856.0 764.0 849.0 820.0 840.0 871.0 835.0 881.0 829.0 887.0 816.0 889.0 801.0 882.0 791.0 875.0 764.0 843.0 749.0 831.0 734.0 822.0 689.0 802.0 672.0 791.0 651.0 770.0 632.0 744.0 612.0 700.0 578.0 611.0 545.0 516.0 516.0 447.0 506.0 421.0 502.0 402.0 500.0 382.0 501.0 363.0 506.0 338.0 512.0 321.0 520.0 307.0 525.0 303.0 540.0 300.0 543.0 297.0 539.0 286.0 529.0 275.0 528.0 276.0 528.0 278.0 531.0 288.0 565.0 361.0 591.0 428.0 604.0 457.0 629.0 497.0 690.0 583.0 706.0 614.0 711.0 632.0 711.0 645.0 700.0 718.0"/>
<polyline points="433.0 705.0 411.0 773.0 401.0 789.0 393.0 796.0 383.0 801.0 357.0 811.0 331.0 818.0 310.0 821.0 294.0 820.0 277.0 816.0 255.0 804.0 237.0 789.0 227.0 776.0 223.0 766.0 223.0 755.0 224.0 743.0 229.0 731.0 243.0 708.0 284.0 661.0 306.0 625.0 353.0 529.0 362.0 501.0 368.0 472.0 369.0 429.0 363.0 373.0 363.0 354.0 369.0 329.0 374.0 316.0 383.0 303.0 383.0 300.0 376.0 294.0 362.0 285.0 333.0 273.0 313.0 269.0 292.0 272.0 288.0 275.0 286.0 279.0 301.0 295.0 306.0 309.0 306.0 364.0 313.0 420.0 318.0 485.0 321.0 507.0 326.0 519.0 332.0 530.0 375.0 571.0 387.0 587.0 398.0 606.0 409.0 635.0 414.0 661.0 414.0 672.0 411.0 680.0 407.0 685.0 401.0 686.0 391.0 681.0 385.0 674.0 381.0 663.0 377.0 642.0 369.0 524.0 369.0 433.0 366.0 378.0 367.0 345.0 374.0 313.0 383.0 294.0 390.0 285.0 398.0 279.0 406.0 278.0 414.0 281.0 421.0 288.0 426.0 298.0 430.0 310.0 432.0 324.0 432.0 356.0 425.0 430.0 409.0 525.0 391.0 687.0 383.0 736.0 372.0 777.0 361.0 809.0 346.0 847.0 332.0 874.0 319.0 892.0 299.0 910.0 284.0 917.0 270.0 918.0 258.0 913.0 252.0 906.0 248.0 896.0 244.0 872.0 248.0 843.0 266.0 767.0 266.0 746.0 264.0 734.0 255.0 713.0 226.0 674.0 219.0 656.0 216.0 628.0 219.0 557.0 214.0 535.0 192.0 487.0 154.0 395.0 149.0 380.0 143.0 351.0 137.0 364.0 134.0 366.0 132.0 365.0 144.0 349.0 171.0 325.0 179.0 319.0 186.0 318.0 191.0 326.0 208.0 397.0 212.0 437.0 210.0 473.0 192.0 565.0 186.0 592.0 177.0 617.0 158.0 655.0 118.0 711.0 110.0 726.0 109.0 733.0 110.0 740.0 117.0 749.0 123.0 754.0 131.0 757.0 139.0 755.0 146.0 750.0 153.0 742.0 167.0 720.0 216.0 631.0 226.0 605.0 239.0 566.0 262.0 479.0 277.0 434.0 279.0 416.0 278.0 411.0 274.0 406.0 243.0 397.0 234.0 402.0 221.0 420.0 210.0 446.0 208.0 460.0 209.0 468.0 213.0 474.0 222.0 480.0 245.0 483.0 271.0 478.0 279.0 474.0 291.0 466.0 296.0 459.0 303.0 446.0 306.0 432.0 307.0 419.0 306.0 416.0 305.0 426.0 305.0 463.0 301.0 490.0 285.0 555.0 271.0 595.0 259.0 622.0 243.0 649.0 211.0 700.0 177.0 747.0 170.0 760.0 165.0 773.0 163.0 795.0 164.0 818.0 176.0 886.0 181.0 906.0 187.0 921.0 192.0 928.0 200.0 932.0 213.0 931.0 226.0 924.0 269.0 875.0 289.0 861.0 327.0 838.0 343.0 826.0 358.0 811.0 374.0 787.0 384.0 765.0 393.0 743.0 428.0 629.0 453.0 539.0 484.0 450.0 490.0 422.0 490.0 391.0 487.0 376.0 482.0 365.0 476.0 358.0 471.0 357.0 462.0 368.0 455.0 384.0 452.0 394.0 453.0 400.0 464.0 410.0 469.0 419.0 470.0 430.0 467.0 443.0 457.0 463.0 429.0 511.0 394.0 582.0 366.0 623.0 341.0 656.0 314.0 680.0 276.0 704.0 263.0 714.0 248.0 732.0 236.0 755.0"/>
<polyline points="250.0 734.0 265.0 716.0 313.0 680.0 339.0 653.0 373.0 608.0 396.0 572.0 426.0 508.0 458.0 454.0 467.0 435.0 469.0 422.0 467.0 412.0 463.0 404.0 452.0 396.0 450.0 391.0 452.0 383.0 458.0 370.0 468.0 354.0 475.0 353.0 479.0 356.0 483.0 362.0 489.0 375.0 493.0 391.0 493.0 418.0 486.0 453.0 455.0 541.0 429.0 631.0 396.0 736.0 378.0 779.0 362.0 805.0 342.0 826.0 326.0 838.0 283.0 862.0 268.0 873.0 255.0 886.0 234.0 912.0 221.0 924.0 207.0 930.0 198.0 930.0 191.0 926.0 185.0 920.0 178.0 904.0 174.0 885.0 164.0 817.0 163.0 795.0 166.0 774.0 170.0 761.0 177.0 749.0 215.0 696.0 249.0 645.0 272.0 598.0 288.0 551.0 304.0 487.0 307.0 466.0 309.0 415.0 307.0 429.0 304.0 443.0 300.0 452.0 291.0 463.0 284.0 468.0 271.0 475.0 256.0 479.0 241.0 481.0 227.0 481.0 219.0 479.0 214.0 476.0 210.0 470.0 209.0 463.0 211.0 449.0 224.0 420.0 236.0 403.0 243.0 399.0 269.0 403.0 275.0 407.0 278.0 414.0 275.0 431.0 259.0 484.0 233.0 577.0 221.0 610.0 210.0 635.0 156.0 736.0 145.0 750.0 138.0 756.0 130.0 758.0 118.0 754.0 112.0 748.0 108.0 741.0 107.0 733.0 108.0 725.0 117.0 709.0 146.0 671.0 158.0 653.0 177.0 614.0 186.0 589.0 192.0 562.0 206.0 478.0 209.0 435.0 206.0 399.0 188.0 325.0 183.0 318.0 176.0 318.0 165.0 327.0 147.0 345.0 137.0 357.0 135.0 364.0 137.0 366.0 140.0 364.0 142.0 355.0 145.0 376.0 151.0 395.0 194.0 490.0 214.0 528.0 220.0 544.0 222.0 569.0 218.0 630.0 219.0 660.0 223.0 673.0 229.0 684.0 250.0 712.0 258.0 725.0 262.0 735.0 263.0 746.0 261.0 773.0 246.0 835.0 242.0 865.0 243.0 879.0 247.0 897.0 252.0 907.0 259.0 915.0 267.0 919.0 276.0 921.0 291.0 919.0 307.0 910.0 325.0 889.0 337.0 870.0 350.0 841.0 369.0 784.0 380.0 743.0 392.0 669.0 408.0 517.0 423.0 421.0 429.0 348.0 429.0 317.0 424.0 297.0 419.0 287.0 412.0 280.0 405.0 276.0 400.0 276.0 388.0 283.0 377.0 298.0 371.0 311.0 365.0 335.0 362.0 378.0 366.0 440.0 366.0 507.0 374.0 626.0 380.0 663.0 387.0 678.0 393.0 684.0 400.0 687.0 409.0 684.0 412.0 677.0 414.0 667.0 414.0 648.0 411.0 634.0 403.0 612.0 393.0 591.0 376.0 570.0 339.0 539.0 330.0 530.0 323.0 519.0 319.0 506.0 315.0 483.0 311.0 424.0 303.0 362.0 303.0 310.0 299.0 298.0 287.0 283.0 289.0 279.0 297.0 275.0 319.0 271.0 339.0 274.0 367.0 285.0 379.0 292.0 382.0 297.0 370.0 323.0 366.0 340.0 365.0 352.0 372.0 429.0 370.0 473.0 364.0 504.0 355.0 532.0 304.0 634.0 281.0 669.0 243.0 710.0 232.0 727.0 225.0 745.0 224.0 756.0 225.0 767.0 228.0 777.0 238.0 790.0 255.0 804.0 277.0 815.0 293.0 819.0 314.0 820.0 340.0 816.0 368.0 809.0 388.0 801.0 402.0 791.0 413.0 775.0 434.0 705.0 451.0 664.0"/>
<polyline points="570.0 651.0 592.0 723.0 602.0 740.0 611.0 748.0 621.0 753.0 644.0 759.0 674.0 763.0 703.0 764.0 726.0 761.0 750.0 751.0 766.0 740.0 780.0 725.0 789.0 709.0 793.0 696.0 793.0 683.0 791.0 669.0 786.0 655.0 779.0 641.0 770.0 628.0 738.0 594.0 724.0 576.0 703.0 542.0 681.0 499.0 657.0 447.0 646.0 416.0 637.0 382.0 631.0 349.0 628.0 321.0 627.0 303.0 630.0 259.0 628.0 242.0 623.0 226.0 616.0 216.0 610.0 214.0 606.0 218.0 607.0 222.0 614.0 221.0 659.0 207.0 669.0 207.0 679.0 209.0 688.0 213.0 699.0 223.0 702.0 230.0 703.0 238.0 701.0 251.0 689.0 285.0 686.0 302.0 689.0 372.0 684.0 441.0 680.0 530.0 677.0 544.0 669.0 562.0 633.0 605.0 616.0 633.0 608.0 653.0 602.0 672.0 600.0 684.0 600.0 698.0 603.0 705.0 606.0 709.0 612.0 709.0 618.0 707.0 624.0 700.0 629.0 691.0 632.0 672.0 634.0 533.0 630.0 446.0 630.0 372.0 627.0 341.0 618.0 314.0 611.0 304.0 603.0 296.0 595.0 291.0 586.0 290.0 575.0 295.0 569.0 302.0 565.0 312.0 562.0 329.0 563.0 356.0 573.0 421.0 593.0 513.0 616.0 666.0 632.0 739.0 645.0 779.0 662.0 816.0 677.0 844.0 695.0 869.0 715.0 887.0 731.0 895.0 746.0 897.0 756.0 895.0 763.0 890.0 769.0 883.0 774.0 874.0 776.0 863.0 775.0 846.0 768.0 821.0 749.0 771.0 745.0 754.0 745.0 744.0 752.0 727.0 776.0 694.0 783.0 679.0 785.0 657.0 777.0 590.0 779.0 564.0 826.0 430.0 846.0 377.0 852.0 350.0 856.0 302.0 868.0 276.0 871.0 264.0 871.0 246.0 866.0 226.0 854.0 207.0 844.0 197.0 833.0 192.0 822.0 193.0 814.0 203.0 809.0 221.0 796.0 303.0 791.0 343.0 789.0 393.0 791.0 441.0 797.0 490.0 806.0 539.0 813.0 569.0 822.0 598.0 834.0 625.0 853.0 656.0 865.0 671.0 894.0 699.0 900.0 706.0 901.0 713.0 898.0 718.0 892.0 723.0 885.0 725.0 877.0 725.0 870.0 720.0 859.0 709.0 834.0 668.0 793.0 592.0 778.0 556.0 766.0 519.0 742.0 429.0 721.0 361.0 720.0 343.0 725.0 326.0 738.0 308.0 766.0 282.0 774.0 281.0 787.0 288.0 800.0 301.0 810.0 317.0 810.0 322.0 806.0 323.0 771.0 313.0 722.0 303.0 704.0 295.0 694.0 282.0 693.0 285.0 693.0 363.0 695.0 392.0 707.0 453.0 724.0 509.0 736.0 539.0 751.0 567.0 797.0 634.0 839.0 692.0 849.0 711.0 853.0 725.0 855.0 747.0 855.0 770.0 852.0 810.0 847.0 842.0 842.0 863.0 838.0 875.0 832.0 884.0 824.0 889.0 815.0 890.0 800.0 885.0 786.0 873.0 763.0 847.0 749.0 834.0 733.0 825.0 688.0 803.0 671.0 792.0 650.0 772.0 632.0 745.0 616.0 709.0 580.0 611.0 548.0 516.0 519.0 446.0 509.0 419.0 505.0 400.0 503.0 382.0 505.0 358.0 510.0 335.0 516.0 317.0 521.0 309.0 526.0 306.0 538.0 303.0 541.0 300.0 541.0 296.0 538.0 289.0 533.0 282.0 529.0 279.0 527.0 279.0 527.0 282.0 531.0 296.0 562.0 364.0 592.0 437.0 602.0 459.0 632.0 506.0 693.0 588.0 706.0 612.0 711.0 630.0 711.0 644.0 698.0 718.0"/>
<polyline points="568.0 650.0 591.0 724.0 602.0 742.0 611.0 749.0 621.0 755.0 638.0 759.0 662.0 761.0 704.0 762.0 727.0 759.0 744.0 752.0 766.0 738.0 779.0 725.0 788.0 709.0 791.0 697.0 792.0 684.0 790.0 670.0 782.0 648.0 774.0 635.0 765.0 623.0 727.0 583.0 706.0 551.0 683.0 508.0 658.0 456.0 646.0 426.0 636.0 392.0 630.0 358.0 625.0 321.0 625.0 295.0 628.0 259.0 627.0 242.0 623.0 227.0 617.0 216.0 611.0 213.0 606.0 216.0 607.0 219.0 614.0 219.0 652.0 211.0 663.0 210.0 673.0 212.0 683.0 215.0 694.0 224.0 699.0 231.0 702.0 242.0 700.0 254.0 691.0 286.0 689.0 303.0 691.0 372.0 687.0 440.0 683.0 530.0 680.0 545.0 671.0 563.0 659.0 579.0 629.0 611.0 614.0 633.0 601.0 666.0 599.0 679.0 599.0 695.0 602.0 707.0 607.0 711.0 612.0 711.0 619.0 708.0 625.0 701.0 629.0 691.0 633.0 672.0 636.0 525.0 633.0 445.0 634.0 380.0 630.0 340.0 620.0 313.0 613.0 302.0 605.0 293.0 596.0 288.0 588.0 287.0 577.0 292.0 569.0 305.0 565.0 322.0 565.0 348.0 575.0 421.0 596.0 521.0 617.0 666.0 625.0 707.0 633.0 739.0 646.0 779.0 666.0 826.0 680.0 854.0 693.0 872.0 713.0 892.0 730.0 900.0 746.0 901.0 760.0 896.0 767.0 889.0 775.0 875.0 778.0 864.0 778.0 846.0 771.0 820.0 752.0 770.0 748.0 749.0 749.0 741.0 752.0 733.0 777.0 698.0 782.0 688.0 785.0 678.0 784.0 660.0 774.0 597.0 775.0 570.0 781.0 550.0 800.0 503.0 828.0 428.0 851.0 371.0 856.0 345.0 859.0 302.0 862.0 292.0 871.0 276.0 875.0 266.0 874.0 248.0 868.0 227.0 857.0 207.0 846.0 195.0 835.0 190.0 825.0 192.0 818.0 203.0 812.0 221.0 798.0 309.0 794.0 348.0 791.0 400.0 793.0 440.0 806.0 537.0 812.0 567.0 819.0 589.0 834.0 623.0 849.0 650.0 866.0 670.0 893.0 695.0 901.0 704.0 903.0 710.0 903.0 716.0 899.0 721.0 894.0 726.0 886.0 728.0 878.0 727.0 870.0 722.0 863.0 714.0 831.0 661.0 798.0 597.0 783.0 562.0 770.0 525.0 743.0 428.0 722.0 360.0 721.0 342.0 723.0 333.0 727.0 324.0 744.0 304.0 761.0 289.0 768.0 284.0 775.0 284.0 787.0 292.0 798.0 305.0 809.0 321.0 809.0 326.0 805.0 326.0 770.0 313.0 717.0 298.0 703.0 291.0 691.0 278.0 690.0 282.0 691.0 365.0 694.0 402.0 706.0 455.0 726.0 518.0 738.0 548.0 750.0 569.0 792.0 629.0 839.0 693.0 849.0 711.0 853.0 725.0 855.0 746.0 855.0 776.0 853.0 808.0 849.0 840.0 844.0 862.0 838.0 874.0 831.0 883.0 819.0 891.0 804.0 890.0 794.0 885.0 785.0 876.0 758.0 846.0 748.0 837.0 733.0 827.0 687.0 805.0 671.0 794.0 650.0 773.0 637.0 754.0 629.0 740.0 620.0 717.0 581.0 611.0 547.0 508.0 519.0 438.0 509.0 405.0 506.0 387.0 506.0 370.0 513.0 334.0 521.0 314.0 525.0 311.0 535.0 307.0 539.0 301.0 538.0 294.0 534.0 285.0 529.0 282.0 527.0 285.0 527.0 292.0 531.0 305.0 557.0 361.0 586.0 432.0 600.0 461.0 635.0 515.0 654.0 540.0 693.0 587.0 706.0 610.0 710.0 628.0 711.0 642.0 695.0 718.0"/>
<polyline points="431.0 705.0 410.0 771.0 404.0 782.0 396.0 790.0 378.0 802.0 353.0 812.0 332.0 819.0 311.0 822.0 295.0 821.0 278.0 816.0 255.0 805.0 236.0 789.0 226.0 775.0 222.0 764.0 221.0 753.0 224.0 742.0 228.0 730.0 243.0 706.0 283.0 658.0 304.0 622.0 351.0 527.0 360.0 499.0 365.0 470.0 367.0 436.0 361.0 375.0 362.0 355.0 365.0 342.0 371.0 325.0 384.0 305.0 376.0 298.0 356.0 285.0 327.0 271.0 307.0 267.0 289.0 270.0 286.0 272.0 286.0 276.0 302.0 292.0 308.0 307.0 309.0 365.0 316.0 421.0 320.0 486.0 324.0 507.0 328.0 519.0 334.0 530.0 375.0 572.0 386.0 588.0 396.0 608.0 409.0 643.0 414.0 666.0 413.0 675.0 410.0 682.0 402.0 685.0 393.0 681.0 387.0 674.0 381.0 658.0 377.0 636.0 371.0 525.0 372.0 434.0 369.0 379.0 371.0 345.0 377.0 314.0 386.0 296.0 393.0 287.0 401.0 281.0 408.0 280.0 416.0 282.0 423.0 288.0 429.0 298.0 433.0 310.0 435.0 324.0 435.0 357.0 429.0 423.0 410.0 526.0 393.0 679.0 383.0 737.0 373.0 778.0 362.0 809.0 345.0 845.0 330.0 871.0 317.0 889.0 297.0 906.0 283.0 914.0 269.0 915.0 258.0 911.0 253.0 904.0 249.0 895.0 247.0 871.0 251.0 844.0 268.0 775.0 270.0 753.0 269.0 740.0 265.0 727.0 260.0 716.0 226.0 670.0 218.0 653.0 214.0 625.0 216.0 563.0 213.0 542.0 190.0 484.0 158.0 395.0 147.0 352.0 145.0 348.0 130.0 368.0 157.0 332.0 174.0 317.0 180.0 317.0 185.0 324.0 204.0 401.0 206.0 439.0 202.0 489.0 191.0 566.0 184.0 592.0 178.0 611.0 157.0 651.0 145.0 669.0 115.0 707.0 106.0 725.0 105.0 734.0 106.0 742.0 110.0 750.0 117.0 755.0 125.0 758.0 133.0 758.0 141.0 753.0 152.0 740.0 168.0 711.0 205.0 639.0 219.0 608.0 231.0 574.0 257.0 481.0 274.0 428.0 277.0 414.0 276.0 408.0 271.0 403.0 259.0 400.0 246.0 398.0 238.0 402.0 229.0 415.0 216.0 443.0 210.0 466.0 212.0 475.0 217.0 479.0 224.0 480.0 237.0 480.0 257.0 476.0 276.0 469.0 289.0 462.0 298.0 453.0 303.0 445.0 308.0 431.0 311.0 412.0 310.0 463.0 306.0 490.0 292.0 547.0 273.0 601.0 264.0 621.0 250.0 648.0 225.0 686.0 181.0 745.0 171.0 763.0 167.0 775.0 165.0 789.0 164.0 810.0 167.0 854.0 171.0 883.0 176.0 903.0 181.0 914.0 189.0 925.0 197.0 928.0 206.0 927.0 220.0 920.0 233.0 908.0 254.0 883.0 268.0 870.0 283.0 861.0 320.0 841.0 336.0 830.0 356.0 811.0 378.0 779.0 388.0 758.0 399.0 729.0 429.0 639.0 455.0 550.0 489.0 456.0 496.0 420.0 496.0 405.0 494.0 385.0 489.0 368.0 483.0 355.0 475.0 349.0 468.0 350.0 462.0 357.0 456.0 367.0 450.0 380.0 448.0 388.0 450.0 393.0 462.0 400.0 467.0 408.0 468.0 418.0 466.0 431.0 456.0 451.0 424.0 505.0 394.0 570.0 375.0 599.0 338.0 651.0 312.0 679.0 263.0 723.0 249.0 742.0 241.0 758.0"/>
<polyline points="567.0 649.0 583.0 709.0 589.0 725.0 601.0 743.0 615.0 754.0 632.0 759.0 651.0 761.0 711.0 759.0 728.0 757.0 745.0 751.0 765.0 737.0 778.0 724.0 787.0 709.0 791.0 691.0 790.0 678.0 787.0 663.0 782.0 649.0 775.0 635.0 765.0 623.0 726.0 584.0 704.0 553.0 681.0 509.0 653.0 451.0 641.0 420.0 634.0 394.0 626.0 350.0 621.0 313.0 622.0 294.0 626.0 253.0 625.0 237.0 621.0 223.0 616.0 214.0 611.0 211.0 607.0 215.0 608.0 216.0 613.0 217.0 651.0 213.0 672.0 216.0 681.0 220.0 693.0 228.0 698.0 235.0 701.0 245.0 691.0 299.0 694.0 365.0 689.0 439.0 688.0 504.0 686.0 530.0 682.0 545.0 673.0 565.0 660.0 580.0 628.0 612.0 613.0 633.0 604.0 653.0 599.0 666.0 597.0 679.0 598.0 696.0 600.0 705.0 604.0 711.0 610.0 713.0 616.0 711.0 622.0 705.0 628.0 697.0 633.0 679.0 635.0 656.0 638.0 525.0 636.0 445.0 638.0 380.0 636.0 356.0 633.0 340.0 629.0 325.0 623.0 311.0 616.0 299.0 607.0 290.0 598.0 285.0 589.0 283.0 585.0 284.0 578.0 289.0 570.0 303.0 567.0 320.0 567.0 340.0 579.0 428.0 599.0 529.0 618.0 666.0 631.0 731.0 644.0 771.0 669.0 836.0 679.0 857.0 691.0 876.0 701.0 887.0 712.0 896.0 728.0 904.0 745.0 905.0 759.0 899.0 768.0 891.0 774.0 882.0 778.0 871.0 781.0 852.0 780.0 839.0 777.0 826.0 757.0 775.0 751.0 750.0 754.0 735.0 776.0 707.0 781.0 697.0 784.0 687.0 785.0 675.0 783.0 663.0 774.0 620.0 771.0 598.0 771.0 583.0 773.0 569.0 779.0 548.0 800.0 501.0 827.0 434.0 854.0 372.0 858.0 353.0 862.0 299.0 865.0 291.0 875.0 277.0 878.0 268.0 876.0 245.0 869.0 223.0 857.0 201.0 846.0 191.0 835.0 188.0 826.0 194.0 819.0 207.0 814.0 227.0 800.0 322.0 795.0 360.0 794.0 406.0 796.0 454.0 807.0 543.0 818.0 587.0 834.0 622.0 850.0 649.0 863.0 665.0 895.0 694.0 903.0 705.0 905.0 711.0 905.0 718.0 901.0 724.0 895.0 728.0 887.0 731.0 879.0 730.0 871.0 724.0 864.0 716.0 832.0 660.0 809.0 615.0 788.0 568.0 774.0 531.0 745.0 427.0 723.0 358.0 722.0 341.0 724.0 331.0 729.0 323.0 746.0 303.0 758.0 293.0 768.0 287.0 774.0 287.0 784.0 293.0 797.0 309.0 807.0 326.0 808.0 330.0 804.0 330.0 763.0 310.0 708.0 290.0 699.0 284.0 690.0 275.0 689.0 275.0 687.0 284.0 689.0 360.0 693.0 405.0 704.0 457.0 725.0 520.0 737.0 550.0 749.0 571.0 772.0 604.0 839.0 693.0 849.0 711.0 852.0 724.0 855.0 744.0 855.0 790.0 854.0 814.0 851.0 838.0 845.0 861.0 839.0 873.0 831.0 883.0 818.0 891.0 803.0 892.0 793.0 887.0 784.0 880.0 762.0 854.0 747.0 841.0 732.0 830.0 687.0 807.0 670.0 795.0 650.0 774.0 633.0 748.0 621.0 718.0 578.0 596.0 552.0 515.0 524.0 443.0 513.0 409.0 510.0 391.0 509.0 376.0 515.0 337.0 521.0 318.0 524.0 315.0 534.0 309.0 538.0 302.0 536.0 292.0 532.0 287.0 528.0 286.0 525.0 291.0 526.0 296.0 530.0 309.0 580.0 428.0 602.0 470.0 638.0 524.0 657.0 548.0 692.0 585.0 700.0 596.0 706.0 608.0 710.0 627.0 710.0 641.0 693.0 718.0"/>
<polyline points="430.0 705.0 413.0 757.0 405.0 775.0 399.0 784.0 391.0 792.0 368.0 805.0 343.0 816.0 322.0 822.0 306.0 823.0 290.0 821.0 272.0 815.0 249.0 801.0 235.0 788.0 224.0 774.0 221.0 763.0 220.0 752.0 223.0 740.0 228.0 728.0 243.0 705.0 278.0 662.0 293.0 638.0 334.0 557.0 351.0 517.0 360.0 483.0 364.0 456.0 363.0 430.0 360.0 383.0 361.0 356.0 364.0 343.0 371.0 326.0 379.0 315.0 385.0 308.0 351.0 284.0 325.0 270.0 306.0 264.0 288.0 266.0 285.0 268.0 285.0 270.0 304.0 289.0 311.0 305.0 312.0 316.0 311.0 366.0 319.0 423.0 323.0 487.0 326.0 508.0 330.0 520.0 336.0 529.0 363.0 559.0 377.0 578.0 397.0 616.0 410.0 650.0 414.0 671.0 411.0 681.0 407.0 684.0 401.0 684.0 391.0 678.0 386.0 670.0 382.0 658.0 379.0 636.0 373.0 519.0 375.0 434.0 373.0 370.0 375.0 338.0 380.0 315.0 389.0 297.0 395.0 289.0 403.0 283.0 410.0 282.0 418.0 284.0 425.0 289.0 431.0 298.0 435.0 310.0 438.0 324.0 438.0 357.0 432.0 425.0 413.0 519.0 395.0 672.0 384.0 738.0 374.0 778.0 362.0 808.0 348.0 837.0 332.0 863.0 314.0 886.0 295.0 903.0 281.0 911.0 268.0 913.0 257.0 909.0 253.0 903.0 250.0 894.0 249.0 871.0 254.0 844.0 271.0 777.0 273.0 754.0 272.0 739.0 268.0 726.0 262.0 714.0 250.0 697.0 227.0 666.0 220.0 655.0 216.0 643.0 213.0 630.0 211.0 609.0 212.0 559.0 211.0 544.0 186.0 475.0 159.0 389.0 147.0 345.0 145.0 344.0 142.0 347.0 127.0 370.0 157.0 328.0 171.0 316.0 177.0 316.0 182.0 324.0 200.0 397.0 202.0 411.0 202.0 461.0 194.0 542.0 190.0 570.0 185.0 589.0 169.0 628.0 149.0 661.0 117.0 700.0 106.0 720.0 102.0 735.0 104.0 744.0 108.0 751.0 115.0 757.0 124.0 760.0 132.0 759.0 140.0 753.0 151.0 740.0 200.0 642.0 216.0 605.0 229.0 572.0 255.0 479.0 273.0 425.0 275.0 412.0 274.0 406.0 271.0 402.0 257.0 398.0 243.0 398.0 239.0 401.0 235.0 406.0 221.0 436.0 212.0 461.0 211.0 469.0 212.0 475.0 218.0 480.0 233.0 480.0 252.0 475.0 272.0 468.0 289.0 459.0 299.0 450.0 304.0 442.0 309.0 428.0 313.0 410.0 313.0 411.0 312.0 460.0 308.0 493.0 293.0 549.0 275.0 604.0 266.0 624.0 251.0 650.0 230.0 682.0 181.0 747.0 171.0 764.0 167.0 777.0 165.0 809.0 166.0 853.0 169.0 882.0 174.0 902.0 179.0 913.0 184.0 921.0 192.0 925.0 200.0 926.0 214.0 920.0 228.0 909.0 253.0 880.0 267.0 868.0 319.0 841.0 334.0 830.0 355.0 810.0 378.0 778.0 391.0 751.0 408.0 707.0 430.0 640.0 457.0 551.0 489.0 465.0 495.0 444.0 498.0 422.0 498.0 406.0 496.0 384.0 491.0 365.0 484.0 352.0 475.0 344.0 470.0 344.0 465.0 347.0 450.0 370.0 446.0 385.0 447.0 388.0 460.0 395.0 466.0 401.0 468.0 411.0 466.0 423.0 457.0 442.0 422.0 501.0 392.0 567.0 377.0 591.0 336.0 648.0 311.0 678.0 265.0 726.0 252.0 744.0 244.0 759.0"/>
</g>
</svg>