<svg xmlns="http://www.w3.org/2000/svg" height="26.45834cm" viewBox="0 0 1000 1000" width="26.45834cm">
<g fill="none" stroke="#00f">
<polyline points="600.0 730.0 630.0 750.0 720.0 770.0 770.0 740.0 790.0 710.0 790.0 650.0 720.0 560.0 660.0 440.0 630.0 250.0 620.0 220.0 600.0 220.0 680.0 200.0 710.0 230.0 680.0 300.0 680.0 530.0 610.0 650.0 610.0 710.0 630.0 660.0 620.0 370.0 610.0 320.0 590.0 300.0 560.0 320.0 560.0 370.0 640.0 770.0 700.0 870.0 730.0 890.0 760.0 880.0 770.0 850.0 740.0 740.0 780.0 660.0 790.0 560.0 860.0 270.0 860.0 230.0 840.0 200.0 820.0 200.0 800.0 220.0 790.0 430.0 820.0 590.0 900.0 710.0 890.0 720.0 850.0 700.0 790.0 590.0 720.0 360.0 720.0 320.0 760.0 280.0 810.0 310.0 730.0 310.0 700.0 290.0 700.0 390.0 730.0 510.0 850.0 730.0 830.0 890.0 670.0 790.0 630.0 740.0 500.0 420.0 500.0 340.0 520.0 300.0 540.0 290.0 530.0 270.0 610.0 450.0 700.0 610.0 700.0 720.0"/>
<polyline points="410.0 780.0 390.0 800.0 290.0 820.0 230.0 780.0 230.0 730.0 300.0 640.0 370.0 480.0 370.0 340.0 380.0 290.0 300.0 280.0 290.0 290.0 320.0 510.0 390.0 590.0 420.0 660.0 400.0 690.0 380.0 670.0 360.0 510.0 360.0 330.0 400.0 270.0 420.0 290.0 430.0 340.0 380.0 740.0 330.0 890.0 290.0 920.0 260.0 920.0 240.0 860.0 260.0 740.0 220.0 660.0 220.0 550.0 140.0 360.0 180.0 320.0 210.0 390.0 210.0 470.0 180.0 620.0 110.0 730.0 120.0 750.0 150.0 740.0 220.0 630.0 280.0 420.0 240.0 400.0 220.0 420.0 210.0 470.0 250.0 490.0 290.0 470.0 310.0 420.0 270.0 590.0 160.0 770.0 170.0 860.0 200.0 930.0 230.0 930.0 370.0 790.0 490.0 390.0 470.0 360.0 450.0 400.0 470.0 450.0 370.0 620.0 330.0 670.0 260.0 720.0 230.0 750.0"/>
<polyline points="590.0 720.0 620.0 750.0 720.0 760.0 760.0 740.0 790.0 710.0 790.0 650.0 700.0 540.0 640.0 380.0 630.0 250.0 600.0 220.0 680.0 200.0 700.0 230.0 680.0 300.0 680.0 530.0 620.0 630.0 600.0 700.0 620.0 700.0 630.0 670.0 630.0 370.0 610.0 320.0 580.0 290.0 560.0 310.0 560.0 360.0 630.0 750.0 700.0 860.0 730.0 890.0 760.0 890.0 770.0 850.0 740.0 740.0 780.0 670.0 780.0 570.0 870.0 260.0 860.0 230.0 840.0 200.0 820.0 190.0 810.0 220.0 790.0 430.0 820.0 590.0 900.0 710.0 890.0 720.0 850.0 700.0 790.0 590.0 720.0 360.0 720.0 320.0 770.0 280.0 810.0 310.0 730.0 310.0 700.0 290.0 700.0 390.0 720.0 510.0 850.0 730.0 850.0 820.0 830.0 890.0 800.0 880.0 750.0 830.0 670.0 790.0 630.0 740.0 510.0 420.0 510.0 340.0 520.0 310.0 540.0 300.0 530.0 280.0 600.0 460.0 710.0 610.0 700.0 720.0"/>
<polyline points="410.0 770.0 380.0 800.0 290.0 820.0 230.0 780.0 230.0 730.0 310.0 630.0 370.0 470.0 360.0 350.0 380.0 300.0 330.0 270.0 290.0 270.0 320.0 510.0 400.0 610.0 410.0 660.0 400.0 690.0 380.0 640.0 370.0 380.0 370.0 310.0 400.0 280.0 430.0 300.0 430.0 360.0 370.0 780.0 320.0 890.0 280.0 920.0 260.0 910.0 240.0 870.0 260.0 730.0 220.0 660.0 210.0 540.0 140.0 350.0 130.0 370.0 180.0 320.0 210.0 400.0 210.0 470.0 180.0 620.0 110.0 730.0 120.0 750.0 150.0 740.0 220.0 630.0 280.0 420.0 240.0 400.0 220.0 420.0 210.0 470.0 250.0 480.0 290.0 470.0 310.0 420.0 270.0 600.0 170.0 770.0 180.0 890.0 200.0 930.0 230.0 920.0 370.0 790.0 480.0 450.0 490.0 390.0 470.0 360.0 450.0 390.0 470.0 440.0 390.0 580.0 340.0 660.0 260.0 710.0 240.0 750.0"/>
<polyline points="400.0 570.0 470.0 430.0 450.0 390.0 470.0 350.0 490.0 390.0 490.0 450.0 380.0 780.0 340.0 830.0 200.0 930.0 170.0 880.0 170.0 770.0 270.0 600.0 310.0 410.0 290.0 460.0 240.0 480.0 210.0 470.0 220.0 420.0 240.0 400.0 280.0 410.0 230.0 580.0 160.0 740.0 140.0 760.0 120.0 750.0 110.0 730.0 180.0 610.0 210.0 480.0 210.0 400.0 180.0 320.0 130.0 360.0 140.0 350.0 220.0 540.0 220.0 660.0 260.0 750.0 240.0 860.0 260.0 910.0 290.0 920.0 330.0 890.0 380.0 740.0 430.0 350.0 420.0 300.0 400.0 280.0 370.0 340.0 370.0 510.0 380.0 660.0 400.0 690.0 410.0 670.0 390.0 590.0 320.0 510.0 300.0 310.0 290.0 280.0 300.0 270.0 340.0 270.0 380.0 300.0 360.0 350.0 370.0 470.0 300.0 630.0 230.0 730.0 230.0 780.0 290.0 820.0 390.0 800.0 410.0 770.0 450.0 660.0"/>
<polyline points="590.0 720.0 620.0 750.0 730.0 760.0 790.0 710.0 790.0 650.0 700.0 540.0 640.0 380.0 630.0 240.0 610.0 220.0 680.0 210.0 700.0 240.0 690.0 300.0 680.0 530.0 620.0 630.0 600.0 700.0 620.0 710.0 630.0 670.0 630.0 370.0 620.0 310.0 590.0 290.0 560.0 310.0 560.0 360.0 630.0 740.0 690.0 870.0 730.0 900.0 760.0 890.0 780.0 850.0 750.0 740.0 780.0 680.0 780.0 560.0 870.0 260.0 840.0 200.0 820.0 190.0 810.0 220.0 790.0 440.0 820.0 600.0 900.0 710.0 890.0 720.0 860.0 710.0 790.0 590.0 720.0 360.0 720.0 330.0 770.0 280.0 810.0 320.0 690.0 280.0 700.0 390.0 720.0 510.0 850.0 730.0 850.0 840.0 820.0 890.0 670.0 790.0 630.0 750.0 510.0 420.0 510.0 340.0 540.0 300.0 530.0 280.0 600.0 460.0 710.0 610.0 700.0 720.0"/>
<polyline points="590.0 720.0 620.0 750.0 730.0 760.0 790.0 710.0 780.0 650.0 710.0 550.0 640.0 390.0 630.0 240.0 610.0 220.0 670.0 210.0 700.0 240.0 680.0 530.0 610.0 630.0 600.0 700.0 620.0 710.0 630.0 670.0 630.0 380.0 620.0 310.0 590.0 290.0 570.0 300.0 570.0 350.0 630.0 740.0 690.0 870.0 730.0 900.0 760.0 900.0 780.0 850.0 750.0 750.0 780.0 680.0 780.0 570.0 850.0 370.0 870.0 270.0 850.0 200.0 830.0 190.0 810.0 220.0 790.0 440.0 820.0 590.0 850.0 650.0 900.0 700.0 890.0 730.0 860.0 710.0 800.0 600.0 720.0 360.0 730.0 320.0 770.0 280.0 810.0 320.0 690.0 280.0 690.0 400.0 730.0 520.0 850.0 720.0 850.0 840.0 820.0 890.0 670.0 790.0 630.0 740.0 510.0 400.0 510.0 330.0 540.0 300.0 530.0 280.0 600.0 460.0 710.0 610.0 700.0 720.0"/>
<polyline points="410.0 770.0 380.0 800.0 290.0 820.0 230.0 770.0 230.0 730.0 300.0 620.0 370.0 470.0 360.0 350.0 380.0 300.0 330.0 270.0 290.0 270.0 310.0 310.0 320.0 510.0 400.0 610.0 410.0 670.0 400.0 690.0 380.0 640.0 370.0 380.0 380.0 310.0 400.0 280.0 430.0 300.0 440.0 360.0 370.0 780.0 320.0 890.0 280.0 910.0 260.0 910.0 250.0 870.0 270.0 740.0 220.0 650.0 210.0 540.0 140.0 350.0 130.0 370.0 170.0 320.0 200.0 400.0 200.0 490.0 180.0 610.0 110.0 730.0 120.0 760.0 150.0 740.0 230.0 570.0 280.0 410.0 250.0 400.0 230.0 420.0 210.0 470.0 220.0 480.0 290.0 460.0 310.0 410.0 310.0 490.0 270.0 600.0 170.0 780.0 170.0 880.0 200.0 930.0 340.0 830.0 380.0 780.0 490.0 460.0 490.0 380.0 470.0 350.0 450.0 390.0 470.0 410.0 470.0 430.0 390.0 570.0 240.0 760.0"/>
<polyline points="590.0 720.0 620.0 750.0 730.0 760.0 790.0 710.0 780.0 650.0 700.0 550.0 630.0 390.0 630.0 240.0 610.0 210.0 670.0 220.0 700.0 250.0 690.0 530.0 610.0 630.0 600.0 700.0 620.0 710.0 630.0 680.0 640.0 380.0 620.0 310.0 590.0 280.0 570.0 300.0 570.0 340.0 630.0 730.0 690.0 880.0 730.0 900.0 760.0 900.0 780.0 850.0 750.0 750.0 780.0 690.0 770.0 570.0 850.0 370.0 880.0 270.0 850.0 190.0 830.0 190.0 810.0 230.0 800.0 450.0 820.0 590.0 850.0 650.0 900.0 700.0 900.0 730.0 860.0 720.0 810.0 620.0 720.0 360.0 730.0 320.0 770.0 290.0 810.0 330.0 690.0 280.0 690.0 400.0 720.0 520.0 850.0 720.0 850.0 840.0 820.0 890.0 790.0 890.0 750.0 840.0 670.0 790.0 630.0 750.0 510.0 410.0 510.0 340.0 540.0 300.0 530.0 290.0 600.0 470.0 710.0 610.0 690.0 720.0"/>
<polyline points="410.0 780.0 370.0 800.0 290.0 820.0 220.0 770.0 230.0 730.0 290.0 640.0 350.0 520.0 360.0 360.0 380.0 310.0 330.0 270.0 290.0 270.0 310.0 310.0 330.0 510.0 400.0 620.0 410.0 670.0 400.0 680.0 380.0 640.0 370.0 370.0 380.0 320.0 400.0 280.0 430.0 300.0 440.0 360.0 370.0 780.0 310.0 890.0 280.0 910.0 260.0 910.0 250.0 870.0 270.0 740.0 220.0 640.0 210.0 540.0 150.0 350.0 130.0 370.0 170.0 320.0 200.0 410.0 190.0 540.0 170.0 630.0 110.0 720.0 120.0 760.0 150.0 740.0 230.0 570.0 280.0 410.0 260.0 400.0 240.0 410.0 220.0 480.0 290.0 460.0 310.0 410.0 310.0 490.0 270.0 600.0 170.0 780.0 170.0 880.0 190.0 930.0 330.0 830.0 380.0 780.0 490.0 470.0 500.0 380.0 480.0 350.0 470.0 350.0 450.0 380.0 470.0 400.0 470.0 420.0 390.0 570.0 240.0 760.0"/>
</g>
</svg>