<svg xmlns="http://www.w3.org/2000/svg" height="26.45834cm" viewBox="0 0 1000 1000" width="26.45834cm">

<polyline fill="none" stroke="#00f" points="703.0 710.0 712.0 654.0 711.0 634.0 706.0 616.0 702.0 604.0 682.0 570.0 622.0 482.0 600.0 440.0 574.0 372.0 530.0 280.0 528.0 273.0 529.0 272.0 544.0 290.0 546.0 294.0 544.0 296.0 528.0 298.0 522.0 300.0 518.0 305.0 508.0 323.0 502.0 341.0 498.0 362.0 497.0 383.0 499.0 404.0 503.0 423.0 513.0 449.0 543.0 516.0 570.0 596.0 593.0 656.0 617.0 714.0 632.0 742.0 651.0 768.0 673.0 790.0 696.0 803.0 734.0 818.0 744.0 824.0 764.0 840.0 788.0 866.0 802.0 880.0 816.0 887.0 829.0 887.0 835.0 882.0 840.0 866.0 853.0 790.0 855.0 774.0 856.0 742.0 852.0 719.0 838.0 690.0 806.0 645.0 753.0 563.0 728.0 513.0 718.0 482.0 710.0 449.0 698.0 387.0 697.0 350.0 700.0 301.0 698.0 288.0 702.0 298.0 710.0 306.0 716.0 309.0 730.0 313.0 750.0 315.0 806.0 316.0 812.0 314.0 812.0 308.0 802.0 294.0 786.0 280.0 774.0 275.0 765.0 276.0 730.0 314.0 722.0 324.0 718.0 341.0 720.0 363.0 734.0 415.0 760.0 515.0 780.0 574.0 792.0 601.0 839.0 682.0 853.0 702.0 864.0 714.0 872.0 718.0 879.0 720.0 889.0 717.0 896.0 709.0 894.0 702.0 875.0 686.0 856.0 663.0 834.0 628.0 822.0 602.0 814.0 573.0 800.0 518.0 789.0 460.0 786.0 436.0 784.0 397.0 786.0 331.0 794.0 274.0 802.0 222.0 808.0 205.0 810.0 201.0 816.0 196.0 826.0 196.0 838.0 201.0 852.0 212.0 862.0 227.0 866.0 241.0 866.0 260.0 860.0 278.0 850.0 301.0 848.0 333.0 842.0 369.0 786.0 561.0 783.0 578.0 788.0 633.0 785.0 661.0 776.0 681.0 750.0 716.0 744.0 726.0 740.0 742.0 739.0 754.0 741.0 766.0 762.0 822.0 770.0 846.0 772.0 866.0 766.0 882.0 760.0 887.0 752.0 890.0 739.0 888.0 729.0 885.0 719.0 879.0 703.0 866.0 684.0 844.0 666.0 819.0 650.0 792.0 640.0 771.0 630.0 740.0 624.0 715.0 605.0 616.0 590.0 511.0 586.0 489.0 568.0 422.0 558.0 366.0 556.0 338.0 559.0 320.0 569.0 303.0 580.0 297.0 587.0 296.0 595.0 299.0 606.0 308.0 614.0 324.0 622.0 350.0 624.0 388.0 624.0 438.0 630.0 534.0 632.0 640.0 630.0 679.0 627.0 691.0 622.0 700.0 614.0 706.0 608.0 706.0 604.0 704.0 602.0 699.0 602.0 692.0 608.0 665.0 616.0 640.0 631.0 610.0 668.0 554.0 676.0 529.0 678.0 458.0 684.0 373.0 684.0 350.0 680.0 320.0 681.0 300.0 688.0 276.0 698.0 255.0 704.0 235.0 704.0 222.0 702.0 214.0 695.0 208.0 687.0 202.0 672.0 200.0 656.0 203.0 612.0 226.0 606.0 226.0 604.0 223.0 604.0 219.0 607.0 216.0 614.0 216.0 622.0 226.0 630.0 241.0 634.0 266.0 634.0 317.0 638.0 363.0 648.0 404.0 664.0 451.0 698.0 524.0 717.0 560.0 740.0 592.0 774.0 633.0 786.0 653.0 792.0 667.0 796.0 681.0 796.0 695.0 792.0 708.0 782.0 726.0 766.0 742.0 755.0 750.0 730.0 763.0 706.0 769.0 689.0 770.0 672.0 767.0 638.0 756.0 612.0 744.0 604.0 738.0 598.0 728.0 590.0 708.0 570.0 644.0 554.0 609.0"/>
<polyline fill="none" stroke="#00f" points="236.0 746.0 249.0 724.0 260.0 711.0 270.0 704.0 310.0 684.0 329.0 671.0 347.0 653.0 368.0 626.0 403.0 572.0 431.0 514.0 462.0 462.0 469.0 446.0 471.0 433.0 469.0 422.0 464.0 414.0 455.0 403.0 454.0 400.0 455.0 392.0 465.0 369.0 471.0 362.0 474.0 361.0 477.0 363.0 485.0 378.0 488.0 396.0 488.0 420.0 482.0 447.0 448.0 545.0 430.0 614.0 390.0 750.0 374.0 787.0 363.0 806.0 350.0 822.0 334.0 835.0 295.0 858.0 274.0 874.0 256.0 892.0 232.0 924.0 223.0 930.0 214.0 934.0 201.0 934.0 194.0 930.0 186.0 918.0 171.0 858.0 163.0 810.0 162.0 787.0 164.0 772.0 173.0 752.0 207.0 704.0 234.0 660.0 257.0 619.0 272.0 586.0 287.0 538.0 299.0 486.0 303.0 455.0 302.0 423.0 304.0 418.0 305.0 422.0 303.0 444.0 298.0 458.0 290.0 469.0 274.0 480.0 265.0 484.0 250.0 485.0 226.0 481.0 215.0 475.0 210.0 469.0 207.0 461.0 208.0 447.0 212.0 432.0 217.0 422.0 232.0 401.0 238.0 397.0 242.0 396.0 276.0 408.0 280.0 416.0 281.0 422.0 278.0 436.0 262.0 488.0 248.0 542.0 235.0 588.0 224.0 620.0 215.0 639.0 168.0 722.0 158.0 738.0 147.0 750.0 136.0 756.0 125.0 753.0 118.0 748.0 113.0 742.0 111.0 735.0 111.0 729.0 113.0 723.0 158.0 656.0 174.0 626.0 181.0 608.0 198.0 548.0 211.0 482.0 215.0 439.0 212.0 398.0 194.0 326.0 191.0 320.0 185.0 318.0 179.0 321.0 146.0 347.0 139.0 354.0 137.0 360.0 139.0 365.0 141.0 366.0 141.0 360.0 140.0 358.0 140.0 364.0 142.0 378.0 150.0 400.0 197.0 492.0 216.0 525.0 224.0 548.0 226.0 576.0 220.0 632.0 220.0 664.0 223.0 676.0 228.0 688.0 256.0 726.0 260.0 746.0 256.0 779.0 243.0 834.0 240.0 858.0 240.0 872.0 242.0 886.0 246.0 898.0 252.0 908.0 260.0 916.0 268.0 922.0 278.0 924.0 288.0 924.0 304.0 917.0 314.0 909.0 323.0 898.0 338.0 873.0 350.0 843.0 369.0 784.0 382.0 734.0 392.0 668.0 405.0 524.0 420.0 428.0 427.0 332.0 425.0 310.0 422.0 297.0 416.0 286.0 410.0 278.0 402.0 274.0 394.0 275.0 386.0 281.0 378.0 290.0 368.0 310.0 364.0 326.0 360.0 344.0 359.0 370.0 362.0 431.0 364.0 506.0 375.0 641.0 378.0 662.0 383.0 674.0 388.0 682.0 395.0 686.0 402.0 688.0 410.0 682.0 414.0 673.0 415.0 662.0 415.0 648.0 410.0 626.0 402.0 603.0 395.0 590.0 386.0 578.0 372.0 564.0 333.0 534.0 324.0 524.0 318.0 513.0 312.0 482.0 308.0 416.0 300.0 362.0 300.0 312.0 298.0 302.0 288.0 289.0 288.0 285.0 294.0 280.0 306.0 276.0 330.0 273.0 345.0 275.0 364.0 280.0 377.0 287.0 382.0 292.0 381.0 297.0 372.0 313.0 370.0 322.0 366.0 344.0 366.0 357.0 374.0 421.0 374.0 467.0 370.0 490.0 360.0 528.0 348.0 554.0 302.0 643.0 282.0 672.0 247.0 706.0 239.0 716.0 232.0 728.0 228.0 740.0 225.0 752.0 226.0 764.0 228.0 774.0 235.0 786.0 251.0 801.0 271.0 812.0 292.0 818.0 308.0 819.0 345.0 815.0 373.0 809.0 389.0 803.0 403.0 793.0 414.0 776.0 438.0 698.0 452.0 664.0"/>
<polyline fill="none" stroke="#00f" points="701.0 710.0 712.0 645.0 710.0 626.0 706.0 614.0 694.0 589.0 682.0 570.0 625.0 490.0 604.0 457.0 594.0 435.0 562.0 354.0 532.0 292.0 528.0 278.0 528.0 275.0 532.0 277.0 540.0 288.0 543.0 295.0 542.0 298.0 537.0 301.0 526.0 302.0 522.0 305.0 512.0 322.0 506.0 338.0 502.0 356.0 500.0 382.0 503.0 408.0 508.0 428.0 548.0 524.0 592.0 648.0 618.0 716.0 632.0 744.0 650.0 770.0 672.0 791.0 690.0 802.0 734.0 822.0 749.0 830.0 759.0 838.0 786.0 870.0 801.0 882.0 816.0 888.0 820.0 889.0 828.0 887.0 835.0 880.0 840.0 871.0 846.0 844.0 854.0 780.0 856.0 748.0 854.0 726.0 849.0 712.0 838.0 691.0 797.0 634.0 752.0 565.0 734.0 530.0 728.0 514.0 715.0 476.0 699.0 404.0 695.0 368.0 696.0 317.0 696.0 285.0 706.0 299.0 712.0 303.0 728.0 308.0 808.0 319.0 811.0 318.0 812.0 317.0 810.0 310.0 798.0 294.0 786.0 284.0 776.0 278.0 766.0 279.0 736.0 309.0 725.0 323.0 721.0 331.0 719.0 340.0 718.0 350.0 720.0 362.0 736.0 414.0 760.0 506.0 774.0 550.0 790.0 593.0 800.0 613.0 843.0 687.0 858.0 708.0 865.0 716.0 876.0 722.0 884.0 722.0 894.0 718.0 898.0 711.0 898.0 705.0 876.0 684.0 852.0 657.0 834.0 626.0 822.0 600.0 813.0 571.0 800.0 516.0 788.0 434.0 786.0 387.0 788.0 337.0 798.0 266.0 808.0 215.0 814.0 200.0 822.0 194.0 833.0 195.0 844.0 202.0 858.0 216.0 865.0 229.0 868.0 243.0 868.0 262.0 865.0 275.0 853.0 304.0 847.0 362.0 783.0 560.0 780.0 572.0 780.0 590.0 786.0 648.0 785.0 664.0 778.0 685.0 752.0 720.0 747.0 728.0 742.0 743.0 743.0 760.0 746.0 772.0 766.0 822.0 772.0 846.0 773.0 868.0 770.0 877.0 766.0 884.0 760.0 890.0 752.0 893.0 738.0 893.0 722.0 886.0 702.0 870.0 682.0 848.0 666.0 822.0 641.0 771.0 630.0 740.0 621.0 698.0 605.0 608.0 593.0 520.0 586.0 482.0 568.0 414.0 560.0 350.0 560.0 325.0 563.0 314.0 570.0 301.0 581.0 294.0 593.0 294.0 604.0 302.0 612.0 311.0 618.0 322.0 624.0 342.0 627.0 372.0 626.0 438.0 632.0 534.0 632.0 648.0 630.0 686.0 626.0 696.0 620.0 703.0 614.0 707.0 608.0 708.0 604.0 706.0 602.0 700.0 602.0 683.0 610.0 652.0 624.0 621.0 641.0 594.0 667.0 561.0 675.0 544.0 678.0 530.0 681.0 450.0 686.0 372.0 683.0 307.0 687.0 283.0 700.0 252.0 704.0 239.0 704.0 226.0 700.0 218.0 694.0 212.0 686.0 207.0 670.0 203.0 650.0 208.0 615.0 223.0 608.0 224.0 605.0 222.0 606.0 217.0 608.0 215.0 615.0 216.0 625.0 231.0 630.0 248.0 632.0 260.0 630.0 316.0 632.0 342.0 641.0 389.0 653.0 430.0 682.0 497.0 700.0 534.0 720.0 568.0 734.0 588.0 770.0 628.0 786.0 654.0 792.0 668.0 794.0 682.0 794.0 696.0 790.0 708.0 784.0 720.0 772.0 736.0 749.0 752.0 725.0 763.0 702.0 767.0 678.0 766.0 649.0 760.0 622.0 752.0 604.0 739.0 596.0 729.0 586.0 700.0 568.0 644.0 552.0 608.0"/>
<polyline fill="none" stroke="#00f" points="238.0 748.0 251.0 726.0 267.0 710.0 309.0 684.0 336.0 660.0 362.0 629.0 398.0 576.0 429.0 511.0 463.0 453.0 468.0 438.0 470.0 430.0 469.0 419.0 464.0 410.0 454.0 401.0 452.0 396.0 454.0 386.0 466.0 362.0 469.0 358.0 472.0 357.0 478.0 360.0 486.0 372.0 490.0 392.0 490.0 422.0 484.0 450.0 453.0 539.0 428.0 630.0 390.0 750.0 374.0 786.0 358.0 812.0 338.0 831.0 322.0 842.0 289.0 860.0 269.0 876.0 255.0 890.0 235.0 916.0 222.0 927.0 208.0 932.0 200.0 932.0 192.0 928.0 187.0 921.0 182.0 912.0 177.0 893.0 168.0 849.0 164.0 818.0 163.0 795.0 165.0 774.0 170.0 760.0 177.0 748.0 211.0 700.0 247.0 642.0 265.0 608.0 274.0 589.0 289.0 541.0 301.0 490.0 305.0 463.0 305.0 423.0 306.0 416.0 307.0 417.0 306.0 432.0 302.0 446.0 299.0 455.0 290.0 466.0 275.0 477.0 260.0 481.0 245.0 483.0 230.0 482.0 219.0 478.0 213.0 474.0 209.0 468.0 208.0 460.0 210.0 446.0 221.0 420.0 234.0 402.0 243.0 397.0 272.0 405.0 276.0 408.0 279.0 414.0 278.0 428.0 260.0 486.0 237.0 572.0 226.0 606.0 213.0 637.0 160.0 732.0 150.0 746.0 139.0 756.0 127.0 756.0 120.0 752.0 114.0 746.0 110.0 740.0 109.0 733.0 110.0 726.0 118.0 711.0 158.0 654.0 177.0 617.0 191.0 572.0 209.0 480.0 212.0 437.0 209.0 401.0 192.0 330.0 190.0 322.0 186.0 318.0 179.0 318.0 146.0 346.0 137.0 357.0 135.0 363.0 137.0 366.0 140.0 364.0 142.0 355.0 145.0 376.0 153.0 400.0 194.0 490.0 218.0 538.0 221.0 550.0 222.0 562.0 218.0 630.0 219.0 660.0 226.0 678.0 256.0 720.0 260.0 730.0 263.0 740.0 264.0 752.0 261.0 773.0 245.0 842.0 242.0 864.0 242.0 878.0 245.0 892.0 252.0 907.0 259.0 914.0 267.0 920.0 276.0 922.0 286.0 920.0 302.0 914.0 316.0 900.0 326.0 890.0 337.0 870.0 350.0 842.0 372.0 776.0 382.0 735.0 390.0 686.0 395.0 644.0 409.0 509.0 424.0 413.0 430.0 332.0 429.0 317.0 424.0 298.0 419.0 287.0 412.0 280.0 404.0 276.0 396.0 277.0 388.0 283.0 380.0 292.0 371.0 311.0 367.0 327.0 362.0 370.0 366.0 440.0 366.0 507.0 374.0 626.0 380.0 662.0 384.0 674.0 390.0 682.0 396.0 686.0 406.0 686.0 412.0 677.0 414.0 667.0 414.0 648.0 409.0 626.0 400.0 604.0 393.0 592.0 385.0 580.0 372.0 566.0 334.0 534.0 324.0 519.0 318.0 506.0 314.0 476.0 312.0 431.0 303.0 362.0 303.0 310.0 299.0 298.0 288.0 286.0 288.0 280.0 294.0 276.0 304.0 273.0 314.0 272.0 329.0 272.0 349.0 277.0 363.0 283.0 376.0 290.0 382.0 295.0 382.0 300.0 370.0 323.0 364.0 352.0 372.0 429.0 371.0 466.0 364.0 503.0 355.0 532.0 307.0 628.0 285.0 664.0 272.0 680.0 243.0 710.0 229.0 732.0 225.0 744.0 224.0 756.0 225.0 767.0 228.0 777.0 238.0 790.0 250.0 801.0 260.0 808.0 277.0 815.0 293.0 819.0 308.0 820.0 351.0 814.0 373.0 808.0 388.0 801.0 402.0 791.0 413.0 775.0 436.0 698.0 452.0 664.0"/>
<polyline fill="none" stroke="#00f" points="698.0 709.0 711.0 644.0 710.0 630.0 708.0 618.0 700.0 600.0 694.0 588.0 656.0 538.0 623.0 493.0 598.0 452.0 565.0 371.0 531.0 296.0 527.0 281.0 528.0 279.0 530.0 279.0 535.0 284.0 540.0 294.0 541.0 300.0 538.0 303.0 526.0 306.0 522.0 310.0 516.0 317.0 510.0 335.0 505.0 358.0 503.0 376.0 504.0 400.0 509.0 420.0 518.0 446.0 545.0 509.0 580.0 611.0 610.0 694.0 625.0 731.0 636.0 752.0 656.0 778.0 677.0 796.0 694.0 806.0 733.0 824.0 754.0 838.0 786.0 873.0 795.0 882.0 805.0 888.0 815.0 890.0 828.0 887.0 835.0 880.0 840.0 870.0 848.0 842.0 854.0 794.0 856.0 762.0 855.0 740.0 853.0 726.0 846.0 705.0 834.0 686.0 792.0 628.0 751.0 567.0 732.0 532.0 721.0 501.0 704.0 437.0 695.0 392.0 693.0 362.0 693.0 282.0 704.0 295.0 718.0 302.0 806.0 323.0 810.0 322.0 810.0 317.0 802.0 305.0 786.0 288.0 774.0 281.0 766.0 282.0 738.0 308.0 724.0 326.0 720.0 343.0 721.0 361.0 744.0 436.0 761.0 504.0 778.0 556.0 790.0 585.0 830.0 662.0 848.0 692.0 858.0 708.0 874.0 723.0 885.0 725.0 892.0 722.0 900.0 716.0 901.0 711.0 900.0 706.0 896.0 701.0 866.0 672.0 849.0 650.0 834.0 625.0 819.0 590.0 809.0 554.0 802.0 522.0 792.0 457.0 790.0 425.0 789.0 378.0 792.0 336.0 799.0 281.0 810.0 215.0 814.0 203.0 822.0 194.0 832.0 192.0 844.0 197.0 858.0 212.0 866.0 226.0 872.0 246.0 872.0 264.0 867.0 279.0 857.0 297.0 855.0 307.0 852.0 350.0 844.0 384.0 828.0 423.0 800.0 505.0 785.0 546.0 778.0 570.0 777.0 597.0 785.0 656.0 785.0 668.0 783.0 679.0 776.0 694.0 752.0 726.0 748.0 735.0 746.0 744.0 746.0 760.0 749.0 771.0 768.0 821.0 774.0 840.0 776.0 852.0 775.0 868.0 770.0 883.0 764.0 890.0 756.0 895.0 746.0 897.0 736.0 897.0 726.0 894.0 715.0 888.0 700.0 874.0 681.0 850.0 662.0 816.0 642.0 771.0 632.0 740.0 624.0 707.0 610.0 632.0 594.0 512.0 572.0 422.0 563.0 356.0 562.0 336.0 564.0 318.0 567.0 307.0 572.0 298.0 578.0 292.0 586.0 290.0 594.0 291.0 607.0 300.0 614.0 309.0 623.0 327.0 630.0 364.0 630.0 438.0 634.0 509.0 633.0 664.0 628.0 691.0 621.0 704.0 615.0 708.0 606.0 709.0 601.0 702.0 600.0 694.0 600.0 684.0 604.0 666.0 610.0 646.0 619.0 627.0 630.0 610.0 666.0 568.0 675.0 550.0 679.0 537.0 682.0 514.0 684.0 448.0 689.0 372.0 686.0 302.0 688.0 290.0 702.0 246.0 703.0 238.0 701.0 226.0 696.0 219.0 688.0 213.0 680.0 209.0 664.0 207.0 648.0 210.0 614.0 221.0 609.0 222.0 606.0 220.0 606.0 217.0 610.0 214.0 616.0 216.0 622.0 226.0 628.0 242.0 630.0 259.0 628.0 296.0 629.0 335.0 635.0 374.0 648.0 424.0 670.0 476.0 706.0 550.0 728.0 582.0 770.0 628.0 782.0 648.0 791.0 668.0 792.0 676.0 794.0 690.0 790.0 708.0 780.0 726.0 766.0 740.0 744.0 754.0 720.0 762.0 703.0 764.0 668.0 763.0 644.0 760.0 622.0 753.0 607.0 744.0 595.0 730.0 589.0 716.0 570.0 650.0 551.0 608.0"/>
<polyline fill="none" stroke="#00f" points="241.0 750.0 254.0 729.0 268.0 712.0 308.0 684.0 331.0 663.0 360.0 626.0 385.0 591.0 396.0 572.0 426.0 508.0 458.0 454.0 467.0 435.0 469.0 422.0 467.0 412.0 462.0 404.0 452.0 396.0 450.0 391.0 453.0 380.0 463.0 361.0 470.0 353.0 475.0 353.0 479.0 356.0 488.0 370.0 492.0 386.0 494.0 404.0 492.0 424.0 486.0 453.0 453.0 548.0 422.0 653.0 398.0 728.0 388.0 758.0 378.0 780.0 357.0 811.0 342.0 826.0 321.0 842.0 273.0 869.0 255.0 886.0 234.0 912.0 225.0 920.0 212.0 928.0 198.0 930.0 191.0 926.0 182.0 915.0 178.0 904.0 174.0 884.0 168.0 848.0 164.0 810.0 164.0 788.0 166.0 774.0 170.0 762.0 177.0 749.0 224.0 684.0 252.0 638.0 272.0 598.0 284.0 565.0 303.0 493.0 307.0 466.0 308.0 426.0 309.0 415.0 306.0 434.0 304.0 443.0 294.0 459.0 288.0 466.0 276.0 473.0 261.0 478.0 246.0 481.0 231.0 481.0 219.0 479.0 214.0 476.0 210.0 470.0 209.0 458.0 211.0 449.0 224.0 420.0 234.0 405.0 243.0 398.0 262.0 401.0 272.0 404.0 276.0 409.0 278.0 417.0 276.0 431.0 258.0 484.0 231.0 584.0 221.0 610.0 208.0 641.0 156.0 736.0 145.0 750.0 138.0 756.0 130.0 758.0 118.0 754.0 112.0 748.0 108.0 741.0 107.0 734.0 108.0 726.0 120.0 704.0 154.0 659.0 165.0 640.0 177.0 614.0 191.0 569.0 206.0 478.0 209.0 441.0 207.0 403.0 188.0 325.0 183.0 318.0 176.0 318.0 165.0 326.0 150.0 342.0 136.0 358.0 132.0 365.0 133.0 366.0 136.0 365.0 144.0 352.0 149.0 380.0 156.0 400.0 192.0 487.0 214.0 535.0 217.0 546.0 219.0 563.0 216.0 620.0 216.0 642.0 219.0 656.0 226.0 674.0 255.0 714.0 260.0 723.0 264.0 734.0 267.0 752.0 264.0 774.0 250.0 836.0 245.0 864.0 246.0 890.0 250.0 901.0 255.0 910.0 266.0 917.0 275.0 918.0 284.0 917.0 300.0 910.0 314.0 897.0 328.0 880.0 343.0 854.0 358.0 817.0 370.0 785.0 384.0 728.0 392.0 678.0 408.0 525.0 422.0 446.0 428.0 406.0 432.0 348.0 432.0 324.0 428.0 304.0 424.0 292.0 418.0 284.0 406.0 278.0 402.0 278.0 394.0 282.0 387.0 289.0 380.0 299.0 372.0 320.0 368.0 344.0 366.0 370.0 369.0 433.0 368.0 508.0 376.0 627.0 381.0 664.0 385.0 674.0 394.0 684.0 401.0 686.0 407.0 684.0 413.0 676.0 414.0 666.0 413.0 655.0 409.0 635.0 398.0 606.0 388.0 586.0 367.0 562.0 336.0 534.0 329.0 524.0 323.0 514.0 318.0 492.0 314.0 426.0 306.0 370.0 305.0 351.0 306.0 309.0 302.0 298.0 288.0 282.0 287.0 276.0 292.0 272.0 304.0 270.0 318.0 270.0 328.0 272.0 358.0 283.0 376.0 294.0 383.0 300.0 382.0 304.0 374.0 316.0 368.0 330.0 364.0 354.0 364.0 374.0 369.0 436.0 368.0 472.0 360.0 508.0 353.0 530.0 309.0 619.0 284.0 661.0 276.0 672.0 243.0 708.0 229.0 731.0 224.0 743.0 223.0 755.0 224.0 766.0 227.0 776.0 237.0 790.0 255.0 804.0 272.0 814.0 294.0 820.0 310.0 821.0 336.0 817.0 362.0 810.0 388.0 799.0 405.0 784.0 411.0 773.0 432.0 705.0 450.0 664.0"/>
<polyline fill="none" stroke="#00f" points="696.0 709.0 710.0 650.0 710.0 628.0 706.0 610.0 696.0 592.0 688.0 581.0 654.0 540.0 630.0 508.0 600.0 461.0 586.0 432.0 551.0 348.0 534.0 310.0 528.0 296.0 526.0 284.0 530.0 282.0 534.0 285.0 538.0 292.0 540.0 299.0 537.0 306.0 524.0 312.0 521.0 314.0 516.0 325.0 509.0 349.0 506.0 370.0 506.0 387.0 509.0 405.0 516.0 431.0 550.0 516.0 586.0 626.0 629.0 740.0 650.0 773.0 665.0 789.0 676.0 798.0 699.0 811.0 728.0 824.0 748.0 837.0 767.0 856.0 784.0 876.0 794.0 884.0 809.0 891.0 818.0 890.0 832.0 884.0 838.0 874.0 848.0 848.0 852.0 824.0 854.0 792.0 854.0 732.0 851.0 718.0 846.0 705.0 839.0 692.0 772.0 602.0 754.0 576.0 742.0 555.0 726.0 518.0 706.0 455.0 696.0 409.0 690.0 358.0 690.0 282.0 691.0 278.0 692.0 278.0 703.0 291.0 713.0 296.0 770.0 313.0 805.0 326.0 810.0 325.0 808.0 319.0 798.0 305.0 784.0 290.0 775.0 284.0 770.0 284.0 766.0 285.0 740.0 307.0 726.0 324.0 722.0 337.0 720.0 348.0 722.0 360.0 746.0 436.0 767.0 518.0 777.0 547.0 798.0 597.0 817.0 636.0 842.0 680.0 863.0 714.0 870.0 722.0 878.0 727.0 886.0 728.0 894.0 726.0 900.0 721.0 903.0 716.0 903.0 710.0 900.0 704.0 893.0 695.0 866.0 670.0 854.0 656.0 834.0 624.0 818.0 588.0 810.0 560.0 803.0 520.0 794.0 448.0 792.0 416.0 794.0 348.0 797.0 316.0 810.0 235.0 816.0 208.0 822.0 195.0 832.0 190.0 843.0 193.0 857.0 207.0 868.0 227.0 874.0 248.0 875.0 262.0 872.0 276.0 862.0 292.0 859.0 299.0 856.0 352.0 849.0 378.0 820.0 448.0 800.0 503.0 781.0 550.0 776.0 570.0 774.0 584.0 774.0 598.0 784.0 654.0 784.0 678.0 782.0 688.0 778.0 698.0 754.0 729.0 749.0 740.0 748.0 749.0 752.0 770.0 772.0 820.0 777.0 840.0 778.0 858.0 775.0 876.0 770.0 885.0 764.0 892.0 755.0 898.0 746.0 901.0 735.0 901.0 719.0 895.0 708.0 888.0 698.0 878.0 684.0 860.0 672.0 840.0 650.0 788.0 632.0 739.0 616.0 666.0 596.0 520.0 575.0 421.0 564.0 341.0 564.0 328.0 566.0 316.0 568.0 305.0 576.0 292.0 584.0 288.0 592.0 287.0 605.0 293.0 614.0 302.0 620.0 313.0 626.0 326.0 632.0 348.0 634.0 372.0 633.0 445.0 636.0 501.0 634.0 656.0 631.0 686.0 627.0 696.0 622.0 704.0 612.0 711.0 606.0 710.0 600.0 704.0 598.0 695.0 599.0 678.0 602.0 666.0 606.0 652.0 614.0 633.0 633.0 606.0 659.0 578.0 671.0 564.0 678.0 552.0 682.0 538.0 684.0 514.0 686.0 447.0 692.0 372.0 688.0 303.0 692.0 281.0 699.0 258.0 702.0 242.0 700.0 231.0 694.0 224.0 683.0 215.0 673.0 212.0 663.0 210.0 648.0 212.0 614.0 219.0 608.0 219.0 606.0 216.0 611.0 213.0 617.0 216.0 623.0 227.0 627.0 242.0 628.0 259.0 624.0 295.0 624.0 314.0 627.0 342.0 632.0 375.0 644.0 418.0 655.0 449.0 682.0 508.0 702.0 544.0 714.0 564.0 727.0 583.0 760.0 617.0 774.0 635.0 786.0 656.0 790.0 670.0 792.0 684.0 792.0 697.0 788.0 709.0 778.0 725.0 766.0 738.0 744.0 752.0 727.0 759.0 704.0 762.0 662.0 762.0 638.0 759.0 621.0 754.0 602.0 742.0 590.0 724.0 568.0 650.0 550.0 606.0"/>
<polyline fill="none" stroke="#00f" points="244.0 752.0 253.0 736.0 263.0 723.0 316.0 674.0 334.0 656.0 371.0 606.0 398.0 564.0 424.0 504.0 456.0 451.0 466.0 431.0 468.0 418.0 467.0 408.0 462.0 400.0 450.0 393.0 448.0 388.0 452.0 374.0 464.0 354.0 468.0 350.0 472.0 348.0 480.0 352.0 487.0 363.0 494.0 385.0 496.0 405.0 495.0 427.0 487.0 462.0 455.0 550.0 431.0 632.0 399.0 728.0 388.0 758.0 378.0 779.0 361.0 805.0 336.0 830.0 309.0 847.0 283.0 860.0 268.0 870.0 254.0 883.0 237.0 904.0 220.0 920.0 210.0 926.0 197.0 928.0 189.0 925.0 183.0 918.0 176.0 903.0 173.0 890.0 168.0 862.0 164.0 810.0 164.0 788.0 167.0 776.0 171.0 763.0 177.0 751.0 242.0 660.0 264.0 622.0 274.0 602.0 288.0 560.0 306.0 490.0 310.0 458.0 311.0 412.0 305.0 440.0 298.0 453.0 292.0 459.0 276.0 469.0 262.0 475.0 246.0 478.0 228.0 480.0 214.0 478.0 211.0 473.0 210.0 466.0 216.0 443.0 231.0 412.0 241.0 400.0 250.0 398.0 269.0 402.0 274.0 406.0 277.0 414.0 274.0 428.0 255.0 488.0 233.0 568.0 224.0 594.0 208.0 633.0 155.0 735.0 148.0 746.0 137.0 756.0 133.0 758.0 125.0 758.0 117.0 756.0 110.0 750.0 106.0 742.0 105.0 734.0 106.0 725.0 110.0 716.0 118.0 702.0 154.0 657.0 169.0 631.0 178.0 611.0 184.0 592.0 191.0 566.0 203.0 482.0 206.0 439.0 204.0 402.0 185.0 324.0 180.0 317.0 174.0 317.0 157.0 332.0 130.0 368.0 143.0 349.0 144.0 348.0 146.0 350.0 153.0 379.0 160.0 401.0 190.0 484.0 210.0 533.0 214.0 547.0 216.0 564.0 213.0 618.0 215.0 640.0 218.0 653.0 226.0 670.0 260.0 716.0 268.0 740.0 270.0 760.0 268.0 776.0 251.0 844.0 247.0 864.0 248.0 890.0 250.0 900.0 255.0 908.0 261.0 913.0 269.0 916.0 282.0 914.0 297.0 906.0 312.0 894.0 326.0 878.0 338.0 859.0 356.0 824.0 370.0 786.0 384.0 737.0 394.0 671.0 410.0 526.0 429.0 423.0 435.0 357.0 435.0 324.0 431.0 304.0 426.0 293.0 420.0 285.0 408.0 280.0 400.0 282.0 393.0 287.0 382.0 301.0 375.0 321.0 371.0 345.0 370.0 378.0 372.0 441.0 370.0 509.0 376.0 620.0 378.0 644.0 382.0 664.0 386.0 674.0 396.0 684.0 399.0 685.0 406.0 685.0 408.0 684.0 412.0 679.0 414.0 671.0 413.0 661.0 409.0 642.0 402.0 622.0 393.0 601.0 378.0 577.0 363.0 558.0 334.0 530.0 328.0 520.0 324.0 507.0 320.0 486.0 316.0 422.0 308.0 365.0 308.0 307.0 304.0 296.0 286.0 276.0 286.0 272.0 294.0 268.0 302.0 267.0 316.0 268.0 326.0 270.0 356.0 285.0 373.0 295.0 384.0 304.0 376.0 317.0 369.0 330.0 363.0 348.0 362.0 362.0 362.0 382.0 366.0 436.0 365.0 470.0 360.0 499.0 351.0 527.0 308.0 616.0 283.0 658.0 243.0 706.0 228.0 730.0 224.0 742.0 221.0 754.0 222.0 764.0 226.0 775.0 236.0 789.0 250.0 801.0 272.0 814.0 294.0 821.0 311.0 822.0 332.0 818.0 358.0 810.0 378.0 802.0 396.0 790.0 404.0 782.0 410.0 772.0 431.0 705.0 449.0 663.0"/>
<polyline fill="none" stroke="#00f" points="694.0 709.0 710.0 648.0 710.0 626.0 706.0 608.0 700.0 596.0 692.0 585.0 662.0 554.0 638.0 524.0 619.0 498.0 594.0 456.0 530.0 309.0 526.0 296.0 526.0 288.0 530.0 286.0 534.0 288.0 538.0 297.0 538.0 302.0 534.0 309.0 522.0 317.0 516.0 333.0 509.0 376.0 510.0 391.0 513.0 409.0 526.0 450.0 547.0 500.0 583.0 611.0 620.0 718.0 633.0 748.0 650.0 774.0 670.0 795.0 686.0 806.0 738.0 834.0 748.0 840.0 757.0 849.0 784.0 880.0 793.0 888.0 808.0 892.0 818.0 892.0 827.0 886.0 835.0 878.0 842.0 867.0 850.0 846.0 855.0 806.0 856.0 774.0 854.0 730.0 846.0 705.0 839.0 693.0 753.0 578.0 741.0 557.0 724.0 520.0 704.0 457.0 692.0 404.0 688.0 352.0 687.0 288.0 688.0 275.0 690.0 274.0 702.0 286.0 712.0 292.0 757.0 307.0 804.0 330.0 808.0 330.0 808.0 326.0 795.0 306.0 784.0 293.0 776.0 288.0 768.0 287.0 752.0 297.0 743.0 306.0 728.0 323.0 722.0 341.0 722.0 352.0 724.0 365.0 745.0 427.0 774.0 531.0 788.0 568.0 815.0 628.0 853.0 698.0 868.0 720.0 875.0 728.0 883.0 730.0 892.0 730.0 898.0 726.0 904.0 721.0 906.0 714.0 904.0 708.0 900.0 701.0 862.0 665.0 850.0 648.0 834.0 622.0 818.0 587.0 807.0 543.0 796.0 446.0 794.0 382.0 797.0 340.0 816.0 220.0 820.0 202.0 828.0 191.0 838.0 188.0 850.0 194.0 860.0 206.0 869.0 223.0 876.0 246.0 878.0 264.0 876.0 274.0 865.0 290.0 861.0 302.0 858.0 353.0 852.0 378.0 826.0 434.0 803.0 494.0 779.0 548.0 772.0 568.0 770.0 583.0 772.0 606.0 784.0 669.0 784.0 687.0 776.0 706.0 756.0 732.0 751.0 746.0 755.0 770.0 774.0 820.0 780.0 840.0 780.0 865.0 776.0 876.0 771.0 887.0 764.0 896.0 754.0 901.0 744.0 904.0 734.0 905.0 722.0 902.0 712.0 896.0 691.0 876.0 682.0 864.0 672.0 843.0 638.0 755.0 629.0 723.0 616.0 658.0 597.0 514.0 578.0 420.0 566.0 327.0 568.0 314.0 570.0 303.0 575.0 293.0 582.0 286.0 590.0 284.0 598.0 285.0 607.0 290.0 616.0 299.0 624.0 311.0 632.0 332.0 635.0 348.0 638.0 372.0 636.0 453.0 638.0 524.0 635.0 656.0 632.0 685.0 628.0 696.0 622.0 706.0 613.0 712.0 607.0 712.0 602.0 708.0 598.0 696.0 597.0 679.0 601.0 660.0 612.0 633.0 628.0 612.0 669.0 570.0 676.0 558.0 684.0 538.0 686.0 522.0 688.0 446.0 694.0 372.0 691.0 304.0 692.0 288.0 701.0 249.0 700.0 238.0 696.0 231.0 682.0 220.0 667.0 214.0 651.0 213.0 616.0 217.0 609.0 217.0 606.0 214.0 609.0 212.0 612.0 212.0 618.0 216.0 623.0 227.0 626.0 242.0 626.0 259.0 622.0 294.0 622.0 314.0 628.0 367.0 638.0 411.0 650.0 443.0 674.0 494.0 692.0 532.0 712.0 566.0 726.0 584.0 770.0 629.0 782.0 649.0 788.0 664.0 790.0 678.0 790.0 698.0 786.0 709.0 774.0 729.0 760.0 741.0 740.0 753.0 722.0 758.0 711.0 760.0 644.0 760.0 626.0 758.0 616.0 754.0 600.0 743.0 589.0 725.0 567.0 649.0 548.0 606.0"/>
<polyline fill="none" stroke="#00f" points="246.0 754.0 265.0 726.0 312.0 678.0 332.0 654.0 365.0 608.0 392.0 567.0 425.0 495.0 457.0 442.0 466.0 423.0 468.0 411.0 467.0 404.0 464.0 399.0 460.0 395.0 447.0 388.0 446.0 385.0 449.0 374.0 460.0 352.0 470.0 344.0 476.0 344.0 481.0 348.0 489.0 360.0 496.0 384.0 498.0 406.0 498.0 429.0 490.0 465.0 460.0 544.0 426.0 656.0 410.0 700.0 392.0 750.0 378.0 778.0 360.0 804.0 340.0 826.0 324.0 838.0 267.0 868.0 253.0 880.0 223.0 914.0 209.0 923.0 196.0 926.0 184.0 921.0 178.0 912.0 174.0 902.0 169.0 882.0 166.0 852.0 165.0 809.0 167.0 776.0 177.0 752.0 243.0 663.0 259.0 638.0 275.0 604.0 291.0 556.0 308.0 494.0 312.0 466.0 314.0 411.0 304.0 442.0 299.0 450.0 290.0 458.0 277.0 466.0 258.0 473.0 233.0 480.0 221.0 481.0 215.0 479.0 212.0 476.0 212.0 465.0 217.0 446.0 235.0 406.0 240.0 400.0 243.0 398.0 254.0 398.0 271.0 402.0 274.0 406.0 275.0 412.0 273.0 425.0 255.0 479.0 231.0 565.0 219.0 599.0 200.0 642.0 154.0 734.0 147.0 745.0 136.0 756.0 128.0 760.0 115.0 757.0 108.0 752.0 104.0 744.0 102.0 734.0 106.0 720.0 117.0 700.0 141.0 672.0 153.0 655.0 172.0 622.0 185.0 589.0 193.0 549.0 202.0 462.0 203.0 431.0 202.0 407.0 182.0 324.0 177.0 316.0 171.0 316.0 158.0 328.0 127.0 370.0 142.0 347.0 144.0 344.0 148.0 347.0 159.0 390.0 184.0 469.0 211.0 544.0 212.0 558.0 211.0 608.0 213.0 630.0 216.0 643.0 227.0 666.0 262.0 714.0 272.0 740.0 273.0 761.0 271.0 776.0 252.0 852.0 249.0 871.0 250.0 894.0 255.0 906.0 258.0 909.0 264.0 912.0 276.0 912.0 295.0 903.0 310.0 890.0 328.0 869.0 341.0 850.0 355.0 823.0 371.0 786.0 380.0 754.0 393.0 688.0 402.0 623.0 413.0 519.0 432.0 425.0 438.0 357.0 438.0 324.0 435.0 310.0 431.0 298.0 425.0 289.0 414.0 282.0 406.0 282.0 403.0 284.0 395.0 289.0 388.0 297.0 380.0 315.0 374.0 346.0 373.0 379.0 375.0 450.0 373.0 518.0 376.0 605.0 378.0 636.0 382.0 658.0 386.0 670.0 394.0 682.0 404.0 684.0 412.0 680.0 414.0 670.0 411.0 656.0 400.0 623.0 381.0 584.0 370.0 568.0 336.0 530.0 328.0 514.0 324.0 494.0 319.0 423.0 312.0 372.0 311.0 353.0 312.0 322.0 311.0 305.0 306.0 293.0 286.0 272.0 285.0 268.0 290.0 265.0 301.0 264.0 315.0 266.0 326.0 270.0 356.0 287.0 384.0 308.0 378.0 315.0 369.0 332.0 361.0 356.0 360.0 384.0 364.0 430.0 363.0 462.0 360.0 483.0 351.0 518.0 343.0 538.0 313.0 601.0 289.0 644.0 274.0 668.0 239.0 710.0 228.0 728.0 223.0 740.0 220.0 752.0 220.0 763.0 224.0 774.0 235.0 788.0 255.0 805.0 272.0 814.0 295.0 822.0 312.0 823.0 328.0 820.0 348.0 814.0 373.0 802.0 395.0 788.0 406.0 775.0 414.0 756.0 430.0 704.0 448.0 662.0"/>
</svg>